<mxfile host="65bd71144e" pages="3">
    <diagram id="3DOKHN4Zm7IevpzfCeBe" name="V1">
        <mxGraphModel dx="4112" dy="-3050" grid="0" gridSize="10" guides="0" tooltips="1" connect="1" arrows="1" fold="1" page="0" pageScale="1" pageWidth="827" pageHeight="1169" math="0" shadow="0">
            <root>
                <mxCell id="0"/>
                <mxCell id="1" parent="0"/>
                <mxCell id="gdRrn17QTcCQpCH86mqd-1691" value="Structure" style="swimlane;labelBackgroundColor=none;fontSize=11;startSize=23;" parent="1" vertex="1">
                    <mxGeometry x="-2682" y="4170" width="1230" height="850" as="geometry">
                        <mxRectangle x="-130" y="230" width="90" height="30" as="alternateBounds"/>
                    </mxGeometry>
                </mxCell>
                <mxCell id="gdRrn17QTcCQpCH86mqd-1694" value="RefreshToken" style="swimlane;fontStyle=0;childLayout=stackLayout;horizontal=1;startSize=26;fillColor=none;horizontalStack=0;resizeParent=1;resizeParentMax=0;resizeLast=0;collapsible=1;marginBottom=0;" parent="gdRrn17QTcCQpCH86mqd-1691" vertex="1">
                    <mxGeometry x="27.000000000000007" y="464.67" width="170" height="104" as="geometry"/>
                </mxCell>
                <mxCell id="gdRrn17QTcCQpCH86mqd-1695" value="+ LoginId: Guid" style="text;strokeColor=none;fillColor=none;align=left;verticalAlign=top;spacingLeft=4;spacingRight=4;overflow=hidden;rotatable=0;points=[[0,0.5],[1,0.5]];portConstraint=eastwest;" parent="gdRrn17QTcCQpCH86mqd-1694" vertex="1">
                    <mxGeometry y="26" width="170" height="26" as="geometry"/>
                </mxCell>
                <mxCell id="gdRrn17QTcCQpCH86mqd-1696" value="+ Expiration: DateTimeOffset" style="text;strokeColor=none;fillColor=none;align=left;verticalAlign=top;spacingLeft=4;spacingRight=4;overflow=hidden;rotatable=0;points=[[0,0.5],[1,0.5]];portConstraint=eastwest;" parent="gdRrn17QTcCQpCH86mqd-1694" vertex="1">
                    <mxGeometry y="52" width="170" height="26" as="geometry"/>
                </mxCell>
                <mxCell id="gdRrn17QTcCQpCH86mqd-1697" value="+ Token: string" style="text;strokeColor=none;fillColor=none;align=left;verticalAlign=top;spacingLeft=4;spacingRight=4;overflow=hidden;rotatable=0;points=[[0,0.5],[1,0.5]];portConstraint=eastwest;" parent="gdRrn17QTcCQpCH86mqd-1694" vertex="1">
                    <mxGeometry y="78" width="170" height="26" as="geometry"/>
                </mxCell>
                <mxCell id="gdRrn17QTcCQpCH86mqd-1812" style="edgeStyle=orthogonalEdgeStyle;rounded=0;jumpSize=8;orthogonalLoop=1;jettySize=auto;html=1;exitX=0;exitY=0.5;exitDx=0;exitDy=0;entryX=1;entryY=0.5;entryDx=0;entryDy=0;fontSize=11;startArrow=none;startFill=0;endArrow=diamondThin;endFill=1;startSize=8;endSize=8;strokeWidth=1;" parent="gdRrn17QTcCQpCH86mqd-1691" source="gdRrn17QTcCQpCH86mqd-1704" target="gdRrn17QTcCQpCH86mqd-1711" edge="1">
                    <mxGeometry relative="1" as="geometry"/>
                </mxCell>
                <mxCell id="gdRrn17QTcCQpCH86mqd-1813" value="1" style="edgeLabel;html=1;align=center;verticalAlign=middle;resizable=0;points=[];fontSize=11;labelBackgroundColor=none;" parent="gdRrn17QTcCQpCH86mqd-1812" vertex="1" connectable="0">
                    <mxGeometry x="0.9879" relative="1" as="geometry">
                        <mxPoint x="3" y="-26" as="offset"/>
                    </mxGeometry>
                </mxCell>
                <mxCell id="gdRrn17QTcCQpCH86mqd-1814" value="0..*" style="edgeLabel;html=1;align=center;verticalAlign=middle;resizable=0;points=[];fontSize=11;labelBackgroundColor=none;" parent="gdRrn17QTcCQpCH86mqd-1812" vertex="1" connectable="0">
                    <mxGeometry x="-0.9876" relative="1" as="geometry">
                        <mxPoint x="-11" y="-7" as="offset"/>
                    </mxGeometry>
                </mxCell>
                <mxCell id="gdRrn17QTcCQpCH86mqd-1823" style="edgeStyle=orthogonalEdgeStyle;rounded=0;jumpSize=8;orthogonalLoop=1;jettySize=auto;html=1;exitX=0.5;exitY=1;exitDx=0;exitDy=0;entryX=1;entryY=0.5;entryDx=0;entryDy=0;fontSize=11;startArrow=diamondThin;startFill=1;endArrow=none;endFill=0;startSize=8;endSize=8;strokeWidth=1;" parent="gdRrn17QTcCQpCH86mqd-1691" source="gdRrn17QTcCQpCH86mqd-1702" target="gdRrn17QTcCQpCH86mqd-1818" edge="1">
                    <mxGeometry relative="1" as="geometry"/>
                </mxCell>
                <mxCell id="gdRrn17QTcCQpCH86mqd-1824" value="1..*" style="edgeLabel;html=1;align=center;verticalAlign=middle;resizable=0;points=[];fontSize=11;labelBackgroundColor=none;" parent="gdRrn17QTcCQpCH86mqd-1823" vertex="1" connectable="0">
                    <mxGeometry x="-0.9352" relative="1" as="geometry">
                        <mxPoint x="-15" y="4" as="offset"/>
                    </mxGeometry>
                </mxCell>
                <mxCell id="gdRrn17QTcCQpCH86mqd-1827" value="1" style="edgeLabel;html=1;align=center;verticalAlign=middle;resizable=0;points=[];fontSize=11;labelBackgroundColor=none;" parent="gdRrn17QTcCQpCH86mqd-1823" vertex="1" connectable="0">
                    <mxGeometry x="0.9883" y="1" relative="1" as="geometry">
                        <mxPoint x="4" y="-9" as="offset"/>
                    </mxGeometry>
                </mxCell>
                <mxCell id="gdRrn17QTcCQpCH86mqd-1829" value="has" style="edgeLabel;html=1;align=center;verticalAlign=middle;resizable=0;points=[];fontSize=11;labelBackgroundColor=none;" parent="gdRrn17QTcCQpCH86mqd-1823" vertex="1" connectable="0">
                    <mxGeometry x="0.3668" relative="1" as="geometry">
                        <mxPoint x="2" y="-8" as="offset"/>
                    </mxGeometry>
                </mxCell>
                <mxCell id="gdRrn17QTcCQpCH86mqd-1702" value="Document" style="swimlane;fontStyle=0;childLayout=stackLayout;horizontal=1;startSize=26;fillColor=none;horizontalStack=0;resizeParent=1;resizeParentMax=0;resizeLast=0;collapsible=1;marginBottom=0;" parent="gdRrn17QTcCQpCH86mqd-1691" vertex="1">
                    <mxGeometry x="846" y="432.99999999999994" width="140" height="116" as="geometry"/>
                </mxCell>
                <mxCell id="gdRrn17QTcCQpCH86mqd-1703" value="+ AccountId: Guid" style="text;strokeColor=none;fillColor=none;align=left;verticalAlign=top;spacingLeft=4;spacingRight=4;overflow=hidden;rotatable=0;points=[[0,0.5],[1,0.5]];portConstraint=eastwest;" parent="gdRrn17QTcCQpCH86mqd-1702" vertex="1">
                    <mxGeometry y="26" width="140" height="30" as="geometry"/>
                </mxCell>
                <mxCell id="gdRrn17QTcCQpCH86mqd-1704" value="+ Blob: byte[]" style="text;strokeColor=none;fillColor=none;align=left;verticalAlign=top;spacingLeft=4;spacingRight=4;overflow=hidden;rotatable=0;points=[[0,0.5],[1,0.5]];portConstraint=eastwest;" parent="gdRrn17QTcCQpCH86mqd-1702" vertex="1">
                    <mxGeometry y="56" width="140" height="30" as="geometry"/>
                </mxCell>
                <mxCell id="gdRrn17QTcCQpCH86mqd-1830" value="+ Content:Â JsonObject" style="text;strokeColor=none;fillColor=none;align=left;verticalAlign=top;spacingLeft=4;spacingRight=4;overflow=hidden;rotatable=0;points=[[0,0.5],[1,0.5]];portConstraint=eastwest;" parent="gdRrn17QTcCQpCH86mqd-1702" vertex="1">
                    <mxGeometry y="86" width="140" height="30" as="geometry"/>
                </mxCell>
                <mxCell id="gdRrn17QTcCQpCH86mqd-1706" style="edgeStyle=orthogonalEdgeStyle;rounded=0;jumpSize=8;orthogonalLoop=1;jettySize=auto;html=1;exitX=0.5;exitY=1;exitDx=0;exitDy=0;entryX=0.5;entryY=0;entryDx=0;entryDy=0;fontSize=11;startArrow=diamondThin;startFill=1;endArrow=none;endFill=0;startSize=8;endSize=8;strokeWidth=1;" parent="gdRrn17QTcCQpCH86mqd-1691" source="gdRrn17QTcCQpCH86mqd-1710" target="gdRrn17QTcCQpCH86mqd-1763" edge="1">
                    <mxGeometry relative="1" as="geometry"/>
                </mxCell>
                <mxCell id="gdRrn17QTcCQpCH86mqd-1707" value="0..1" style="edgeLabel;html=1;align=center;verticalAlign=middle;resizable=0;points=[];fontSize=11;labelBackgroundColor=none;" parent="gdRrn17QTcCQpCH86mqd-1706" vertex="1" connectable="0">
                    <mxGeometry x="0.8639" y="-2" relative="1" as="geometry">
                        <mxPoint x="-12" y="-3" as="offset"/>
                    </mxGeometry>
                </mxCell>
                <mxCell id="gdRrn17QTcCQpCH86mqd-1708" value="1" style="edgeLabel;html=1;align=center;verticalAlign=middle;resizable=0;points=[];fontSize=11;labelBackgroundColor=none;" parent="gdRrn17QTcCQpCH86mqd-1706" vertex="1" connectable="0">
                    <mxGeometry x="-1" y="-1" relative="1" as="geometry">
                        <mxPoint x="-7" y="8" as="offset"/>
                    </mxGeometry>
                </mxCell>
                <mxCell id="gdRrn17QTcCQpCH86mqd-1709" value="has" style="edgeLabel;html=1;align=center;verticalAlign=middle;resizable=0;points=[];fontSize=11;labelBackgroundColor=none;" parent="gdRrn17QTcCQpCH86mqd-1706" vertex="1" connectable="0">
                    <mxGeometry x="-0.0549" y="-1" relative="1" as="geometry">
                        <mxPoint x="-11" y="-2" as="offset"/>
                    </mxGeometry>
                </mxCell>
                <mxCell id="gdRrn17QTcCQpCH86mqd-1710" value="Account" style="swimlane;fontStyle=0;childLayout=stackLayout;horizontal=1;startSize=26;fillColor=none;horizontalStack=0;resizeParent=1;resizeParentMax=0;resizeLast=0;collapsible=1;marginBottom=0;labelBackgroundColor=none;fontSize=11;" parent="gdRrn17QTcCQpCH86mqd-1691" vertex="1">
                    <mxGeometry x="473" y="464.66999999999996" width="140" height="104" as="geometry">
                        <mxRectangle x="290" y="480" width="80" height="30" as="alternateBounds"/>
                    </mxGeometry>
                </mxCell>
                <mxCell id="gdRrn17QTcCQpCH86mqd-1711" value="+ AccountType: enum" style="text;strokeColor=none;fillColor=none;align=left;verticalAlign=top;spacingLeft=4;spacingRight=4;overflow=hidden;rotatable=0;points=[[0,0.5],[1,0.5]];portConstraint=eastwest;labelBackgroundColor=none;fontSize=11;" parent="gdRrn17QTcCQpCH86mqd-1710" vertex="1">
                    <mxGeometry y="26" width="140" height="26" as="geometry"/>
                </mxCell>
                <mxCell id="gdRrn17QTcCQpCH86mqd-1712" value="+ Enabled: bool" style="text;strokeColor=none;fillColor=none;align=left;verticalAlign=top;spacingLeft=4;spacingRight=4;overflow=hidden;rotatable=0;points=[[0,0.5],[1,0.5]];portConstraint=eastwest;labelBackgroundColor=none;fontSize=11;" parent="gdRrn17QTcCQpCH86mqd-1710" vertex="1">
                    <mxGeometry y="52" width="140" height="26" as="geometry"/>
                </mxCell>
                <mxCell id="gdRrn17QTcCQpCH86mqd-1850" value="+ Validated: bool" style="text;strokeColor=none;fillColor=none;align=left;verticalAlign=top;spacingLeft=4;spacingRight=4;overflow=hidden;rotatable=0;points=[[0,0.5],[1,0.5]];portConstraint=eastwest;labelBackgroundColor=none;fontSize=11;" parent="gdRrn17QTcCQpCH86mqd-1710" vertex="1">
                    <mxGeometry y="78" width="140" height="26" as="geometry"/>
                </mxCell>
                <mxCell id="gdRrn17QTcCQpCH86mqd-1713" value="Login" style="swimlane;fontStyle=0;childLayout=stackLayout;horizontal=1;startSize=26;fillColor=none;horizontalStack=0;resizeParent=1;resizeParentMax=0;resizeLast=0;collapsible=1;marginBottom=0;labelBackgroundColor=none;fontSize=11;" parent="gdRrn17QTcCQpCH86mqd-1691" vertex="1">
                    <mxGeometry x="263" y="464.66999999999996" width="150" height="104" as="geometry">
                        <mxRectangle x="80" y="480" width="70" height="30" as="alternateBounds"/>
                    </mxGeometry>
                </mxCell>
                <mxCell id="gdRrn17QTcCQpCH86mqd-1714" value="+ AccountId: Guid" style="text;strokeColor=none;fillColor=none;align=left;verticalAlign=top;spacingLeft=4;spacingRight=4;overflow=hidden;rotatable=0;points=[[0,0.5],[1,0.5]];portConstraint=eastwest;labelBackgroundColor=none;fontSize=11;" parent="gdRrn17QTcCQpCH86mqd-1713" vertex="1">
                    <mxGeometry y="26" width="150" height="26" as="geometry"/>
                </mxCell>
                <mxCell id="gdRrn17QTcCQpCH86mqd-1715" value="+ Username: string" style="text;strokeColor=none;fillColor=none;align=left;verticalAlign=top;spacingLeft=4;spacingRight=4;overflow=hidden;rotatable=0;points=[[0,0.5],[1,0.5]];portConstraint=eastwest;labelBackgroundColor=none;fontSize=11;" parent="gdRrn17QTcCQpCH86mqd-1713" vertex="1">
                    <mxGeometry y="52" width="150" height="26" as="geometry"/>
                </mxCell>
                <mxCell id="gdRrn17QTcCQpCH86mqd-1716" value="+ Password: string" style="text;strokeColor=none;fillColor=none;align=left;verticalAlign=top;spacingLeft=4;spacingRight=4;overflow=hidden;rotatable=0;points=[[0,0.5],[1,0.5]];portConstraint=eastwest;labelBackgroundColor=none;fontSize=11;" parent="gdRrn17QTcCQpCH86mqd-1713" vertex="1">
                    <mxGeometry y="78" width="150" height="26" as="geometry"/>
                </mxCell>
                <mxCell id="gdRrn17QTcCQpCH86mqd-1717" style="edgeStyle=orthogonalEdgeStyle;rounded=0;jumpSize=8;orthogonalLoop=1;jettySize=auto;html=1;fontSize=11;startArrow=none;startFill=0;endArrow=diamondThin;endFill=1;startSize=8;endSize=8;strokeWidth=1;exitX=1;exitY=0.5;exitDx=0;exitDy=0;entryX=0;entryY=0.5;entryDx=0;entryDy=0;" parent="gdRrn17QTcCQpCH86mqd-1691" source="gdRrn17QTcCQpCH86mqd-1714" target="gdRrn17QTcCQpCH86mqd-1711" edge="1">
                    <mxGeometry relative="1" as="geometry">
                        <mxPoint x="413" y="504.66999999999996" as="sourcePoint"/>
                        <mxPoint x="473" y="504.66999999999996" as="targetPoint"/>
                    </mxGeometry>
                </mxCell>
                <mxCell id="gdRrn17QTcCQpCH86mqd-1718" value="1" style="edgeLabel;html=1;align=center;verticalAlign=middle;resizable=0;points=[];fontSize=11;labelBackgroundColor=none;" parent="gdRrn17QTcCQpCH86mqd-1717" vertex="1" connectable="0">
                    <mxGeometry x="-0.8359" y="1" relative="1" as="geometry">
                        <mxPoint x="-1" y="-6" as="offset"/>
                    </mxGeometry>
                </mxCell>
                <mxCell id="gdRrn17QTcCQpCH86mqd-1719" value="1" style="edgeLabel;html=1;align=center;verticalAlign=middle;resizable=0;points=[];fontSize=11;labelBackgroundColor=none;" parent="gdRrn17QTcCQpCH86mqd-1717" vertex="1" connectable="0">
                    <mxGeometry x="0.7366" relative="1" as="geometry">
                        <mxPoint x="1" y="-10" as="offset"/>
                    </mxGeometry>
                </mxCell>
                <mxCell id="gdRrn17QTcCQpCH86mqd-1720" value="has" style="edgeLabel;html=1;align=center;verticalAlign=middle;resizable=0;points=[];fontSize=11;labelBackgroundColor=none;" parent="gdRrn17QTcCQpCH86mqd-1717" vertex="1" connectable="0">
                    <mxGeometry x="-0.0889" y="1" relative="1" as="geometry">
                        <mxPoint y="-8" as="offset"/>
                    </mxGeometry>
                </mxCell>
                <mxCell id="gdRrn17QTcCQpCH86mqd-1721" style="edgeStyle=orthogonalEdgeStyle;rounded=0;jumpSize=8;orthogonalLoop=1;jettySize=auto;html=1;exitX=0.5;exitY=0;exitDx=0;exitDy=0;fontSize=11;startArrow=none;startFill=0;endArrow=diamondThin;endFill=1;startSize=8;endSize=8;strokeWidth=1;entryX=0.5;entryY=1;entryDx=0;entryDy=0;" parent="gdRrn17QTcCQpCH86mqd-1691" source="gdRrn17QTcCQpCH86mqd-1725" target="gdRrn17QTcCQpCH86mqd-1713" edge="1">
                    <mxGeometry relative="1" as="geometry">
                        <mxPoint x="338.3333333333335" y="574.67" as="targetPoint"/>
                    </mxGeometry>
                </mxCell>
                <mxCell id="gdRrn17QTcCQpCH86mqd-1722" value="1" style="edgeLabel;html=1;align=center;verticalAlign=middle;resizable=0;points=[];fontSize=11;labelBackgroundColor=none;" parent="gdRrn17QTcCQpCH86mqd-1721" vertex="1" connectable="0">
                    <mxGeometry x="0.7923" y="2" relative="1" as="geometry">
                        <mxPoint x="-6" y="3" as="offset"/>
                    </mxGeometry>
                </mxCell>
                <mxCell id="gdRrn17QTcCQpCH86mqd-1723" value="0..*" style="edgeLabel;html=1;align=center;verticalAlign=middle;resizable=0;points=[];fontSize=11;labelBackgroundColor=none;" parent="gdRrn17QTcCQpCH86mqd-1721" vertex="1" connectable="0">
                    <mxGeometry x="-0.9339" relative="1" as="geometry">
                        <mxPoint x="-12" y="-5" as="offset"/>
                    </mxGeometry>
                </mxCell>
                <mxCell id="gdRrn17QTcCQpCH86mqd-1724" value="has" style="edgeLabel;html=1;align=center;verticalAlign=middle;resizable=0;points=[];fontSize=11;labelBackgroundColor=none;" parent="gdRrn17QTcCQpCH86mqd-1721" vertex="1" connectable="0">
                    <mxGeometry x="0.0513" y="1" relative="1" as="geometry">
                        <mxPoint x="-12" as="offset"/>
                    </mxGeometry>
                </mxCell>
                <mxCell id="gdRrn17QTcCQpCH86mqd-1725" value="LoginDetail" style="swimlane;fontStyle=0;childLayout=stackLayout;horizontal=1;startSize=26;fillColor=none;horizontalStack=0;resizeParent=1;resizeParentMax=0;resizeLast=0;collapsible=1;marginBottom=0;labelBackgroundColor=none;fontSize=11;" parent="gdRrn17QTcCQpCH86mqd-1691" vertex="1">
                    <mxGeometry x="263" y="620.67" width="150" height="130" as="geometry"/>
                </mxCell>
                <mxCell id="gdRrn17QTcCQpCH86mqd-1726" value="+ LoginId: Guid" style="text;strokeColor=none;fillColor=none;align=left;verticalAlign=top;spacingLeft=4;spacingRight=4;overflow=hidden;rotatable=0;points=[[0,0.5],[1,0.5]];portConstraint=eastwest;labelBackgroundColor=none;fontSize=11;" parent="gdRrn17QTcCQpCH86mqd-1725" vertex="1">
                    <mxGeometry y="26" width="150" height="26" as="geometry"/>
                </mxCell>
                <mxCell id="gdRrn17QTcCQpCH86mqd-1727" value="+ Success: bool" style="text;strokeColor=none;fillColor=none;align=left;verticalAlign=top;spacingLeft=4;spacingRight=4;overflow=hidden;rotatable=0;points=[[0,0.5],[1,0.5]];portConstraint=eastwest;labelBackgroundColor=none;fontSize=11;" parent="gdRrn17QTcCQpCH86mqd-1725" vertex="1">
                    <mxGeometry y="52" width="150" height="26" as="geometry"/>
                </mxCell>
                <mxCell id="gdRrn17QTcCQpCH86mqd-1728" value="+ DeviceType: enum" style="text;strokeColor=none;fillColor=none;align=left;verticalAlign=top;spacingLeft=4;spacingRight=4;overflow=hidden;rotatable=0;points=[[0,0.5],[1,0.5]];portConstraint=eastwest;labelBackgroundColor=none;fontSize=11;" parent="gdRrn17QTcCQpCH86mqd-1725" vertex="1">
                    <mxGeometry y="78" width="150" height="26" as="geometry"/>
                </mxCell>
                <mxCell id="gdRrn17QTcCQpCH86mqd-1729" value="+ Time: DateTimeOffset" style="text;strokeColor=none;fillColor=none;align=left;verticalAlign=top;spacingLeft=4;spacingRight=4;overflow=hidden;rotatable=0;points=[[0,0.5],[1,0.5]];portConstraint=eastwest;labelBackgroundColor=none;fontSize=11;" parent="gdRrn17QTcCQpCH86mqd-1725" vertex="1">
                    <mxGeometry y="104" width="150" height="26" as="geometry"/>
                </mxCell>
                <mxCell id="gdRrn17QTcCQpCH86mqd-1730" value="AccountRole" style="swimlane;fontStyle=0;childLayout=stackLayout;horizontal=1;startSize=26;fillColor=none;horizontalStack=0;resizeParent=1;resizeParentMax=0;resizeLast=0;collapsible=1;marginBottom=0;" parent="gdRrn17QTcCQpCH86mqd-1691" vertex="1">
                    <mxGeometry x="670" y="360" width="140" height="86" as="geometry"/>
                </mxCell>
                <mxCell id="gdRrn17QTcCQpCH86mqd-1731" value="+ AccountId: Guid" style="text;strokeColor=none;fillColor=none;align=left;verticalAlign=top;spacingLeft=4;spacingRight=4;overflow=hidden;rotatable=0;points=[[0,0.5],[1,0.5]];portConstraint=eastwest;" parent="gdRrn17QTcCQpCH86mqd-1730" vertex="1">
                    <mxGeometry y="26" width="140" height="30" as="geometry"/>
                </mxCell>
                <mxCell id="gdRrn17QTcCQpCH86mqd-1732" value="+ RoleType: enum" style="text;strokeColor=none;fillColor=none;align=left;verticalAlign=top;spacingLeft=4;spacingRight=4;overflow=hidden;rotatable=0;points=[[0,0.5],[1,0.5]];portConstraint=eastwest;" parent="gdRrn17QTcCQpCH86mqd-1730" vertex="1">
                    <mxGeometry y="56" width="140" height="30" as="geometry"/>
                </mxCell>
                <mxCell id="gdRrn17QTcCQpCH86mqd-1733" style="edgeStyle=orthogonalEdgeStyle;rounded=0;jumpSize=8;orthogonalLoop=1;jettySize=auto;html=1;entryX=1;entryY=0.5;entryDx=0;entryDy=0;fontSize=11;startArrow=none;startFill=0;endArrow=diamondThin;endFill=1;startSize=8;endSize=8;strokeWidth=1;exitX=0.499;exitY=1.011;exitDx=0;exitDy=0;exitPerimeter=0;" parent="gdRrn17QTcCQpCH86mqd-1691" source="gdRrn17QTcCQpCH86mqd-1732" target="gdRrn17QTcCQpCH86mqd-1711" edge="1">
                    <mxGeometry relative="1" as="geometry">
                        <mxPoint x="710" y="460" as="sourcePoint"/>
                    </mxGeometry>
                </mxCell>
                <mxCell id="gdRrn17QTcCQpCH86mqd-1734" value="1..*" style="edgeLabel;html=1;align=center;verticalAlign=middle;resizable=0;points=[];fontSize=11;labelBackgroundColor=none;" parent="gdRrn17QTcCQpCH86mqd-1733" vertex="1" connectable="0">
                    <mxGeometry x="-0.974" y="-1" relative="1" as="geometry">
                        <mxPoint x="-12" y="6" as="offset"/>
                    </mxGeometry>
                </mxCell>
                <mxCell id="gdRrn17QTcCQpCH86mqd-1735" value="has" style="edgeLabel;html=1;align=center;verticalAlign=middle;resizable=0;points=[];fontSize=11;labelBackgroundColor=none;" parent="gdRrn17QTcCQpCH86mqd-1733" vertex="1" connectable="0">
                    <mxGeometry x="-0.0102" relative="1" as="geometry">
                        <mxPoint x="-21" y="-11" as="offset"/>
                    </mxGeometry>
                </mxCell>
                <mxCell id="gdRrn17QTcCQpCH86mqd-1752" style="edgeStyle=orthogonalEdgeStyle;rounded=0;jumpSize=8;orthogonalLoop=1;jettySize=auto;html=1;exitX=0.5;exitY=1;exitDx=0;exitDy=0;entryX=0.5;entryY=0;entryDx=0;entryDy=0;fontSize=11;startArrow=none;startFill=0;endArrow=diamondThin;endFill=1;startSize=8;endSize=8;strokeWidth=1;" parent="gdRrn17QTcCQpCH86mqd-1691" source="gdRrn17QTcCQpCH86mqd-1756" target="gdRrn17QTcCQpCH86mqd-1710" edge="1">
                    <mxGeometry relative="1" as="geometry"/>
                </mxCell>
                <mxCell id="gdRrn17QTcCQpCH86mqd-1753" value="1" style="edgeLabel;html=1;align=center;verticalAlign=middle;resizable=0;points=[];fontSize=11;labelBackgroundColor=none;" parent="gdRrn17QTcCQpCH86mqd-1752" vertex="1" connectable="0">
                    <mxGeometry x="0.7976" y="-1" relative="1" as="geometry">
                        <mxPoint x="-8" y="-3" as="offset"/>
                    </mxGeometry>
                </mxCell>
                <mxCell id="gdRrn17QTcCQpCH86mqd-1754" value="has" style="edgeLabel;html=1;align=center;verticalAlign=middle;resizable=0;points=[];fontSize=11;labelBackgroundColor=none;" parent="gdRrn17QTcCQpCH86mqd-1752" vertex="1" connectable="0">
                    <mxGeometry x="-0.2024" relative="1" as="geometry">
                        <mxPoint x="-12" y="3" as="offset"/>
                    </mxGeometry>
                </mxCell>
                <mxCell id="gdRrn17QTcCQpCH86mqd-1755" value="1" style="edgeLabel;html=1;align=center;verticalAlign=middle;resizable=0;points=[];fontSize=11;labelBackgroundColor=none;" parent="gdRrn17QTcCQpCH86mqd-1752" vertex="1" connectable="0">
                    <mxGeometry x="-1" y="-1" relative="1" as="geometry">
                        <mxPoint x="-6" y="8" as="offset"/>
                    </mxGeometry>
                </mxCell>
                <mxCell id="gdRrn17QTcCQpCH86mqd-1756" value="AccountInfo" style="swimlane;fontStyle=0;childLayout=stackLayout;horizontal=1;startSize=26;fillColor=none;horizontalStack=0;resizeParent=1;resizeParentMax=0;resizeLast=0;collapsible=1;marginBottom=0;labelBackgroundColor=none;fontSize=11;" parent="gdRrn17QTcCQpCH86mqd-1691" vertex="1">
                    <mxGeometry x="462" y="200" width="162" height="208" as="geometry">
                        <mxRectangle x="290" y="480" width="80" height="30" as="alternateBounds"/>
                    </mxGeometry>
                </mxCell>
                <mxCell id="gdRrn17QTcCQpCH86mqd-1757" value="+ AccountId: Guid" style="text;strokeColor=none;fillColor=none;align=left;verticalAlign=top;spacingLeft=4;spacingRight=4;overflow=hidden;rotatable=0;points=[[0,0.5],[1,0.5]];portConstraint=eastwest;labelBackgroundColor=none;fontSize=11;" parent="gdRrn17QTcCQpCH86mqd-1756" vertex="1">
                    <mxGeometry y="26" width="162" height="26" as="geometry"/>
                </mxCell>
                <mxCell id="gdRrn17QTcCQpCH86mqd-1758" value="+ Firstname: string" style="text;strokeColor=none;fillColor=none;align=left;verticalAlign=top;spacingLeft=4;spacingRight=4;overflow=hidden;rotatable=0;points=[[0,0.5],[1,0.5]];portConstraint=eastwest;labelBackgroundColor=none;fontSize=11;" parent="gdRrn17QTcCQpCH86mqd-1756" vertex="1">
                    <mxGeometry y="52" width="162" height="26" as="geometry"/>
                </mxCell>
                <mxCell id="gdRrn17QTcCQpCH86mqd-1851" value="+ MiddleNames: string" style="text;strokeColor=none;fillColor=none;align=left;verticalAlign=top;spacingLeft=4;spacingRight=4;overflow=hidden;rotatable=0;points=[[0,0.5],[1,0.5]];portConstraint=eastwest;labelBackgroundColor=none;fontSize=11;" parent="gdRrn17QTcCQpCH86mqd-1756" vertex="1">
                    <mxGeometry y="78" width="162" height="26" as="geometry"/>
                </mxCell>
                <mxCell id="gdRrn17QTcCQpCH86mqd-1759" value="+ Lastname: string" style="text;strokeColor=none;fillColor=none;align=left;verticalAlign=top;spacingLeft=4;spacingRight=4;overflow=hidden;rotatable=0;points=[[0,0.5],[1,0.5]];portConstraint=eastwest;labelBackgroundColor=none;fontSize=11;" parent="gdRrn17QTcCQpCH86mqd-1756" vertex="1">
                    <mxGeometry y="104" width="162" height="26" as="geometry"/>
                </mxCell>
                <mxCell id="gdRrn17QTcCQpCH86mqd-1760" value="+ DateOfBirth: DateTimeOffset" style="text;strokeColor=none;fillColor=none;align=left;verticalAlign=top;spacingLeft=4;spacingRight=4;overflow=hidden;rotatable=0;points=[[0,0.5],[1,0.5]];portConstraint=eastwest;labelBackgroundColor=none;fontSize=11;" parent="gdRrn17QTcCQpCH86mqd-1756" vertex="1">
                    <mxGeometry y="130" width="162" height="26" as="geometry"/>
                </mxCell>
                <mxCell id="gdRrn17QTcCQpCH86mqd-1761" value="+ Nationality: string" style="text;strokeColor=none;fillColor=none;align=left;verticalAlign=top;spacingLeft=4;spacingRight=4;overflow=hidden;rotatable=0;points=[[0,0.5],[1,0.5]];portConstraint=eastwest;labelBackgroundColor=none;fontSize=11;" parent="gdRrn17QTcCQpCH86mqd-1756" vertex="1">
                    <mxGeometry y="156" width="162" height="26" as="geometry"/>
                </mxCell>
                <mxCell id="gdRrn17QTcCQpCH86mqd-1762" value="+ SexType: enum" style="text;strokeColor=none;fillColor=none;align=left;verticalAlign=top;spacingLeft=4;spacingRight=4;overflow=hidden;rotatable=0;points=[[0,0.5],[1,0.5]];portConstraint=eastwest;labelBackgroundColor=none;fontSize=11;" parent="gdRrn17QTcCQpCH86mqd-1756" vertex="1">
                    <mxGeometry y="182" width="162" height="26" as="geometry"/>
                </mxCell>
                <mxCell id="gdRrn17QTcCQpCH86mqd-1763" value="ValidationCode" style="swimlane;fontStyle=0;childLayout=stackLayout;horizontal=1;startSize=26;fillColor=none;horizontalStack=0;resizeParent=1;resizeParentMax=0;resizeLast=0;collapsible=1;marginBottom=0;labelBackgroundColor=none;fontSize=11;" parent="gdRrn17QTcCQpCH86mqd-1691" vertex="1">
                    <mxGeometry x="463" y="630" width="160" height="78" as="geometry"/>
                </mxCell>
                <mxCell id="gdRrn17QTcCQpCH86mqd-1764" value="+ AccountId: Guid" style="text;strokeColor=none;fillColor=none;align=left;verticalAlign=top;spacingLeft=4;spacingRight=4;overflow=hidden;rotatable=0;points=[[0,0.5],[1,0.5]];portConstraint=eastwest;labelBackgroundColor=none;fontSize=11;" parent="gdRrn17QTcCQpCH86mqd-1763" vertex="1">
                    <mxGeometry y="26" width="160" height="26" as="geometry"/>
                </mxCell>
                <mxCell id="gdRrn17QTcCQpCH86mqd-1765" value="+ Code: string" style="text;strokeColor=none;fillColor=none;align=left;verticalAlign=top;spacingLeft=4;spacingRight=4;overflow=hidden;rotatable=0;points=[[0,0.5],[1,0.5]];portConstraint=eastwest;labelBackgroundColor=none;fontSize=11;" parent="gdRrn17QTcCQpCH86mqd-1763" vertex="1">
                    <mxGeometry y="52" width="160" height="26" as="geometry"/>
                </mxCell>
                <mxCell id="gdRrn17QTcCQpCH86mqd-1766" style="edgeStyle=orthogonalEdgeStyle;rounded=0;jumpSize=8;orthogonalLoop=1;jettySize=auto;html=1;exitX=0;exitY=0.5;exitDx=0;exitDy=0;fontSize=11;startArrow=none;startFill=0;endArrow=diamondThin;endFill=1;startSize=8;endSize=8;strokeWidth=1;entryX=1;entryY=0.5;entryDx=0;entryDy=0;" parent="gdRrn17QTcCQpCH86mqd-1691" source="gdRrn17QTcCQpCH86mqd-1770" target="gdRrn17QTcCQpCH86mqd-1756" edge="1">
                    <mxGeometry relative="1" as="geometry">
                        <mxPoint x="628.0699999999999" y="337" as="targetPoint"/>
                    </mxGeometry>
                </mxCell>
                <mxCell id="gdRrn17QTcCQpCH86mqd-1767" value="0..1" style="edgeLabel;html=1;align=center;verticalAlign=middle;resizable=0;points=[];fontSize=11;labelBackgroundColor=none;" parent="gdRrn17QTcCQpCH86mqd-1766" vertex="1" connectable="0">
                    <mxGeometry x="-0.9753" relative="1" as="geometry">
                        <mxPoint x="-10" y="-11" as="offset"/>
                    </mxGeometry>
                </mxCell>
                <mxCell id="gdRrn17QTcCQpCH86mqd-1768" value="has" style="edgeLabel;html=1;align=center;verticalAlign=middle;resizable=0;points=[];fontSize=11;labelBackgroundColor=none;" parent="gdRrn17QTcCQpCH86mqd-1766" vertex="1" connectable="0">
                    <mxGeometry x="-0.0212" relative="1" as="geometry">
                        <mxPoint x="-13" y="-3" as="offset"/>
                    </mxGeometry>
                </mxCell>
                <mxCell id="gdRrn17QTcCQpCH86mqd-1769" value="1" style="edgeLabel;html=1;align=center;verticalAlign=middle;resizable=0;points=[];fontSize=11;labelBackgroundColor=none;" parent="gdRrn17QTcCQpCH86mqd-1766" vertex="1" connectable="0">
                    <mxGeometry x="0.9882" relative="1" as="geometry">
                        <mxPoint x="5" y="-12" as="offset"/>
                    </mxGeometry>
                </mxCell>
                <mxCell id="gdRrn17QTcCQpCH86mqd-1770" value="Address" style="swimlane;fontStyle=0;childLayout=stackLayout;horizontal=1;startSize=26;fillColor=none;horizontalStack=0;resizeParent=1;resizeParentMax=0;resizeLast=0;collapsible=1;marginBottom=0;" parent="gdRrn17QTcCQpCH86mqd-1691" vertex="1">
                    <mxGeometry x="683.9999999999999" y="70" width="200" height="236" as="geometry"/>
                </mxCell>
                <mxCell id="gdRrn17QTcCQpCH86mqd-1771" value="+Â AccountInfoId: Guid" style="text;strokeColor=none;fillColor=none;align=left;verticalAlign=top;spacingLeft=4;spacingRight=4;overflow=hidden;rotatable=0;points=[[0,0.5],[1,0.5]];portConstraint=eastwest;" parent="gdRrn17QTcCQpCH86mqd-1770" vertex="1">
                    <mxGeometry y="26" width="200" height="30" as="geometry"/>
                </mxCell>
                <mxCell id="gdRrn17QTcCQpCH86mqd-1772" value="+ Street: string" style="text;strokeColor=none;fillColor=none;align=left;verticalAlign=top;spacingLeft=4;spacingRight=4;overflow=hidden;rotatable=0;points=[[0,0.5],[1,0.5]];portConstraint=eastwest;" parent="gdRrn17QTcCQpCH86mqd-1770" vertex="1">
                    <mxGeometry y="56" width="200" height="30" as="geometry"/>
                </mxCell>
                <mxCell id="gdRrn17QTcCQpCH86mqd-1773" value="+ AdditionalStreet: string" style="text;strokeColor=none;fillColor=none;align=left;verticalAlign=top;spacingLeft=4;spacingRight=4;overflow=hidden;rotatable=0;points=[[0,0.5],[1,0.5]];portConstraint=eastwest;" parent="gdRrn17QTcCQpCH86mqd-1770" vertex="1">
                    <mxGeometry y="86" width="200" height="30" as="geometry"/>
                </mxCell>
                <mxCell id="gdRrn17QTcCQpCH86mqd-1774" value="+ PostalCode: string" style="text;strokeColor=none;fillColor=none;align=left;verticalAlign=top;spacingLeft=4;spacingRight=4;overflow=hidden;rotatable=0;points=[[0,0.5],[1,0.5]];portConstraint=eastwest;" parent="gdRrn17QTcCQpCH86mqd-1770" vertex="1">
                    <mxGeometry y="116" width="200" height="30" as="geometry"/>
                </mxCell>
                <mxCell id="gdRrn17QTcCQpCH86mqd-1775" value="+ City: string" style="text;strokeColor=none;fillColor=none;align=left;verticalAlign=top;spacingLeft=4;spacingRight=4;overflow=hidden;rotatable=0;points=[[0,0.5],[1,0.5]];portConstraint=eastwest;" parent="gdRrn17QTcCQpCH86mqd-1770" vertex="1">
                    <mxGeometry y="146" width="200" height="30" as="geometry"/>
                </mxCell>
                <mxCell id="gdRrn17QTcCQpCH86mqd-1776" value="+ Region: string" style="text;strokeColor=none;fillColor=none;align=left;verticalAlign=top;spacingLeft=4;spacingRight=4;overflow=hidden;rotatable=0;points=[[0,0.5],[1,0.5]];portConstraint=eastwest;" parent="gdRrn17QTcCQpCH86mqd-1770" vertex="1">
                    <mxGeometry y="176" width="200" height="30" as="geometry"/>
                </mxCell>
                <mxCell id="gdRrn17QTcCQpCH86mqd-1777" value="+ Country: string" style="text;strokeColor=none;fillColor=none;align=left;verticalAlign=top;spacingLeft=4;spacingRight=4;overflow=hidden;rotatable=0;points=[[0,0.5],[1,0.5]];portConstraint=eastwest;" parent="gdRrn17QTcCQpCH86mqd-1770" vertex="1">
                    <mxGeometry y="206" width="200" height="30" as="geometry"/>
                </mxCell>
                <mxCell id="gdRrn17QTcCQpCH86mqd-1778" style="edgeStyle=orthogonalEdgeStyle;rounded=0;jumpSize=8;orthogonalLoop=1;jettySize=auto;html=1;exitX=0.5;exitY=1;exitDx=0;exitDy=0;entryX=0.5;entryY=0;entryDx=0;entryDy=0;fontSize=11;startArrow=none;startFill=0;endArrow=diamondThin;endFill=1;startSize=8;endSize=8;strokeWidth=1;" parent="gdRrn17QTcCQpCH86mqd-1691" source="gdRrn17QTcCQpCH86mqd-1782" target="gdRrn17QTcCQpCH86mqd-1756" edge="1">
                    <mxGeometry relative="1" as="geometry"/>
                </mxCell>
                <mxCell id="gdRrn17QTcCQpCH86mqd-1779" value="1" style="edgeLabel;html=1;align=center;verticalAlign=middle;resizable=0;points=[];fontSize=11;labelBackgroundColor=none;" parent="gdRrn17QTcCQpCH86mqd-1778" vertex="1" connectable="0">
                    <mxGeometry x="0.8071" y="-2" relative="1" as="geometry">
                        <mxPoint x="-6" y="-1" as="offset"/>
                    </mxGeometry>
                </mxCell>
                <mxCell id="gdRrn17QTcCQpCH86mqd-1780" value="has" style="edgeLabel;html=1;align=center;verticalAlign=middle;resizable=0;points=[];fontSize=11;labelBackgroundColor=none;" parent="gdRrn17QTcCQpCH86mqd-1778" vertex="1" connectable="0">
                    <mxGeometry x="-0.0883" relative="1" as="geometry">
                        <mxPoint x="-11" y="1" as="offset"/>
                    </mxGeometry>
                </mxCell>
                <mxCell id="gdRrn17QTcCQpCH86mqd-1781" value="0..1" style="edgeLabel;html=1;align=center;verticalAlign=middle;resizable=0;points=[];fontSize=11;labelBackgroundColor=none;" parent="gdRrn17QTcCQpCH86mqd-1778" vertex="1" connectable="0">
                    <mxGeometry x="-1" relative="1" as="geometry">
                        <mxPoint x="-11" y="7" as="offset"/>
                    </mxGeometry>
                </mxCell>
                <mxCell id="gdRrn17QTcCQpCH86mqd-1782" value="SocialSecurityNumber" style="swimlane;fontStyle=0;childLayout=stackLayout;horizontal=1;startSize=26;fillColor=none;horizontalStack=0;resizeParent=1;resizeParentMax=0;resizeLast=0;collapsible=1;marginBottom=0;labelBackgroundColor=none;fontSize=11;" parent="gdRrn17QTcCQpCH86mqd-1691" vertex="1">
                    <mxGeometry x="473" y="40.00000000000003" width="140" height="104" as="geometry">
                        <mxRectangle x="290" y="480" width="80" height="30" as="alternateBounds"/>
                    </mxGeometry>
                </mxCell>
                <mxCell id="gdRrn17QTcCQpCH86mqd-1783" value="+ AccountInfoId: Guid" style="text;strokeColor=none;fillColor=none;align=left;verticalAlign=top;spacingLeft=4;spacingRight=4;overflow=hidden;rotatable=0;points=[[0,0.5],[1,0.5]];portConstraint=eastwest;labelBackgroundColor=none;fontSize=11;" parent="gdRrn17QTcCQpCH86mqd-1782" vertex="1">
                    <mxGeometry y="26" width="140" height="26" as="geometry"/>
                </mxCell>
                <mxCell id="gdRrn17QTcCQpCH86mqd-1784" value="+ SsnType: enum" style="text;strokeColor=none;fillColor=none;align=left;verticalAlign=top;spacingLeft=4;spacingRight=4;overflow=hidden;rotatable=0;points=[[0,0.5],[1,0.5]];portConstraint=eastwest;labelBackgroundColor=none;fontSize=11;" parent="gdRrn17QTcCQpCH86mqd-1782" vertex="1">
                    <mxGeometry y="52" width="140" height="26" as="geometry"/>
                </mxCell>
                <mxCell id="gdRrn17QTcCQpCH86mqd-1785" value="+ Number: string" style="text;strokeColor=none;fillColor=none;align=left;verticalAlign=top;spacingLeft=4;spacingRight=4;overflow=hidden;rotatable=0;points=[[0,0.5],[1,0.5]];portConstraint=eastwest;labelBackgroundColor=none;fontSize=11;" parent="gdRrn17QTcCQpCH86mqd-1782" vertex="1">
                    <mxGeometry y="78" width="140" height="26" as="geometry"/>
                </mxCell>
                <mxCell id="gdRrn17QTcCQpCH86mqd-1786" style="edgeStyle=orthogonalEdgeStyle;rounded=0;jumpSize=8;orthogonalLoop=1;jettySize=auto;html=1;exitX=1;exitY=0.5;exitDx=0;exitDy=0;fontSize=11;startArrow=none;startFill=0;endArrow=diamondThin;endFill=1;startSize=8;endSize=8;strokeWidth=1;" parent="gdRrn17QTcCQpCH86mqd-1691" source="gdRrn17QTcCQpCH86mqd-1694" edge="1">
                    <mxGeometry relative="1" as="geometry">
                        <mxPoint x="263" y="516.550724637681" as="targetPoint"/>
                    </mxGeometry>
                </mxCell>
                <mxCell id="gdRrn17QTcCQpCH86mqd-1787" value="0..1" style="edgeLabel;html=1;align=center;verticalAlign=middle;resizable=0;points=[];fontSize=11;labelBackgroundColor=none;" parent="gdRrn17QTcCQpCH86mqd-1786" vertex="1" connectable="0">
                    <mxGeometry x="-0.7713" relative="1" as="geometry">
                        <mxPoint x="4" y="-11" as="offset"/>
                    </mxGeometry>
                </mxCell>
                <mxCell id="gdRrn17QTcCQpCH86mqd-1788" value="1" style="edgeLabel;html=1;align=center;verticalAlign=middle;resizable=0;points=[];fontSize=11;labelBackgroundColor=none;" parent="gdRrn17QTcCQpCH86mqd-1786" vertex="1" connectable="0">
                    <mxGeometry x="0.8569" relative="1" as="geometry">
                        <mxPoint x="-3" y="-12" as="offset"/>
                    </mxGeometry>
                </mxCell>
                <mxCell id="gdRrn17QTcCQpCH86mqd-1789" value="has" style="edgeLabel;html=1;align=center;verticalAlign=middle;resizable=0;points=[];fontSize=11;labelBackgroundColor=none;" parent="gdRrn17QTcCQpCH86mqd-1786" vertex="1" connectable="0">
                    <mxGeometry x="-0.0099" relative="1" as="geometry">
                        <mxPoint x="3" y="-11" as="offset"/>
                    </mxGeometry>
                </mxCell>
                <mxCell id="gdRrn17QTcCQpCH86mqd-1790" value="ContactInfo" style="swimlane;fontStyle=0;childLayout=stackLayout;horizontal=1;startSize=26;fillColor=none;horizontalStack=0;resizeParent=1;resizeParentMax=0;resizeLast=0;collapsible=1;marginBottom=0;labelBackgroundColor=none;fontSize=11;" parent="gdRrn17QTcCQpCH86mqd-1691" vertex="1">
                    <mxGeometry x="268" y="298" width="140" height="104" as="geometry">
                        <mxRectangle x="290" y="480" width="80" height="30" as="alternateBounds"/>
                    </mxGeometry>
                </mxCell>
                <mxCell id="gdRrn17QTcCQpCH86mqd-1791" value="+ AccountInfoId: Guid" style="text;strokeColor=none;fillColor=none;align=left;verticalAlign=top;spacingLeft=4;spacingRight=4;overflow=hidden;rotatable=0;points=[[0,0.5],[1,0.5]];portConstraint=eastwest;labelBackgroundColor=none;fontSize=11;" parent="gdRrn17QTcCQpCH86mqd-1790" vertex="1">
                    <mxGeometry y="26" width="140" height="26" as="geometry"/>
                </mxCell>
                <mxCell id="gdRrn17QTcCQpCH86mqd-1792" value="+ Email: string" style="text;strokeColor=none;fillColor=none;align=left;verticalAlign=top;spacingLeft=4;spacingRight=4;overflow=hidden;rotatable=0;points=[[0,0.5],[1,0.5]];portConstraint=eastwest;labelBackgroundColor=none;fontSize=11;" parent="gdRrn17QTcCQpCH86mqd-1790" vertex="1">
                    <mxGeometry y="52" width="140" height="26" as="geometry"/>
                </mxCell>
                <mxCell id="gdRrn17QTcCQpCH86mqd-1793" value="+ PhoneNumber: string" style="text;strokeColor=none;fillColor=none;align=left;verticalAlign=top;spacingLeft=4;spacingRight=4;overflow=hidden;rotatable=0;points=[[0,0.5],[1,0.5]];portConstraint=eastwest;labelBackgroundColor=none;fontSize=11;" parent="gdRrn17QTcCQpCH86mqd-1790" vertex="1">
                    <mxGeometry y="78" width="140" height="26" as="geometry"/>
                </mxCell>
                <mxCell id="gdRrn17QTcCQpCH86mqd-1794" style="edgeStyle=orthogonalEdgeStyle;rounded=0;jumpSize=8;orthogonalLoop=1;jettySize=auto;html=1;exitX=1;exitY=0.5;exitDx=0;exitDy=0;fontSize=11;startArrow=none;startFill=0;endArrow=diamondThin;endFill=1;startSize=8;endSize=8;strokeWidth=1;entryX=0;entryY=0.5;entryDx=0;entryDy=0;" parent="gdRrn17QTcCQpCH86mqd-1691" source="gdRrn17QTcCQpCH86mqd-1790" target="gdRrn17QTcCQpCH86mqd-1758" edge="1">
                    <mxGeometry relative="1" as="geometry">
                        <mxPoint x="467" y="330.00000000000045" as="targetPoint"/>
                    </mxGeometry>
                </mxCell>
                <mxCell id="gdRrn17QTcCQpCH86mqd-1795" value="1" style="edgeLabel;html=1;align=center;verticalAlign=middle;resizable=0;points=[];fontSize=11;labelBackgroundColor=none;" parent="gdRrn17QTcCQpCH86mqd-1794" vertex="1" connectable="0">
                    <mxGeometry x="0.8325" y="1" relative="1" as="geometry">
                        <mxPoint x="-2" y="-10" as="offset"/>
                    </mxGeometry>
                </mxCell>
                <mxCell id="gdRrn17QTcCQpCH86mqd-1796" value="has" style="edgeLabel;html=1;align=center;verticalAlign=middle;resizable=0;points=[];fontSize=11;labelBackgroundColor=none;" parent="gdRrn17QTcCQpCH86mqd-1794" vertex="1" connectable="0">
                    <mxGeometry x="-0.2957" y="-1" relative="1" as="geometry">
                        <mxPoint x="12" y="-21" as="offset"/>
                    </mxGeometry>
                </mxCell>
                <mxCell id="gdRrn17QTcCQpCH86mqd-1797" value="1" style="edgeLabel;html=1;align=center;verticalAlign=middle;resizable=0;points=[];fontSize=11;labelBackgroundColor=none;" parent="gdRrn17QTcCQpCH86mqd-1794" vertex="1" connectable="0">
                    <mxGeometry x="-0.988" relative="1" as="geometry">
                        <mxPoint x="4" y="-8" as="offset"/>
                    </mxGeometry>
                </mxCell>
                <mxCell id="gdRrn17QTcCQpCH86mqd-1804" value="BaseEntity" style="swimlane;fontStyle=0;childLayout=stackLayout;horizontal=1;startSize=26;fillColor=none;horizontalStack=0;resizeParent=1;resizeParentMax=0;resizeLast=0;collapsible=1;marginBottom=0;" parent="gdRrn17QTcCQpCH86mqd-1691" vertex="1">
                    <mxGeometry x="49" y="60" width="170" height="206" as="geometry"/>
                </mxCell>
                <mxCell id="gdRrn17QTcCQpCH86mqd-1805" value="+ Id: Guid" style="text;strokeColor=none;fillColor=none;align=left;verticalAlign=top;spacingLeft=4;spacingRight=4;overflow=hidden;rotatable=0;points=[[0,0.5],[1,0.5]];portConstraint=eastwest;" parent="gdRrn17QTcCQpCH86mqd-1804" vertex="1">
                    <mxGeometry y="26" width="170" height="30" as="geometry"/>
                </mxCell>
                <mxCell id="gdRrn17QTcCQpCH86mqd-1806" value="+ Created: DateTimeOffset" style="text;strokeColor=none;fillColor=none;align=left;verticalAlign=top;spacingLeft=4;spacingRight=4;overflow=hidden;rotatable=0;points=[[0,0.5],[1,0.5]];portConstraint=eastwest;" parent="gdRrn17QTcCQpCH86mqd-1804" vertex="1">
                    <mxGeometry y="56" width="170" height="30" as="geometry"/>
                </mxCell>
                <mxCell id="gdRrn17QTcCQpCH86mqd-1807" value="+ Changed: DateTimeOffset" style="text;strokeColor=none;fillColor=none;align=left;verticalAlign=top;spacingLeft=4;spacingRight=4;overflow=hidden;rotatable=0;points=[[0,0.5],[1,0.5]];portConstraint=eastwest;" parent="gdRrn17QTcCQpCH86mqd-1804" vertex="1">
                    <mxGeometry y="86" width="170" height="30" as="geometry"/>
                </mxCell>
                <mxCell id="gdRrn17QTcCQpCH86mqd-1808" value="+ ChangedBy: Guid" style="text;strokeColor=none;fillColor=none;align=left;verticalAlign=top;spacingLeft=4;spacingRight=4;overflow=hidden;rotatable=0;points=[[0,0.5],[1,0.5]];portConstraint=eastwest;" parent="gdRrn17QTcCQpCH86mqd-1804" vertex="1">
                    <mxGeometry y="116" width="170" height="30" as="geometry"/>
                </mxCell>
                <mxCell id="gdRrn17QTcCQpCH86mqd-1809" value="+ Accessed: DateTimeOffset" style="text;strokeColor=none;fillColor=none;align=left;verticalAlign=top;spacingLeft=4;spacingRight=4;overflow=hidden;rotatable=0;points=[[0,0.5],[1,0.5]];portConstraint=eastwest;" parent="gdRrn17QTcCQpCH86mqd-1804" vertex="1">
                    <mxGeometry y="146" width="170" height="30" as="geometry"/>
                </mxCell>
                <mxCell id="gdRrn17QTcCQpCH86mqd-1810" value="+ AccessedBy: Guid" style="text;strokeColor=none;fillColor=none;align=left;verticalAlign=top;spacingLeft=4;spacingRight=4;overflow=hidden;rotatable=0;points=[[0,0.5],[1,0.5]];portConstraint=eastwest;" parent="gdRrn17QTcCQpCH86mqd-1804" vertex="1">
                    <mxGeometry y="176" width="170" height="30" as="geometry"/>
                </mxCell>
                <mxCell id="gdRrn17QTcCQpCH86mqd-1821" style="edgeStyle=orthogonalEdgeStyle;rounded=0;jumpSize=8;orthogonalLoop=1;jettySize=auto;html=1;exitX=0.5;exitY=0;exitDx=0;exitDy=0;fontSize=11;startArrow=none;startFill=0;endArrow=diamondThin;endFill=1;startSize=8;endSize=8;strokeWidth=1;entryX=1;entryY=0.5;entryDx=0;entryDy=0;" parent="gdRrn17QTcCQpCH86mqd-1691" source="gdRrn17QTcCQpCH86mqd-1817" target="gdRrn17QTcCQpCH86mqd-1711" edge="1">
                    <mxGeometry relative="1" as="geometry">
                        <mxPoint x="632" y="530" as="targetPoint"/>
                    </mxGeometry>
                </mxCell>
                <mxCell id="gdRrn17QTcCQpCH86mqd-1825" value="0..*" style="edgeLabel;html=1;align=center;verticalAlign=middle;resizable=0;points=[];fontSize=11;labelBackgroundColor=none;" parent="gdRrn17QTcCQpCH86mqd-1821" vertex="1" connectable="0">
                    <mxGeometry x="-0.9999" relative="1" as="geometry">
                        <mxPoint x="-11" y="-8" as="offset"/>
                    </mxGeometry>
                </mxCell>
                <mxCell id="gdRrn17QTcCQpCH86mqd-1817" value="Share" style="swimlane;fontStyle=0;childLayout=stackLayout;horizontal=1;startSize=26;fillColor=none;horizontalStack=0;resizeParent=1;resizeParentMax=0;resizeLast=0;collapsible=1;marginBottom=0;labelBackgroundColor=none;fontSize=11;" parent="gdRrn17QTcCQpCH86mqd-1691" vertex="1">
                    <mxGeometry x="660" y="568.67" width="160" height="104" as="geometry"/>
                </mxCell>
                <mxCell id="gdRrn17QTcCQpCH86mqd-1818" value="+ AccountId: Guid" style="text;strokeColor=none;fillColor=none;align=left;verticalAlign=top;spacingLeft=4;spacingRight=4;overflow=hidden;rotatable=0;points=[[0,0.5],[1,0.5]];portConstraint=eastwest;labelBackgroundColor=none;fontSize=11;" parent="gdRrn17QTcCQpCH86mqd-1817" vertex="1">
                    <mxGeometry y="26" width="160" height="26" as="geometry"/>
                </mxCell>
                <mxCell id="gdRrn17QTcCQpCH86mqd-1832" value="+ SharedWithAccountId: Guid" style="text;strokeColor=none;fillColor=none;align=left;verticalAlign=top;spacingLeft=4;spacingRight=4;overflow=hidden;rotatable=0;points=[[0,0.5],[1,0.5]];portConstraint=eastwest;labelBackgroundColor=none;fontSize=11;" parent="gdRrn17QTcCQpCH86mqd-1817" vertex="1">
                    <mxGeometry y="52" width="160" height="26" as="geometry"/>
                </mxCell>
                <mxCell id="gdRrn17QTcCQpCH86mqd-1833" value="+ Expiration: DateTimeOffset" style="text;strokeColor=none;fillColor=none;align=left;verticalAlign=top;spacingLeft=4;spacingRight=4;overflow=hidden;rotatable=0;points=[[0,0.5],[1,0.5]];portConstraint=eastwest;labelBackgroundColor=none;fontSize=11;" parent="gdRrn17QTcCQpCH86mqd-1817" vertex="1">
                    <mxGeometry y="78" width="160" height="26" as="geometry"/>
                </mxCell>
                <mxCell id="gdRrn17QTcCQpCH86mqd-1838" style="edgeStyle=orthogonalEdgeStyle;rounded=0;jumpSize=8;orthogonalLoop=1;jettySize=auto;html=1;exitX=0.5;exitY=0;exitDx=0;exitDy=0;entryX=0.5;entryY=1;entryDx=0;entryDy=0;fontSize=11;startArrow=none;startFill=0;endArrow=diamondThin;endFill=1;startSize=8;endSize=8;strokeWidth=1;" parent="gdRrn17QTcCQpCH86mqd-1691" source="gdRrn17QTcCQpCH86mqd-1834" target="gdRrn17QTcCQpCH86mqd-1817" edge="1">
                    <mxGeometry relative="1" as="geometry"/>
                </mxCell>
                <mxCell id="gdRrn17QTcCQpCH86mqd-1839" value="0..*" style="edgeLabel;html=1;align=center;verticalAlign=middle;resizable=0;points=[];fontSize=11;" parent="gdRrn17QTcCQpCH86mqd-1838" vertex="1" connectable="0">
                    <mxGeometry x="-0.8062" y="1" relative="1" as="geometry">
                        <mxPoint x="-11" y="-3" as="offset"/>
                    </mxGeometry>
                </mxCell>
                <mxCell id="gdRrn17QTcCQpCH86mqd-1840" value="1" style="edgeLabel;html=1;align=center;verticalAlign=middle;resizable=0;points=[];fontSize=11;labelBackgroundColor=none;" parent="gdRrn17QTcCQpCH86mqd-1838" vertex="1" connectable="0">
                    <mxGeometry x="0.7908" y="1" relative="1" as="geometry">
                        <mxPoint x="-7" y="1" as="offset"/>
                    </mxGeometry>
                </mxCell>
                <mxCell id="gdRrn17QTcCQpCH86mqd-1841" value="has" style="edgeLabel;html=1;align=center;verticalAlign=middle;resizable=0;points=[];fontSize=11;labelBackgroundColor=none;" parent="gdRrn17QTcCQpCH86mqd-1838" vertex="1" connectable="0">
                    <mxGeometry x="0.0609" relative="1" as="geometry">
                        <mxPoint x="-12" as="offset"/>
                    </mxGeometry>
                </mxCell>
                <mxCell id="gdRrn17QTcCQpCH86mqd-1834" value="ShareDetail" style="swimlane;fontStyle=0;childLayout=stackLayout;horizontal=1;startSize=26;fillColor=none;horizontalStack=0;resizeParent=1;resizeParentMax=0;resizeLast=0;collapsible=1;marginBottom=0;labelBackgroundColor=none;fontSize=11;" parent="gdRrn17QTcCQpCH86mqd-1691" vertex="1">
                    <mxGeometry x="660" y="730" width="160" height="104" as="geometry"/>
                </mxCell>
                <mxCell id="gdRrn17QTcCQpCH86mqd-1835" value="+ ShareId: Guid" style="text;strokeColor=none;fillColor=none;align=left;verticalAlign=top;spacingLeft=4;spacingRight=4;overflow=hidden;rotatable=0;points=[[0,0.5],[1,0.5]];portConstraint=eastwest;labelBackgroundColor=none;fontSize=11;" parent="gdRrn17QTcCQpCH86mqd-1834" vertex="1">
                    <mxGeometry y="26" width="160" height="26" as="geometry"/>
                </mxCell>
                <mxCell id="gdRrn17QTcCQpCH86mqd-1836" value="+ DetailType: enum" style="text;strokeColor=none;fillColor=none;align=left;verticalAlign=top;spacingLeft=4;spacingRight=4;overflow=hidden;rotatable=0;points=[[0,0.5],[1,0.5]];portConstraint=eastwest;labelBackgroundColor=none;fontSize=11;" parent="gdRrn17QTcCQpCH86mqd-1834" vertex="1">
                    <mxGeometry y="52" width="160" height="26" as="geometry"/>
                </mxCell>
                <mxCell id="gdRrn17QTcCQpCH86mqd-1847" value="+ Description: string" style="text;strokeColor=none;fillColor=none;align=left;verticalAlign=top;spacingLeft=4;spacingRight=4;overflow=hidden;rotatable=0;points=[[0,0.5],[1,0.5]];portConstraint=eastwest;labelBackgroundColor=none;fontSize=11;" parent="gdRrn17QTcCQpCH86mqd-1834" vertex="1">
                    <mxGeometry y="78" width="160" height="26" as="geometry"/>
                </mxCell>
                <mxCell id="gdRrn17QTcCQpCH86mqd-1802" value="DocumentSignature" style="swimlane;fontStyle=0;childLayout=stackLayout;horizontal=1;startSize=26;fillColor=none;horizontalStack=0;resizeParent=1;resizeParentMax=0;resizeLast=0;collapsible=1;marginBottom=0;" parent="1" vertex="1">
                    <mxGeometry x="-1642" y="4582" width="140" height="56" as="geometry"/>
                </mxCell>
                <mxCell id="gdRrn17QTcCQpCH86mqd-1803" value="+ DocumentId: Guid" style="text;strokeColor=none;fillColor=none;align=left;verticalAlign=top;spacingLeft=4;spacingRight=4;overflow=hidden;rotatable=0;points=[[0,0.5],[1,0.5]];portConstraint=eastwest;" parent="gdRrn17QTcCQpCH86mqd-1802" vertex="1">
                    <mxGeometry y="26" width="140" height="30" as="geometry"/>
                </mxCell>
                <mxCell id="gdRrn17QTcCQpCH86mqd-1798" style="edgeStyle=orthogonalEdgeStyle;rounded=0;jumpSize=8;orthogonalLoop=1;jettySize=auto;html=1;exitX=0.5;exitY=1;exitDx=0;exitDy=0;entryX=1;entryY=0.5;entryDx=0;entryDy=0;fontSize=11;startArrow=none;startFill=0;endArrow=diamondThin;endFill=1;startSize=8;endSize=8;strokeWidth=1;" parent="1" source="gdRrn17QTcCQpCH86mqd-1802" target="gdRrn17QTcCQpCH86mqd-1704" edge="1">
                    <mxGeometry relative="1" as="geometry"/>
                </mxCell>
                <mxCell id="gdRrn17QTcCQpCH86mqd-1799" value="1" style="edgeLabel;html=1;align=center;verticalAlign=middle;resizable=0;points=[];fontSize=11;labelBackgroundColor=none;" parent="gdRrn17QTcCQpCH86mqd-1798" vertex="1" connectable="0">
                    <mxGeometry x="0.7879" relative="1" as="geometry">
                        <mxPoint x="-8" y="-11" as="offset"/>
                    </mxGeometry>
                </mxCell>
                <mxCell id="gdRrn17QTcCQpCH86mqd-1800" value="has" style="edgeLabel;html=1;align=center;verticalAlign=middle;resizable=0;points=[];fontSize=11;labelBackgroundColor=none;" parent="gdRrn17QTcCQpCH86mqd-1798" vertex="1" connectable="0">
                    <mxGeometry x="0.0242" relative="1" as="geometry">
                        <mxPoint x="-15" y="-9" as="offset"/>
                    </mxGeometry>
                </mxCell>
                <mxCell id="gdRrn17QTcCQpCH86mqd-1801" value="0..*" style="edgeLabel;html=1;align=center;verticalAlign=middle;resizable=0;points=[];fontSize=11;labelBackgroundColor=none;" parent="gdRrn17QTcCQpCH86mqd-1798" vertex="1" connectable="0">
                    <mxGeometry x="-0.9939" relative="1" as="geometry">
                        <mxPoint x="-12" y="9" as="offset"/>
                    </mxGeometry>
                </mxCell>
                <mxCell id="gdRrn17QTcCQpCH86mqd-1744" value="DocumentDetail" style="swimlane;fontStyle=0;childLayout=stackLayout;horizontal=1;startSize=26;fillColor=none;horizontalStack=0;resizeParent=1;resizeParentMax=0;resizeLast=0;collapsible=1;marginBottom=0;" parent="1" vertex="1">
                    <mxGeometry x="-1657" y="4731" width="170" height="116" as="geometry"/>
                </mxCell>
                <mxCell id="gdRrn17QTcCQpCH86mqd-1745" value="+ DocumentId: Guid" style="text;strokeColor=none;fillColor=none;align=left;verticalAlign=top;spacingLeft=4;spacingRight=4;overflow=hidden;rotatable=0;points=[[0,0.5],[1,0.5]];portConstraint=eastwest;" parent="gdRrn17QTcCQpCH86mqd-1744" vertex="1">
                    <mxGeometry y="26" width="170" height="30" as="geometry"/>
                </mxCell>
                <mxCell id="gdRrn17QTcCQpCH86mqd-1746" value="+ Format: string" style="text;strokeColor=none;fillColor=none;align=left;verticalAlign=top;spacingLeft=4;spacingRight=4;overflow=hidden;rotatable=0;points=[[0,0.5],[1,0.5]];portConstraint=eastwest;" parent="gdRrn17QTcCQpCH86mqd-1744" vertex="1">
                    <mxGeometry y="56" width="170" height="30" as="geometry"/>
                </mxCell>
                <mxCell id="gdRrn17QTcCQpCH86mqd-1747" value="+ ByteSize: int" style="text;strokeColor=none;fillColor=none;align=left;verticalAlign=top;spacingLeft=4;spacingRight=4;overflow=hidden;rotatable=0;points=[[0,0.5],[1,0.5]];portConstraint=eastwest;" parent="gdRrn17QTcCQpCH86mqd-1744" vertex="1">
                    <mxGeometry y="86" width="170" height="30" as="geometry"/>
                </mxCell>
                <mxCell id="gdRrn17QTcCQpCH86mqd-1748" style="edgeStyle=orthogonalEdgeStyle;rounded=0;jumpSize=8;orthogonalLoop=1;jettySize=auto;html=1;exitX=1;exitY=0.5;exitDx=0;exitDy=0;fontSize=11;startArrow=diamondThin;startFill=1;endArrow=none;endFill=0;startSize=8;endSize=8;strokeWidth=1;entryX=0.5;entryY=0;entryDx=0;entryDy=0;" parent="1" source="gdRrn17QTcCQpCH86mqd-1704" target="gdRrn17QTcCQpCH86mqd-1744" edge="1">
                    <mxGeometry relative="1" as="geometry">
                        <mxPoint x="-1902" y="5046.66" as="targetPoint"/>
                    </mxGeometry>
                </mxCell>
                <mxCell id="gdRrn17QTcCQpCH86mqd-1750" value="1" style="edgeLabel;html=1;align=center;verticalAlign=middle;resizable=0;points=[];fontSize=11;labelBackgroundColor=none;" parent="gdRrn17QTcCQpCH86mqd-1748" vertex="1" connectable="0">
                    <mxGeometry x="0.7958" relative="1" as="geometry">
                        <mxPoint x="-8" y="8" as="offset"/>
                    </mxGeometry>
                </mxCell>
            </root>
        </mxGraphModel>
    </diagram>
    <diagram id="zHwDIunsLXfkCdTcyIhp" name="V2">
        <mxGraphModel dx="2806.78" dy="-4051.33" grid="0" gridSize="10" guides="0" tooltips="1" connect="1" arrows="1" fold="1" page="0" pageScale="1" pageWidth="827" pageHeight="1169" math="0" shadow="0">
            <root>
                <mxCell id="0"/>
                <mxCell id="1" parent="0"/>
                <mxCell id="jr0CHW6PvVo1bV3VDk_E-124" value="Structure" style="swimlane;labelBackgroundColor=none;fontSize=11;startSize=23;" parent="1" vertex="1">
                    <mxGeometry x="-2672" y="4180" width="1230" height="850" as="geometry">
                        <mxRectangle x="-130" y="230" width="90" height="30" as="alternateBounds"/>
                    </mxGeometry>
                </mxCell>
                <mxCell id="jr0CHW6PvVo1bV3VDk_E-125" value="RefreshToken" style="swimlane;fontStyle=0;childLayout=stackLayout;horizontal=1;startSize=26;fillColor=none;horizontalStack=0;resizeParent=1;resizeParentMax=0;resizeLast=0;collapsible=1;marginBottom=0;" parent="jr0CHW6PvVo1bV3VDk_E-124" vertex="1">
                    <mxGeometry x="27.000000000000007" y="390" width="170" height="104" as="geometry"/>
                </mxCell>
                <mxCell id="jr0CHW6PvVo1bV3VDk_E-126" value="+ LoginId: Guid" style="text;strokeColor=none;fillColor=none;align=left;verticalAlign=top;spacingLeft=4;spacingRight=4;overflow=hidden;rotatable=0;points=[[0,0.5],[1,0.5]];portConstraint=eastwest;" parent="jr0CHW6PvVo1bV3VDk_E-125" vertex="1">
                    <mxGeometry y="26" width="170" height="26" as="geometry"/>
                </mxCell>
                <mxCell id="jr0CHW6PvVo1bV3VDk_E-127" value="+ Expiration: DateTimeOffset" style="text;strokeColor=none;fillColor=none;align=left;verticalAlign=top;spacingLeft=4;spacingRight=4;overflow=hidden;rotatable=0;points=[[0,0.5],[1,0.5]];portConstraint=eastwest;" parent="jr0CHW6PvVo1bV3VDk_E-125" vertex="1">
                    <mxGeometry y="52" width="170" height="26" as="geometry"/>
                </mxCell>
                <mxCell id="jr0CHW6PvVo1bV3VDk_E-128" value="+ Token: string" style="text;strokeColor=none;fillColor=none;align=left;verticalAlign=top;spacingLeft=4;spacingRight=4;overflow=hidden;rotatable=0;points=[[0,0.5],[1,0.5]];portConstraint=eastwest;" parent="jr0CHW6PvVo1bV3VDk_E-125" vertex="1">
                    <mxGeometry y="78" width="170" height="26" as="geometry"/>
                </mxCell>
                <mxCell id="jr0CHW6PvVo1bV3VDk_E-129" style="rounded=0;jumpSize=8;orthogonalLoop=1;jettySize=auto;html=1;exitX=0;exitY=0.5;exitDx=0;exitDy=0;entryX=1;entryY=0.5;entryDx=0;entryDy=0;fontSize=11;startArrow=none;startFill=0;endArrow=diamondThin;endFill=1;startSize=8;endSize=8;strokeWidth=1;" parent="jr0CHW6PvVo1bV3VDk_E-124" source="jr0CHW6PvVo1bV3VDk_E-137" target="jr0CHW6PvVo1bV3VDk_E-143" edge="1">
                    <mxGeometry relative="1" as="geometry"/>
                </mxCell>
                <mxCell id="jr0CHW6PvVo1bV3VDk_E-130" value="0..*" style="edgeLabel;html=1;align=center;verticalAlign=middle;resizable=0;points=[];fontSize=11;labelBackgroundColor=none;" parent="jr0CHW6PvVo1bV3VDk_E-129" vertex="1" connectable="0">
                    <mxGeometry x="-0.9876" relative="1" as="geometry">
                        <mxPoint x="-11" y="-7" as="offset"/>
                    </mxGeometry>
                </mxCell>
                <mxCell id="jr0CHW6PvVo1bV3VDk_E-131" value="1" style="edgeLabel;html=1;align=center;verticalAlign=middle;resizable=0;points=[];labelBackgroundColor=none;" parent="jr0CHW6PvVo1bV3VDk_E-129" vertex="1" connectable="0">
                    <mxGeometry x="0.963" relative="1" as="geometry">
                        <mxPoint x="1" y="-9" as="offset"/>
                    </mxGeometry>
                </mxCell>
                <mxCell id="jr0CHW6PvVo1bV3VDk_E-132" style="rounded=0;jumpSize=8;orthogonalLoop=1;jettySize=auto;html=1;exitX=0.25;exitY=1;exitDx=0;exitDy=0;entryX=1;entryY=0.5;entryDx=0;entryDy=0;fontSize=11;startArrow=diamondThin;startFill=1;endArrow=none;endFill=0;startSize=8;endSize=8;strokeWidth=1;" parent="jr0CHW6PvVo1bV3VDk_E-124" source="jr0CHW6PvVo1bV3VDk_E-135" target="jr0CHW6PvVo1bV3VDk_E-211" edge="1">
                    <mxGeometry relative="1" as="geometry"/>
                </mxCell>
                <mxCell id="jr0CHW6PvVo1bV3VDk_E-133" value="1..*" style="edgeLabel;html=1;align=center;verticalAlign=middle;resizable=0;points=[];fontSize=11;labelBackgroundColor=none;" parent="jr0CHW6PvVo1bV3VDk_E-132" vertex="1" connectable="0">
                    <mxGeometry x="-0.9352" relative="1" as="geometry">
                        <mxPoint x="11" y="5" as="offset"/>
                    </mxGeometry>
                </mxCell>
                <mxCell id="jr0CHW6PvVo1bV3VDk_E-134" value="0..*" style="edgeLabel;html=1;align=center;verticalAlign=middle;resizable=0;points=[];fontSize=11;labelBackgroundColor=none;" parent="jr0CHW6PvVo1bV3VDk_E-132" vertex="1" connectable="0">
                    <mxGeometry x="0.9883" y="1" relative="1" as="geometry">
                        <mxPoint x="9" y="6" as="offset"/>
                    </mxGeometry>
                </mxCell>
                <mxCell id="jr0CHW6PvVo1bV3VDk_E-135" value="Document" style="swimlane;fontStyle=0;childLayout=stackLayout;horizontal=1;startSize=26;fillColor=none;horizontalStack=0;resizeParent=1;resizeParentMax=0;resizeLast=0;collapsible=1;marginBottom=0;" parent="jr0CHW6PvVo1bV3VDk_E-124" vertex="1">
                    <mxGeometry x="846" y="432.99999999999994" width="140" height="116" as="geometry"/>
                </mxCell>
                <mxCell id="jr0CHW6PvVo1bV3VDk_E-136" value="+ AccountId: Guid" style="text;strokeColor=none;fillColor=none;align=left;verticalAlign=top;spacingLeft=4;spacingRight=4;overflow=hidden;rotatable=0;points=[[0,0.5],[1,0.5]];portConstraint=eastwest;" parent="jr0CHW6PvVo1bV3VDk_E-135" vertex="1">
                    <mxGeometry y="26" width="140" height="30" as="geometry"/>
                </mxCell>
                <mxCell id="jr0CHW6PvVo1bV3VDk_E-137" value="+ Blob: byte[]" style="text;strokeColor=none;fillColor=none;align=left;verticalAlign=top;spacingLeft=4;spacingRight=4;overflow=hidden;rotatable=0;points=[[0,0.5],[1,0.5]];portConstraint=eastwest;" parent="jr0CHW6PvVo1bV3VDk_E-135" vertex="1">
                    <mxGeometry y="56" width="140" height="30" as="geometry"/>
                </mxCell>
                <mxCell id="jr0CHW6PvVo1bV3VDk_E-138" value="+ Content:Â JsonObject" style="text;strokeColor=none;fillColor=none;align=left;verticalAlign=top;spacingLeft=4;spacingRight=4;overflow=hidden;rotatable=0;points=[[0,0.5],[1,0.5]];portConstraint=eastwest;" parent="jr0CHW6PvVo1bV3VDk_E-135" vertex="1">
                    <mxGeometry y="86" width="140" height="30" as="geometry"/>
                </mxCell>
                <mxCell id="jr0CHW6PvVo1bV3VDk_E-139" style="edgeStyle=orthogonalEdgeStyle;rounded=0;jumpSize=8;orthogonalLoop=1;jettySize=auto;html=1;exitX=0.5;exitY=1;exitDx=0;exitDy=0;entryX=0.5;entryY=0;entryDx=0;entryDy=0;fontSize=11;startArrow=diamondThin;startFill=1;endArrow=none;endFill=0;startSize=8;endSize=8;strokeWidth=1;" parent="jr0CHW6PvVo1bV3VDk_E-124" source="jr0CHW6PvVo1bV3VDk_E-142" target="jr0CHW6PvVo1bV3VDk_E-169" edge="1">
                    <mxGeometry relative="1" as="geometry"/>
                </mxCell>
                <mxCell id="jr0CHW6PvVo1bV3VDk_E-140" value="0..1" style="edgeLabel;html=1;align=center;verticalAlign=middle;resizable=0;points=[];fontSize=11;labelBackgroundColor=none;" parent="jr0CHW6PvVo1bV3VDk_E-139" vertex="1" connectable="0">
                    <mxGeometry x="0.8639" y="-2" relative="1" as="geometry">
                        <mxPoint x="-12" y="-3" as="offset"/>
                    </mxGeometry>
                </mxCell>
                <mxCell id="jr0CHW6PvVo1bV3VDk_E-141" value="1" style="edgeLabel;html=1;align=center;verticalAlign=middle;resizable=0;points=[];fontSize=11;labelBackgroundColor=none;" parent="jr0CHW6PvVo1bV3VDk_E-139" vertex="1" connectable="0">
                    <mxGeometry x="-1" y="-1" relative="1" as="geometry">
                        <mxPoint x="-7" y="8" as="offset"/>
                    </mxGeometry>
                </mxCell>
                <mxCell id="jr0CHW6PvVo1bV3VDk_E-142" value="Account" style="swimlane;fontStyle=0;childLayout=stackLayout;horizontal=1;startSize=26;fillColor=none;horizontalStack=0;resizeParent=1;resizeParentMax=0;resizeLast=0;collapsible=1;marginBottom=0;labelBackgroundColor=none;fontSize=11;" parent="jr0CHW6PvVo1bV3VDk_E-124" vertex="1">
                    <mxGeometry x="473" y="464.66999999999996" width="140" height="104" as="geometry">
                        <mxRectangle x="290" y="480" width="80" height="30" as="alternateBounds"/>
                    </mxGeometry>
                </mxCell>
                <mxCell id="jr0CHW6PvVo1bV3VDk_E-143" value="+ AccountType: enum" style="text;strokeColor=none;fillColor=none;align=left;verticalAlign=top;spacingLeft=4;spacingRight=4;overflow=hidden;rotatable=0;points=[[0,0.5],[1,0.5]];portConstraint=eastwest;labelBackgroundColor=none;fontSize=11;" parent="jr0CHW6PvVo1bV3VDk_E-142" vertex="1">
                    <mxGeometry y="26" width="140" height="26" as="geometry"/>
                </mxCell>
                <mxCell id="jr0CHW6PvVo1bV3VDk_E-144" value="+ Enabled: bool" style="text;strokeColor=none;fillColor=none;align=left;verticalAlign=top;spacingLeft=4;spacingRight=4;overflow=hidden;rotatable=0;points=[[0,0.5],[1,0.5]];portConstraint=eastwest;labelBackgroundColor=none;fontSize=11;" parent="jr0CHW6PvVo1bV3VDk_E-142" vertex="1">
                    <mxGeometry y="52" width="140" height="26" as="geometry"/>
                </mxCell>
                <mxCell id="jr0CHW6PvVo1bV3VDk_E-145" value="+ Verified: bool" style="text;strokeColor=none;fillColor=none;align=left;verticalAlign=top;spacingLeft=4;spacingRight=4;overflow=hidden;rotatable=0;points=[[0,0.5],[1,0.5]];portConstraint=eastwest;labelBackgroundColor=none;fontSize=11;" parent="jr0CHW6PvVo1bV3VDk_E-142" vertex="1">
                    <mxGeometry y="78" width="140" height="26" as="geometry"/>
                </mxCell>
                <mxCell id="jr0CHW6PvVo1bV3VDk_E-146" value="Login" style="swimlane;fontStyle=0;childLayout=stackLayout;horizontal=1;startSize=26;fillColor=none;horizontalStack=0;resizeParent=1;resizeParentMax=0;resizeLast=0;collapsible=1;marginBottom=0;labelBackgroundColor=none;fontSize=11;" parent="jr0CHW6PvVo1bV3VDk_E-124" vertex="1">
                    <mxGeometry x="263" y="464.66999999999996" width="150" height="104" as="geometry">
                        <mxRectangle x="80" y="480" width="70" height="30" as="alternateBounds"/>
                    </mxGeometry>
                </mxCell>
                <mxCell id="jr0CHW6PvVo1bV3VDk_E-147" value="+ AccountId: Guid" style="text;strokeColor=none;fillColor=none;align=left;verticalAlign=top;spacingLeft=4;spacingRight=4;overflow=hidden;rotatable=0;points=[[0,0.5],[1,0.5]];portConstraint=eastwest;labelBackgroundColor=none;fontSize=11;" parent="jr0CHW6PvVo1bV3VDk_E-146" vertex="1">
                    <mxGeometry y="26" width="150" height="26" as="geometry"/>
                </mxCell>
                <mxCell id="jr0CHW6PvVo1bV3VDk_E-148" value="+ Username: string" style="text;strokeColor=none;fillColor=none;align=left;verticalAlign=top;spacingLeft=4;spacingRight=4;overflow=hidden;rotatable=0;points=[[0,0.5],[1,0.5]];portConstraint=eastwest;labelBackgroundColor=none;fontSize=11;" parent="jr0CHW6PvVo1bV3VDk_E-146" vertex="1">
                    <mxGeometry y="52" width="150" height="26" as="geometry"/>
                </mxCell>
                <mxCell id="jr0CHW6PvVo1bV3VDk_E-149" value="+ Password: string" style="text;strokeColor=none;fillColor=none;align=left;verticalAlign=top;spacingLeft=4;spacingRight=4;overflow=hidden;rotatable=0;points=[[0,0.5],[1,0.5]];portConstraint=eastwest;labelBackgroundColor=none;fontSize=11;" parent="jr0CHW6PvVo1bV3VDk_E-146" vertex="1">
                    <mxGeometry y="78" width="150" height="26" as="geometry"/>
                </mxCell>
                <mxCell id="jr0CHW6PvVo1bV3VDk_E-150" style="edgeStyle=orthogonalEdgeStyle;rounded=0;jumpSize=8;orthogonalLoop=1;jettySize=auto;html=1;fontSize=11;startArrow=none;startFill=0;endArrow=diamondThin;endFill=1;startSize=8;endSize=8;strokeWidth=1;exitX=1;exitY=0.5;exitDx=0;exitDy=0;entryX=0;entryY=0.5;entryDx=0;entryDy=0;" parent="jr0CHW6PvVo1bV3VDk_E-124" source="jr0CHW6PvVo1bV3VDk_E-147" target="jr0CHW6PvVo1bV3VDk_E-143" edge="1">
                    <mxGeometry relative="1" as="geometry">
                        <mxPoint x="413" y="504.66999999999996" as="sourcePoint"/>
                        <mxPoint x="473" y="504.66999999999996" as="targetPoint"/>
                    </mxGeometry>
                </mxCell>
                <mxCell id="jr0CHW6PvVo1bV3VDk_E-151" value="1" style="edgeLabel;html=1;align=center;verticalAlign=middle;resizable=0;points=[];fontSize=11;labelBackgroundColor=none;" parent="jr0CHW6PvVo1bV3VDk_E-150" vertex="1" connectable="0">
                    <mxGeometry x="-0.8359" y="1" relative="1" as="geometry">
                        <mxPoint x="-1" y="-6" as="offset"/>
                    </mxGeometry>
                </mxCell>
                <mxCell id="jr0CHW6PvVo1bV3VDk_E-152" value="1" style="edgeLabel;html=1;align=center;verticalAlign=middle;resizable=0;points=[];fontSize=11;labelBackgroundColor=none;" parent="jr0CHW6PvVo1bV3VDk_E-150" vertex="1" connectable="0">
                    <mxGeometry x="0.7366" relative="1" as="geometry">
                        <mxPoint x="1" y="-10" as="offset"/>
                    </mxGeometry>
                </mxCell>
                <mxCell id="jr0CHW6PvVo1bV3VDk_E-153" style="edgeStyle=orthogonalEdgeStyle;rounded=0;jumpSize=8;orthogonalLoop=1;jettySize=auto;html=1;exitX=0.5;exitY=0;exitDx=0;exitDy=0;fontSize=11;startArrow=none;startFill=0;endArrow=diamondThin;endFill=1;startSize=8;endSize=8;strokeWidth=1;entryX=0.5;entryY=1;entryDx=0;entryDy=0;" parent="jr0CHW6PvVo1bV3VDk_E-124" source="jr0CHW6PvVo1bV3VDk_E-156" target="jr0CHW6PvVo1bV3VDk_E-146" edge="1">
                    <mxGeometry relative="1" as="geometry">
                        <mxPoint x="338.3333333333335" y="574.67" as="targetPoint"/>
                    </mxGeometry>
                </mxCell>
                <mxCell id="jr0CHW6PvVo1bV3VDk_E-154" value="1" style="edgeLabel;html=1;align=center;verticalAlign=middle;resizable=0;points=[];fontSize=11;labelBackgroundColor=none;" parent="jr0CHW6PvVo1bV3VDk_E-153" vertex="1" connectable="0">
                    <mxGeometry x="0.7923" y="2" relative="1" as="geometry">
                        <mxPoint x="-6" y="3" as="offset"/>
                    </mxGeometry>
                </mxCell>
                <mxCell id="jr0CHW6PvVo1bV3VDk_E-155" value="0..*" style="edgeLabel;html=1;align=center;verticalAlign=middle;resizable=0;points=[];fontSize=11;labelBackgroundColor=none;" parent="jr0CHW6PvVo1bV3VDk_E-153" vertex="1" connectable="0">
                    <mxGeometry x="-0.9339" relative="1" as="geometry">
                        <mxPoint x="-12" y="-5" as="offset"/>
                    </mxGeometry>
                </mxCell>
                <mxCell id="jr0CHW6PvVo1bV3VDk_E-156" value="LoginDetail" style="swimlane;fontStyle=0;childLayout=stackLayout;horizontal=1;startSize=26;fillColor=none;horizontalStack=0;resizeParent=1;resizeParentMax=0;resizeLast=0;collapsible=1;marginBottom=0;labelBackgroundColor=none;fontSize=11;" parent="jr0CHW6PvVo1bV3VDk_E-124" vertex="1">
                    <mxGeometry x="263" y="620.67" width="150" height="130" as="geometry"/>
                </mxCell>
                <mxCell id="jr0CHW6PvVo1bV3VDk_E-157" value="+ LoginId: Guid" style="text;strokeColor=none;fillColor=none;align=left;verticalAlign=top;spacingLeft=4;spacingRight=4;overflow=hidden;rotatable=0;points=[[0,0.5],[1,0.5]];portConstraint=eastwest;labelBackgroundColor=none;fontSize=11;" parent="jr0CHW6PvVo1bV3VDk_E-156" vertex="1">
                    <mxGeometry y="26" width="150" height="26" as="geometry"/>
                </mxCell>
                <mxCell id="jr0CHW6PvVo1bV3VDk_E-158" value="+ Success: bool" style="text;strokeColor=none;fillColor=none;align=left;verticalAlign=top;spacingLeft=4;spacingRight=4;overflow=hidden;rotatable=0;points=[[0,0.5],[1,0.5]];portConstraint=eastwest;labelBackgroundColor=none;fontSize=11;" parent="jr0CHW6PvVo1bV3VDk_E-156" vertex="1">
                    <mxGeometry y="52" width="150" height="26" as="geometry"/>
                </mxCell>
                <mxCell id="jr0CHW6PvVo1bV3VDk_E-159" value="+ DeviceType: enum" style="text;strokeColor=none;fillColor=none;align=left;verticalAlign=top;spacingLeft=4;spacingRight=4;overflow=hidden;rotatable=0;points=[[0,0.5],[1,0.5]];portConstraint=eastwest;labelBackgroundColor=none;fontSize=11;" parent="jr0CHW6PvVo1bV3VDk_E-156" vertex="1">
                    <mxGeometry y="78" width="150" height="26" as="geometry"/>
                </mxCell>
                <mxCell id="jr0CHW6PvVo1bV3VDk_E-160" value="+ Time: DateTimeOffset" style="text;strokeColor=none;fillColor=none;align=left;verticalAlign=top;spacingLeft=4;spacingRight=4;overflow=hidden;rotatable=0;points=[[0,0.5],[1,0.5]];portConstraint=eastwest;labelBackgroundColor=none;fontSize=11;" parent="jr0CHW6PvVo1bV3VDk_E-156" vertex="1">
                    <mxGeometry y="104" width="150" height="26" as="geometry"/>
                </mxCell>
                <mxCell id="jr0CHW6PvVo1bV3VDk_E-161" style="edgeStyle=none;rounded=0;orthogonalLoop=1;jettySize=auto;html=1;exitX=0;exitY=0.75;exitDx=0;exitDy=0;entryX=1;entryY=0.25;entryDx=0;entryDy=0;startArrow=none;startFill=0;endArrow=diamondThin;endFill=1;" parent="jr0CHW6PvVo1bV3VDk_E-124" source="jr0CHW6PvVo1bV3VDk_E-164" target="jr0CHW6PvVo1bV3VDk_E-142" edge="1">
                    <mxGeometry relative="1" as="geometry"/>
                </mxCell>
                <mxCell id="jr0CHW6PvVo1bV3VDk_E-162" value="0..*" style="edgeLabel;html=1;align=center;verticalAlign=middle;resizable=0;points=[];labelBackgroundColor=none;" parent="jr0CHW6PvVo1bV3VDk_E-161" vertex="1" connectable="0">
                    <mxGeometry x="-0.939" y="-1" relative="1" as="geometry">
                        <mxPoint x="-9" y="-7" as="offset"/>
                    </mxGeometry>
                </mxCell>
                <mxCell id="jr0CHW6PvVo1bV3VDk_E-163" value="1" style="edgeLabel;html=1;align=center;verticalAlign=middle;resizable=0;points=[];labelBackgroundColor=none;" parent="jr0CHW6PvVo1bV3VDk_E-161" vertex="1" connectable="0">
                    <mxGeometry x="0.9018" y="-1" relative="1" as="geometry">
                        <mxPoint x="2" y="-10" as="offset"/>
                    </mxGeometry>
                </mxCell>
                <mxCell id="jr0CHW6PvVo1bV3VDk_E-164" value="Role" style="swimlane;fontStyle=0;childLayout=stackLayout;horizontal=1;startSize=26;fillColor=none;horizontalStack=0;resizeParent=1;resizeParentMax=0;resizeLast=0;collapsible=1;marginBottom=0;" parent="jr0CHW6PvVo1bV3VDk_E-124" vertex="1">
                    <mxGeometry x="672.39" y="380" width="140" height="56" as="geometry"/>
                </mxCell>
                <mxCell id="jr0CHW6PvVo1bV3VDk_E-165" value="+ RoleType: enum" style="text;strokeColor=none;fillColor=none;align=left;verticalAlign=top;spacingLeft=4;spacingRight=4;overflow=hidden;rotatable=0;points=[[0,0.5],[1,0.5]];portConstraint=eastwest;" parent="jr0CHW6PvVo1bV3VDk_E-164" vertex="1">
                    <mxGeometry y="26" width="140" height="30" as="geometry"/>
                </mxCell>
                <mxCell id="jr0CHW6PvVo1bV3VDk_E-166" style="rounded=0;jumpSize=8;orthogonalLoop=1;jettySize=auto;html=1;entryX=0.5;entryY=0;entryDx=0;entryDy=0;fontSize=11;startArrow=none;startFill=0;endArrow=diamondThin;endFill=1;startSize=8;endSize=8;strokeWidth=1;" parent="jr0CHW6PvVo1bV3VDk_E-124" source="jr0CHW6PvVo1bV3VDk_E-227" target="jr0CHW6PvVo1bV3VDk_E-142" edge="1">
                    <mxGeometry relative="1" as="geometry">
                        <mxPoint x="573" y="56" as="sourcePoint"/>
                    </mxGeometry>
                </mxCell>
                <mxCell id="jr0CHW6PvVo1bV3VDk_E-167" value="0..1" style="edgeLabel;html=1;align=center;verticalAlign=middle;resizable=0;points=[];fontSize=11;labelBackgroundColor=none;" parent="jr0CHW6PvVo1bV3VDk_E-166" vertex="1" connectable="0">
                    <mxGeometry x="-1" y="-1" relative="1" as="geometry">
                        <mxPoint x="-13" y="8" as="offset"/>
                    </mxGeometry>
                </mxCell>
                <mxCell id="jr0CHW6PvVo1bV3VDk_E-168" value="1" style="edgeLabel;html=1;align=center;verticalAlign=middle;resizable=0;points=[];labelBackgroundColor=none;" parent="jr0CHW6PvVo1bV3VDk_E-166" vertex="1" connectable="0">
                    <mxGeometry x="0.951" relative="1" as="geometry">
                        <mxPoint x="7" y="-3" as="offset"/>
                    </mxGeometry>
                </mxCell>
                <mxCell id="jr0CHW6PvVo1bV3VDk_E-169" value="VerificationCode" style="swimlane;fontStyle=0;childLayout=stackLayout;horizontal=1;startSize=26;fillColor=none;horizontalStack=0;resizeParent=1;resizeParentMax=0;resizeLast=0;collapsible=1;marginBottom=0;labelBackgroundColor=none;fontSize=11;" parent="jr0CHW6PvVo1bV3VDk_E-124" vertex="1">
                    <mxGeometry x="463" y="630" width="160" height="78" as="geometry"/>
                </mxCell>
                <mxCell id="jr0CHW6PvVo1bV3VDk_E-170" value="+ AccountId: Guid" style="text;strokeColor=none;fillColor=none;align=left;verticalAlign=top;spacingLeft=4;spacingRight=4;overflow=hidden;rotatable=0;points=[[0,0.5],[1,0.5]];portConstraint=eastwest;labelBackgroundColor=none;fontSize=11;" parent="jr0CHW6PvVo1bV3VDk_E-169" vertex="1">
                    <mxGeometry y="26" width="160" height="26" as="geometry"/>
                </mxCell>
                <mxCell id="jr0CHW6PvVo1bV3VDk_E-171" value="+ Code: string" style="text;strokeColor=none;fillColor=none;align=left;verticalAlign=top;spacingLeft=4;spacingRight=4;overflow=hidden;rotatable=0;points=[[0,0.5],[1,0.5]];portConstraint=eastwest;labelBackgroundColor=none;fontSize=11;" parent="jr0CHW6PvVo1bV3VDk_E-169" vertex="1">
                    <mxGeometry y="52" width="160" height="26" as="geometry"/>
                </mxCell>
                <mxCell id="jr0CHW6PvVo1bV3VDk_E-172" style="rounded=0;jumpSize=8;orthogonalLoop=1;jettySize=auto;html=1;exitX=0;exitY=0.5;exitDx=0;exitDy=0;fontSize=11;startArrow=none;startFill=0;endArrow=diamondThin;endFill=1;startSize=8;endSize=8;strokeWidth=1;entryX=0.75;entryY=0;entryDx=0;entryDy=0;" parent="jr0CHW6PvVo1bV3VDk_E-124" source="jr0CHW6PvVo1bV3VDk_E-182" target="jr0CHW6PvVo1bV3VDk_E-142" edge="1">
                    <mxGeometry relative="1" as="geometry">
                        <mxPoint x="628.0699999999999" y="337" as="targetPoint"/>
                    </mxGeometry>
                </mxCell>
                <mxCell id="jr0CHW6PvVo1bV3VDk_E-173" value="0..1" style="edgeLabel;html=1;align=center;verticalAlign=middle;resizable=0;points=[];fontSize=11;labelBackgroundColor=none;" parent="jr0CHW6PvVo1bV3VDk_E-172" vertex="1" connectable="0">
                    <mxGeometry x="-0.9753" relative="1" as="geometry">
                        <mxPoint x="-12" y="-8" as="offset"/>
                    </mxGeometry>
                </mxCell>
                <mxCell id="jr0CHW6PvVo1bV3VDk_E-174" value="1" style="edgeLabel;html=1;align=center;verticalAlign=middle;resizable=0;points=[];labelBackgroundColor=none;" parent="jr0CHW6PvVo1bV3VDk_E-172" vertex="1" connectable="0">
                    <mxGeometry x="0.9253" relative="1" as="geometry">
                        <mxPoint x="-8" y="-2" as="offset"/>
                    </mxGeometry>
                </mxCell>
                <mxCell id="jr0CHW6PvVo1bV3VDk_E-175" value="Address" style="swimlane;fontStyle=0;childLayout=stackLayout;horizontal=1;startSize=26;fillColor=none;horizontalStack=0;resizeParent=1;resizeParentMax=0;resizeLast=0;collapsible=1;marginBottom=0;" parent="jr0CHW6PvVo1bV3VDk_E-124" vertex="1">
                    <mxGeometry x="683.9999999999999" y="70" width="200" height="236" as="geometry"/>
                </mxCell>
                <mxCell id="jr0CHW6PvVo1bV3VDk_E-176" value="+Â AccountId: Guid" style="text;strokeColor=none;fillColor=none;align=left;verticalAlign=top;spacingLeft=4;spacingRight=4;overflow=hidden;rotatable=0;points=[[0,0.5],[1,0.5]];portConstraint=eastwest;" parent="jr0CHW6PvVo1bV3VDk_E-175" vertex="1">
                    <mxGeometry y="26" width="200" height="30" as="geometry"/>
                </mxCell>
                <mxCell id="jr0CHW6PvVo1bV3VDk_E-177" value="+ Street: string" style="text;strokeColor=none;fillColor=none;align=left;verticalAlign=top;spacingLeft=4;spacingRight=4;overflow=hidden;rotatable=0;points=[[0,0.5],[1,0.5]];portConstraint=eastwest;" parent="jr0CHW6PvVo1bV3VDk_E-175" vertex="1">
                    <mxGeometry y="56" width="200" height="30" as="geometry"/>
                </mxCell>
                <mxCell id="jr0CHW6PvVo1bV3VDk_E-178" value="+ AdditionalStreet: string" style="text;strokeColor=none;fillColor=none;align=left;verticalAlign=top;spacingLeft=4;spacingRight=4;overflow=hidden;rotatable=0;points=[[0,0.5],[1,0.5]];portConstraint=eastwest;" parent="jr0CHW6PvVo1bV3VDk_E-175" vertex="1">
                    <mxGeometry y="86" width="200" height="30" as="geometry"/>
                </mxCell>
                <mxCell id="jr0CHW6PvVo1bV3VDk_E-179" value="+ PostalCode: string" style="text;strokeColor=none;fillColor=none;align=left;verticalAlign=top;spacingLeft=4;spacingRight=4;overflow=hidden;rotatable=0;points=[[0,0.5],[1,0.5]];portConstraint=eastwest;" parent="jr0CHW6PvVo1bV3VDk_E-175" vertex="1">
                    <mxGeometry y="116" width="200" height="30" as="geometry"/>
                </mxCell>
                <mxCell id="jr0CHW6PvVo1bV3VDk_E-180" value="+ City: string" style="text;strokeColor=none;fillColor=none;align=left;verticalAlign=top;spacingLeft=4;spacingRight=4;overflow=hidden;rotatable=0;points=[[0,0.5],[1,0.5]];portConstraint=eastwest;" parent="jr0CHW6PvVo1bV3VDk_E-175" vertex="1">
                    <mxGeometry y="146" width="200" height="30" as="geometry"/>
                </mxCell>
                <mxCell id="jr0CHW6PvVo1bV3VDk_E-181" value="+ Region: string" style="text;strokeColor=none;fillColor=none;align=left;verticalAlign=top;spacingLeft=4;spacingRight=4;overflow=hidden;rotatable=0;points=[[0,0.5],[1,0.5]];portConstraint=eastwest;" parent="jr0CHW6PvVo1bV3VDk_E-175" vertex="1">
                    <mxGeometry y="176" width="200" height="30" as="geometry"/>
                </mxCell>
                <mxCell id="jr0CHW6PvVo1bV3VDk_E-182" value="+ Country: string" style="text;strokeColor=none;fillColor=none;align=left;verticalAlign=top;spacingLeft=4;spacingRight=4;overflow=hidden;rotatable=0;points=[[0,0.5],[1,0.5]];portConstraint=eastwest;" parent="jr0CHW6PvVo1bV3VDk_E-175" vertex="1">
                    <mxGeometry y="206" width="200" height="30" as="geometry"/>
                </mxCell>
                <mxCell id="jr0CHW6PvVo1bV3VDk_E-183" style="rounded=0;jumpSize=8;orthogonalLoop=1;jettySize=auto;html=1;exitX=0.818;exitY=1.024;exitDx=0;exitDy=0;entryX=0.25;entryY=0;entryDx=0;entryDy=0;fontSize=11;startArrow=none;startFill=0;endArrow=diamondThin;endFill=1;startSize=8;endSize=8;strokeWidth=1;exitPerimeter=0;" parent="jr0CHW6PvVo1bV3VDk_E-124" source="jr0CHW6PvVo1bV3VDk_E-189" target="jr0CHW6PvVo1bV3VDk_E-142" edge="1">
                    <mxGeometry relative="1" as="geometry"/>
                </mxCell>
                <mxCell id="jr0CHW6PvVo1bV3VDk_E-184" value="0..*" style="edgeLabel;html=1;align=center;verticalAlign=middle;resizable=0;points=[];fontSize=11;labelBackgroundColor=none;" parent="jr0CHW6PvVo1bV3VDk_E-183" vertex="1" connectable="0">
                    <mxGeometry x="-1" relative="1" as="geometry">
                        <mxPoint x="-11" y="7" as="offset"/>
                    </mxGeometry>
                </mxCell>
                <mxCell id="jr0CHW6PvVo1bV3VDk_E-185" value="1" style="edgeLabel;html=1;align=center;verticalAlign=middle;resizable=0;points=[];" parent="jr0CHW6PvVo1bV3VDk_E-183" vertex="1" connectable="0">
                    <mxGeometry x="0.9503" y="-1" relative="1" as="geometry">
                        <mxPoint x="8" y="-4" as="offset"/>
                    </mxGeometry>
                </mxCell>
                <mxCell id="jr0CHW6PvVo1bV3VDk_E-186" value="SocialSecurityNumber" style="swimlane;fontStyle=0;childLayout=stackLayout;horizontal=1;startSize=26;fillColor=none;horizontalStack=0;resizeParent=1;resizeParentMax=0;resizeLast=0;collapsible=1;marginBottom=0;labelBackgroundColor=none;fontSize=11;" parent="jr0CHW6PvVo1bV3VDk_E-124" vertex="1">
                    <mxGeometry x="318" y="163.00000000000003" width="140" height="104" as="geometry">
                        <mxRectangle x="290" y="480" width="80" height="30" as="alternateBounds"/>
                    </mxGeometry>
                </mxCell>
                <mxCell id="jr0CHW6PvVo1bV3VDk_E-187" value="+ AccountId: Guid" style="text;strokeColor=none;fillColor=none;align=left;verticalAlign=top;spacingLeft=4;spacingRight=4;overflow=hidden;rotatable=0;points=[[0,0.5],[1,0.5]];portConstraint=eastwest;labelBackgroundColor=none;fontSize=11;" parent="jr0CHW6PvVo1bV3VDk_E-186" vertex="1">
                    <mxGeometry y="26" width="140" height="26" as="geometry"/>
                </mxCell>
                <mxCell id="jr0CHW6PvVo1bV3VDk_E-188" value="+ SsnType: enum" style="text;strokeColor=none;fillColor=none;align=left;verticalAlign=top;spacingLeft=4;spacingRight=4;overflow=hidden;rotatable=0;points=[[0,0.5],[1,0.5]];portConstraint=eastwest;labelBackgroundColor=none;fontSize=11;" parent="jr0CHW6PvVo1bV3VDk_E-186" vertex="1">
                    <mxGeometry y="52" width="140" height="26" as="geometry"/>
                </mxCell>
                <mxCell id="jr0CHW6PvVo1bV3VDk_E-189" value="+ Number: string" style="text;strokeColor=none;fillColor=none;align=left;verticalAlign=top;spacingLeft=4;spacingRight=4;overflow=hidden;rotatable=0;points=[[0,0.5],[1,0.5]];portConstraint=eastwest;labelBackgroundColor=none;fontSize=11;" parent="jr0CHW6PvVo1bV3VDk_E-186" vertex="1">
                    <mxGeometry y="78" width="140" height="26" as="geometry"/>
                </mxCell>
                <mxCell id="jr0CHW6PvVo1bV3VDk_E-190" style="rounded=0;jumpSize=8;orthogonalLoop=1;jettySize=auto;html=1;exitX=1;exitY=0.5;exitDx=0;exitDy=0;fontSize=11;startArrow=none;startFill=0;endArrow=diamondThin;endFill=1;startSize=8;endSize=8;strokeWidth=1;" parent="jr0CHW6PvVo1bV3VDk_E-124" source="jr0CHW6PvVo1bV3VDk_E-125" edge="1">
                    <mxGeometry relative="1" as="geometry">
                        <mxPoint x="263" y="516.550724637681" as="targetPoint"/>
                    </mxGeometry>
                </mxCell>
                <mxCell id="jr0CHW6PvVo1bV3VDk_E-191" value="0..*" style="edgeLabel;html=1;align=center;verticalAlign=middle;resizable=0;points=[];fontSize=11;labelBackgroundColor=none;" parent="jr0CHW6PvVo1bV3VDk_E-190" vertex="1" connectable="0">
                    <mxGeometry x="-0.7713" relative="1" as="geometry">
                        <mxPoint x="4" y="-11" as="offset"/>
                    </mxGeometry>
                </mxCell>
                <mxCell id="jr0CHW6PvVo1bV3VDk_E-192" value="1" style="edgeLabel;html=1;align=center;verticalAlign=middle;resizable=0;points=[];fontSize=11;labelBackgroundColor=none;" parent="jr0CHW6PvVo1bV3VDk_E-190" vertex="1" connectable="0">
                    <mxGeometry x="0.8569" relative="1" as="geometry">
                        <mxPoint x="-3" y="-12" as="offset"/>
                    </mxGeometry>
                </mxCell>
                <mxCell id="jr0CHW6PvVo1bV3VDk_E-193" value="ContactDetail" style="swimlane;fontStyle=0;childLayout=stackLayout;horizontal=1;startSize=26;fillColor=none;horizontalStack=0;resizeParent=1;resizeParentMax=0;resizeLast=0;collapsible=1;marginBottom=0;labelBackgroundColor=none;fontSize=11;" parent="jr0CHW6PvVo1bV3VDk_E-124" vertex="1">
                    <mxGeometry x="268" y="298" width="140" height="104" as="geometry">
                        <mxRectangle x="290" y="480" width="80" height="30" as="alternateBounds"/>
                    </mxGeometry>
                </mxCell>
                <mxCell id="jr0CHW6PvVo1bV3VDk_E-194" value="+ AccountId: Guid" style="text;strokeColor=none;fillColor=none;align=left;verticalAlign=top;spacingLeft=4;spacingRight=4;overflow=hidden;rotatable=0;points=[[0,0.5],[1,0.5]];portConstraint=eastwest;labelBackgroundColor=none;fontSize=11;" parent="jr0CHW6PvVo1bV3VDk_E-193" vertex="1">
                    <mxGeometry y="26" width="140" height="26" as="geometry"/>
                </mxCell>
                <mxCell id="jr0CHW6PvVo1bV3VDk_E-195" value="+ Email: string" style="text;strokeColor=none;fillColor=none;align=left;verticalAlign=top;spacingLeft=4;spacingRight=4;overflow=hidden;rotatable=0;points=[[0,0.5],[1,0.5]];portConstraint=eastwest;labelBackgroundColor=none;fontSize=11;" parent="jr0CHW6PvVo1bV3VDk_E-193" vertex="1">
                    <mxGeometry y="52" width="140" height="26" as="geometry"/>
                </mxCell>
                <mxCell id="jr0CHW6PvVo1bV3VDk_E-196" value="+ PhoneNumber: string" style="text;strokeColor=none;fillColor=none;align=left;verticalAlign=top;spacingLeft=4;spacingRight=4;overflow=hidden;rotatable=0;points=[[0,0.5],[1,0.5]];portConstraint=eastwest;labelBackgroundColor=none;fontSize=11;" parent="jr0CHW6PvVo1bV3VDk_E-193" vertex="1">
                    <mxGeometry y="78" width="140" height="26" as="geometry"/>
                </mxCell>
                <mxCell id="jr0CHW6PvVo1bV3VDk_E-197" style="rounded=0;jumpSize=8;orthogonalLoop=1;jettySize=auto;html=1;exitX=1;exitY=0.5;exitDx=0;exitDy=0;fontSize=11;startArrow=none;startFill=0;endArrow=diamondThin;endFill=1;startSize=8;endSize=8;strokeWidth=1;entryX=0;entryY=0;entryDx=0;entryDy=0;" parent="jr0CHW6PvVo1bV3VDk_E-124" source="jr0CHW6PvVo1bV3VDk_E-193" target="jr0CHW6PvVo1bV3VDk_E-142" edge="1">
                    <mxGeometry relative="1" as="geometry">
                        <mxPoint x="467" y="330.00000000000045" as="targetPoint"/>
                    </mxGeometry>
                </mxCell>
                <mxCell id="jr0CHW6PvVo1bV3VDk_E-198" value="0..1" style="edgeLabel;html=1;align=center;verticalAlign=middle;resizable=0;points=[];fontSize=11;labelBackgroundColor=none;" parent="jr0CHW6PvVo1bV3VDk_E-197" vertex="1" connectable="0">
                    <mxGeometry x="-0.988" relative="1" as="geometry">
                        <mxPoint x="11" y="-6" as="offset"/>
                    </mxGeometry>
                </mxCell>
                <mxCell id="jr0CHW6PvVo1bV3VDk_E-199" value="1" style="edgeLabel;html=1;align=center;verticalAlign=middle;resizable=0;points=[];labelBackgroundColor=none;" parent="jr0CHW6PvVo1bV3VDk_E-197" vertex="1" connectable="0">
                    <mxGeometry x="0.9051" y="1" relative="1" as="geometry">
                        <mxPoint x="6" y="-3" as="offset"/>
                    </mxGeometry>
                </mxCell>
                <mxCell id="jr0CHW6PvVo1bV3VDk_E-200" value="BaseEntity" style="swimlane;fontStyle=0;childLayout=stackLayout;horizontal=1;startSize=26;fillColor=none;horizontalStack=0;resizeParent=1;resizeParentMax=0;resizeLast=0;collapsible=1;marginBottom=0;" parent="jr0CHW6PvVo1bV3VDk_E-124" vertex="1">
                    <mxGeometry x="49" y="60" width="170" height="206" as="geometry"/>
                </mxCell>
                <mxCell id="jr0CHW6PvVo1bV3VDk_E-201" value="+ Id: Guid" style="text;strokeColor=none;fillColor=none;align=left;verticalAlign=top;spacingLeft=4;spacingRight=4;overflow=hidden;rotatable=0;points=[[0,0.5],[1,0.5]];portConstraint=eastwest;" parent="jr0CHW6PvVo1bV3VDk_E-200" vertex="1">
                    <mxGeometry y="26" width="170" height="30" as="geometry"/>
                </mxCell>
                <mxCell id="jr0CHW6PvVo1bV3VDk_E-202" value="+ Created: DateTimeOffset" style="text;strokeColor=none;fillColor=none;align=left;verticalAlign=top;spacingLeft=4;spacingRight=4;overflow=hidden;rotatable=0;points=[[0,0.5],[1,0.5]];portConstraint=eastwest;" parent="jr0CHW6PvVo1bV3VDk_E-200" vertex="1">
                    <mxGeometry y="56" width="170" height="30" as="geometry"/>
                </mxCell>
                <mxCell id="jr0CHW6PvVo1bV3VDk_E-203" value="+ Changed: DateTimeOffset" style="text;strokeColor=none;fillColor=none;align=left;verticalAlign=top;spacingLeft=4;spacingRight=4;overflow=hidden;rotatable=0;points=[[0,0.5],[1,0.5]];portConstraint=eastwest;" parent="jr0CHW6PvVo1bV3VDk_E-200" vertex="1">
                    <mxGeometry y="86" width="170" height="30" as="geometry"/>
                </mxCell>
                <mxCell id="jr0CHW6PvVo1bV3VDk_E-204" value="+ ChangedBy: Guid" style="text;strokeColor=none;fillColor=none;align=left;verticalAlign=top;spacingLeft=4;spacingRight=4;overflow=hidden;rotatable=0;points=[[0,0.5],[1,0.5]];portConstraint=eastwest;" parent="jr0CHW6PvVo1bV3VDk_E-200" vertex="1">
                    <mxGeometry y="116" width="170" height="30" as="geometry"/>
                </mxCell>
                <mxCell id="jr0CHW6PvVo1bV3VDk_E-205" value="+ Accessed: DateTimeOffset" style="text;strokeColor=none;fillColor=none;align=left;verticalAlign=top;spacingLeft=4;spacingRight=4;overflow=hidden;rotatable=0;points=[[0,0.5],[1,0.5]];portConstraint=eastwest;" parent="jr0CHW6PvVo1bV3VDk_E-200" vertex="1">
                    <mxGeometry y="146" width="170" height="30" as="geometry"/>
                </mxCell>
                <mxCell id="jr0CHW6PvVo1bV3VDk_E-206" value="+ AccessedBy: Guid" style="text;strokeColor=none;fillColor=none;align=left;verticalAlign=top;spacingLeft=4;spacingRight=4;overflow=hidden;rotatable=0;points=[[0,0.5],[1,0.5]];portConstraint=eastwest;" parent="jr0CHW6PvVo1bV3VDk_E-200" vertex="1">
                    <mxGeometry y="176" width="170" height="30" as="geometry"/>
                </mxCell>
                <mxCell id="jr0CHW6PvVo1bV3VDk_E-207" style="rounded=0;jumpSize=8;orthogonalLoop=1;jettySize=auto;html=1;exitX=0;exitY=0.5;exitDx=0;exitDy=0;fontSize=11;startArrow=none;startFill=0;endArrow=diamondThin;endFill=1;startSize=8;endSize=8;strokeWidth=1;entryX=1;entryY=0.5;entryDx=0;entryDy=0;" parent="jr0CHW6PvVo1bV3VDk_E-124" source="jr0CHW6PvVo1bV3VDk_E-211" target="jr0CHW6PvVo1bV3VDk_E-144" edge="1">
                    <mxGeometry relative="1" as="geometry">
                        <mxPoint x="632" y="530" as="targetPoint"/>
                    </mxGeometry>
                </mxCell>
                <mxCell id="jr0CHW6PvVo1bV3VDk_E-208" value="0..*" style="edgeLabel;html=1;align=center;verticalAlign=middle;resizable=0;points=[];fontSize=11;labelBackgroundColor=none;" parent="jr0CHW6PvVo1bV3VDk_E-207" vertex="1" connectable="0">
                    <mxGeometry x="-0.9999" relative="1" as="geometry">
                        <mxPoint x="-11" y="7" as="offset"/>
                    </mxGeometry>
                </mxCell>
                <mxCell id="jr0CHW6PvVo1bV3VDk_E-209" value="1" style="edgeLabel;html=1;align=center;verticalAlign=middle;resizable=0;points=[];labelBackgroundColor=none;" parent="jr0CHW6PvVo1bV3VDk_E-207" vertex="1" connectable="0">
                    <mxGeometry x="0.9341" y="-1" relative="1" as="geometry">
                        <mxPoint y="-7" as="offset"/>
                    </mxGeometry>
                </mxCell>
                <mxCell id="jr0CHW6PvVo1bV3VDk_E-210" value="Share" style="swimlane;fontStyle=0;childLayout=stackLayout;horizontal=1;startSize=26;fillColor=none;horizontalStack=0;resizeParent=1;resizeParentMax=0;resizeLast=0;collapsible=1;marginBottom=0;labelBackgroundColor=none;fontSize=11;" parent="jr0CHW6PvVo1bV3VDk_E-124" vertex="1">
                    <mxGeometry x="672.39" y="568.6700000000001" width="160" height="78" as="geometry"/>
                </mxCell>
                <mxCell id="jr0CHW6PvVo1bV3VDk_E-211" value="+ AccountId: Guid" style="text;strokeColor=none;fillColor=none;align=left;verticalAlign=top;spacingLeft=4;spacingRight=4;overflow=hidden;rotatable=0;points=[[0,0.5],[1,0.5]];portConstraint=eastwest;labelBackgroundColor=none;fontSize=11;" parent="jr0CHW6PvVo1bV3VDk_E-210" vertex="1">
                    <mxGeometry y="26" width="160" height="26" as="geometry"/>
                </mxCell>
                <mxCell id="jr0CHW6PvVo1bV3VDk_E-212" value="+ Expiration: DateTimeOffset" style="text;strokeColor=none;fillColor=none;align=left;verticalAlign=top;spacingLeft=4;spacingRight=4;overflow=hidden;rotatable=0;points=[[0,0.5],[1,0.5]];portConstraint=eastwest;labelBackgroundColor=none;fontSize=11;" parent="jr0CHW6PvVo1bV3VDk_E-210" vertex="1">
                    <mxGeometry y="52" width="160" height="26" as="geometry"/>
                </mxCell>
                <mxCell id="jr0CHW6PvVo1bV3VDk_E-213" style="edgeStyle=orthogonalEdgeStyle;rounded=0;jumpSize=8;orthogonalLoop=1;jettySize=auto;html=1;exitX=0.5;exitY=0;exitDx=0;exitDy=0;entryX=0.5;entryY=1;entryDx=0;entryDy=0;fontSize=11;startArrow=none;startFill=0;endArrow=diamondThin;endFill=1;startSize=8;endSize=8;strokeWidth=1;" parent="jr0CHW6PvVo1bV3VDk_E-124" source="jr0CHW6PvVo1bV3VDk_E-216" target="jr0CHW6PvVo1bV3VDk_E-210" edge="1">
                    <mxGeometry relative="1" as="geometry"/>
                </mxCell>
                <mxCell id="jr0CHW6PvVo1bV3VDk_E-214" value="0..*" style="edgeLabel;html=1;align=center;verticalAlign=middle;resizable=0;points=[];fontSize=11;" parent="jr0CHW6PvVo1bV3VDk_E-213" vertex="1" connectable="0">
                    <mxGeometry x="-0.8062" y="1" relative="1" as="geometry">
                        <mxPoint x="-11" y="-3" as="offset"/>
                    </mxGeometry>
                </mxCell>
                <mxCell id="jr0CHW6PvVo1bV3VDk_E-215" value="1" style="edgeLabel;html=1;align=center;verticalAlign=middle;resizable=0;points=[];fontSize=11;labelBackgroundColor=none;" parent="jr0CHW6PvVo1bV3VDk_E-213" vertex="1" connectable="0">
                    <mxGeometry x="0.7908" y="1" relative="1" as="geometry">
                        <mxPoint x="-7" y="1" as="offset"/>
                    </mxGeometry>
                </mxCell>
                <mxCell id="jr0CHW6PvVo1bV3VDk_E-216" value="ShareDetail" style="swimlane;fontStyle=0;childLayout=stackLayout;horizontal=1;startSize=26;fillColor=none;horizontalStack=0;resizeParent=1;resizeParentMax=0;resizeLast=0;collapsible=1;marginBottom=0;labelBackgroundColor=none;fontSize=11;" parent="jr0CHW6PvVo1bV3VDk_E-124" vertex="1">
                    <mxGeometry x="672.39" y="700.1600000000001" width="160" height="104" as="geometry"/>
                </mxCell>
                <mxCell id="jr0CHW6PvVo1bV3VDk_E-217" value="+ ShareId: Guid" style="text;strokeColor=none;fillColor=none;align=left;verticalAlign=top;spacingLeft=4;spacingRight=4;overflow=hidden;rotatable=0;points=[[0,0.5],[1,0.5]];portConstraint=eastwest;labelBackgroundColor=none;fontSize=11;" parent="jr0CHW6PvVo1bV3VDk_E-216" vertex="1">
                    <mxGeometry y="26" width="160" height="26" as="geometry"/>
                </mxCell>
                <mxCell id="jr0CHW6PvVo1bV3VDk_E-218" value="+ DetailType: enum" style="text;strokeColor=none;fillColor=none;align=left;verticalAlign=top;spacingLeft=4;spacingRight=4;overflow=hidden;rotatable=0;points=[[0,0.5],[1,0.5]];portConstraint=eastwest;labelBackgroundColor=none;fontSize=11;" parent="jr0CHW6PvVo1bV3VDk_E-216" vertex="1">
                    <mxGeometry y="52" width="160" height="26" as="geometry"/>
                </mxCell>
                <mxCell id="jr0CHW6PvVo1bV3VDk_E-219" value="+ Description: string" style="text;strokeColor=none;fillColor=none;align=left;verticalAlign=top;spacingLeft=4;spacingRight=4;overflow=hidden;rotatable=0;points=[[0,0.5],[1,0.5]];portConstraint=eastwest;labelBackgroundColor=none;fontSize=11;" parent="jr0CHW6PvVo1bV3VDk_E-216" vertex="1">
                    <mxGeometry y="78" width="160" height="26" as="geometry"/>
                </mxCell>
                <mxCell id="jr0CHW6PvVo1bV3VDk_E-220" value="PersonalDetail" style="swimlane;fontStyle=0;childLayout=stackLayout;horizontal=1;startSize=26;fillColor=none;horizontalStack=0;resizeParent=1;resizeParentMax=0;resizeLast=0;collapsible=1;marginBottom=0;labelBackgroundColor=none;fontSize=11;" parent="jr0CHW6PvVo1bV3VDk_E-124" vertex="1">
                    <mxGeometry x="490" y="51" width="162" height="208" as="geometry">
                        <mxRectangle x="290" y="480" width="80" height="30" as="alternateBounds"/>
                    </mxGeometry>
                </mxCell>
                <mxCell id="jr0CHW6PvVo1bV3VDk_E-221" value="+ AccountId: Guid" style="text;strokeColor=none;fillColor=none;align=left;verticalAlign=top;spacingLeft=4;spacingRight=4;overflow=hidden;rotatable=0;points=[[0,0.5],[1,0.5]];portConstraint=eastwest;labelBackgroundColor=none;fontSize=11;" parent="jr0CHW6PvVo1bV3VDk_E-220" vertex="1">
                    <mxGeometry y="26" width="162" height="26" as="geometry"/>
                </mxCell>
                <mxCell id="jr0CHW6PvVo1bV3VDk_E-222" value="+ Firstname: string" style="text;strokeColor=none;fillColor=none;align=left;verticalAlign=top;spacingLeft=4;spacingRight=4;overflow=hidden;rotatable=0;points=[[0,0.5],[1,0.5]];portConstraint=eastwest;labelBackgroundColor=none;fontSize=11;" parent="jr0CHW6PvVo1bV3VDk_E-220" vertex="1">
                    <mxGeometry y="52" width="162" height="26" as="geometry"/>
                </mxCell>
                <mxCell id="jr0CHW6PvVo1bV3VDk_E-223" value="+ Middlenames: string" style="text;strokeColor=none;fillColor=none;align=left;verticalAlign=top;spacingLeft=4;spacingRight=4;overflow=hidden;rotatable=0;points=[[0,0.5],[1,0.5]];portConstraint=eastwest;labelBackgroundColor=none;fontSize=11;" parent="jr0CHW6PvVo1bV3VDk_E-220" vertex="1">
                    <mxGeometry y="78" width="162" height="26" as="geometry"/>
                </mxCell>
                <mxCell id="jr0CHW6PvVo1bV3VDk_E-224" value="+ Lastname: string" style="text;strokeColor=none;fillColor=none;align=left;verticalAlign=top;spacingLeft=4;spacingRight=4;overflow=hidden;rotatable=0;points=[[0,0.5],[1,0.5]];portConstraint=eastwest;labelBackgroundColor=none;fontSize=11;" parent="jr0CHW6PvVo1bV3VDk_E-220" vertex="1">
                    <mxGeometry y="104" width="162" height="26" as="geometry"/>
                </mxCell>
                <mxCell id="jr0CHW6PvVo1bV3VDk_E-225" value="+ DateOfBirth: DateTimeOffset" style="text;strokeColor=none;fillColor=none;align=left;verticalAlign=top;spacingLeft=4;spacingRight=4;overflow=hidden;rotatable=0;points=[[0,0.5],[1,0.5]];portConstraint=eastwest;labelBackgroundColor=none;fontSize=11;" parent="jr0CHW6PvVo1bV3VDk_E-220" vertex="1">
                    <mxGeometry y="130" width="162" height="26" as="geometry"/>
                </mxCell>
                <mxCell id="jr0CHW6PvVo1bV3VDk_E-226" value="+ Nationality: string" style="text;strokeColor=none;fillColor=none;align=left;verticalAlign=top;spacingLeft=4;spacingRight=4;overflow=hidden;rotatable=0;points=[[0,0.5],[1,0.5]];portConstraint=eastwest;labelBackgroundColor=none;fontSize=11;" parent="jr0CHW6PvVo1bV3VDk_E-220" vertex="1">
                    <mxGeometry y="156" width="162" height="26" as="geometry"/>
                </mxCell>
                <mxCell id="jr0CHW6PvVo1bV3VDk_E-227" value="+ SexType: enum" style="text;strokeColor=none;fillColor=none;align=left;verticalAlign=top;spacingLeft=4;spacingRight=4;overflow=hidden;rotatable=0;points=[[0,0.5],[1,0.5]];portConstraint=eastwest;labelBackgroundColor=none;fontSize=11;" parent="jr0CHW6PvVo1bV3VDk_E-220" vertex="1">
                    <mxGeometry y="182" width="162" height="26" as="geometry"/>
                </mxCell>
                <mxCell id="jr0CHW6PvVo1bV3VDk_E-228" value="DocumentSignature" style="swimlane;fontStyle=0;childLayout=stackLayout;horizontal=1;startSize=26;fillColor=none;horizontalStack=0;resizeParent=1;resizeParentMax=0;resizeLast=0;collapsible=1;marginBottom=0;" parent="jr0CHW6PvVo1bV3VDk_E-124" vertex="1">
                    <mxGeometry x="1022" y="380" width="140" height="56" as="geometry"/>
                </mxCell>
                <mxCell id="jr0CHW6PvVo1bV3VDk_E-229" value="+ DocumentId: Guid" style="text;strokeColor=none;fillColor=none;align=left;verticalAlign=top;spacingLeft=4;spacingRight=4;overflow=hidden;rotatable=0;points=[[0,0.5],[1,0.5]];portConstraint=eastwest;" parent="jr0CHW6PvVo1bV3VDk_E-228" vertex="1">
                    <mxGeometry y="26" width="140" height="30" as="geometry"/>
                </mxCell>
                <mxCell id="jr0CHW6PvVo1bV3VDk_E-230" value="DocumentDetail" style="swimlane;fontStyle=0;childLayout=stackLayout;horizontal=1;startSize=26;fillColor=none;horizontalStack=0;resizeParent=1;resizeParentMax=0;resizeLast=0;collapsible=1;marginBottom=0;" parent="jr0CHW6PvVo1bV3VDk_E-124" vertex="1">
                    <mxGeometry x="1012" y="561" width="170" height="116" as="geometry"/>
                </mxCell>
                <mxCell id="jr0CHW6PvVo1bV3VDk_E-231" value="+ DocumentId: Guid" style="text;strokeColor=none;fillColor=none;align=left;verticalAlign=top;spacingLeft=4;spacingRight=4;overflow=hidden;rotatable=0;points=[[0,0.5],[1,0.5]];portConstraint=eastwest;" parent="jr0CHW6PvVo1bV3VDk_E-230" vertex="1">
                    <mxGeometry y="26" width="170" height="30" as="geometry"/>
                </mxCell>
                <mxCell id="jr0CHW6PvVo1bV3VDk_E-232" value="+ Format: string" style="text;strokeColor=none;fillColor=none;align=left;verticalAlign=top;spacingLeft=4;spacingRight=4;overflow=hidden;rotatable=0;points=[[0,0.5],[1,0.5]];portConstraint=eastwest;" parent="jr0CHW6PvVo1bV3VDk_E-230" vertex="1">
                    <mxGeometry y="56" width="170" height="30" as="geometry"/>
                </mxCell>
                <mxCell id="jr0CHW6PvVo1bV3VDk_E-233" value="+ ByteSize: int" style="text;strokeColor=none;fillColor=none;align=left;verticalAlign=top;spacingLeft=4;spacingRight=4;overflow=hidden;rotatable=0;points=[[0,0.5],[1,0.5]];portConstraint=eastwest;" parent="jr0CHW6PvVo1bV3VDk_E-230" vertex="1">
                    <mxGeometry y="86" width="170" height="30" as="geometry"/>
                </mxCell>
                <mxCell id="jr0CHW6PvVo1bV3VDk_E-234" style="edgeStyle=none;rounded=0;orthogonalLoop=1;jettySize=auto;html=1;exitX=1;exitY=0.5;exitDx=0;exitDy=0;entryX=0.5;entryY=1;entryDx=0;entryDy=0;endArrow=none;endFill=0;startArrow=diamondThin;startFill=1;" parent="jr0CHW6PvVo1bV3VDk_E-124" source="jr0CHW6PvVo1bV3VDk_E-136" target="jr0CHW6PvVo1bV3VDk_E-228" edge="1">
                    <mxGeometry relative="1" as="geometry">
                        <mxPoint x="1092" y="450" as="targetPoint"/>
                    </mxGeometry>
                </mxCell>
                <mxCell id="jr0CHW6PvVo1bV3VDk_E-235" value="1" style="edgeLabel;html=1;align=center;verticalAlign=middle;resizable=0;points=[];labelBackgroundColor=none;" parent="jr0CHW6PvVo1bV3VDk_E-234" vertex="1" connectable="0">
                    <mxGeometry x="-0.9229" relative="1" as="geometry">
                        <mxPoint x="1" y="-12" as="offset"/>
                    </mxGeometry>
                </mxCell>
                <mxCell id="jr0CHW6PvVo1bV3VDk_E-236" value="0..*" style="edgeLabel;html=1;align=center;verticalAlign=middle;resizable=0;points=[];labelBackgroundColor=none;" parent="jr0CHW6PvVo1bV3VDk_E-234" vertex="1" connectable="0">
                    <mxGeometry x="0.7059" relative="1" as="geometry">
                        <mxPoint x="23" y="2" as="offset"/>
                    </mxGeometry>
                </mxCell>
                <mxCell id="jr0CHW6PvVo1bV3VDk_E-237" style="edgeStyle=none;rounded=0;orthogonalLoop=1;jettySize=auto;html=1;exitX=1;exitY=0.5;exitDx=0;exitDy=0;entryX=0.5;entryY=0;entryDx=0;entryDy=0;endArrow=none;endFill=0;startArrow=diamondThin;startFill=1;" parent="jr0CHW6PvVo1bV3VDk_E-124" source="jr0CHW6PvVo1bV3VDk_E-137" target="jr0CHW6PvVo1bV3VDk_E-230" edge="1">
                    <mxGeometry relative="1" as="geometry"/>
                </mxCell>
                <mxCell id="jr0CHW6PvVo1bV3VDk_E-238" value="1" style="edgeLabel;html=1;align=center;verticalAlign=middle;resizable=0;points=[];labelBackgroundColor=none;" parent="jr0CHW6PvVo1bV3VDk_E-237" vertex="1" connectable="0">
                    <mxGeometry x="0.9925" y="1" relative="1" as="geometry">
                        <mxPoint x="1" y="-6" as="offset"/>
                    </mxGeometry>
                </mxCell>
                <mxCell id="jr0CHW6PvVo1bV3VDk_E-239" value="1" style="edgeLabel;html=1;align=center;verticalAlign=middle;resizable=0;points=[];labelBackgroundColor=none;" parent="jr0CHW6PvVo1bV3VDk_E-237" vertex="1" connectable="0">
                    <mxGeometry x="-0.9768" relative="1" as="geometry">
                        <mxPoint x="3" y="-8" as="offset"/>
                    </mxGeometry>
                </mxCell>
                <mxCell id="jr0CHW6PvVo1bV3VDk_E-240" style="edgeStyle=none;rounded=0;orthogonalLoop=1;jettySize=auto;html=1;exitX=1;exitY=0.5;exitDx=0;exitDy=0;entryX=0;entryY=0.75;entryDx=0;entryDy=0;startArrow=none;startFill=0;endArrow=diamondThin;endFill=1;" parent="jr0CHW6PvVo1bV3VDk_E-124" source="jr0CHW6PvVo1bV3VDk_E-243" target="jr0CHW6PvVo1bV3VDk_E-146" edge="1">
                    <mxGeometry relative="1" as="geometry"/>
                </mxCell>
                <mxCell id="jr0CHW6PvVo1bV3VDk_E-241" value="1" style="edgeLabel;html=1;align=center;verticalAlign=middle;resizable=0;points=[];labelBackgroundColor=none;" parent="jr0CHW6PvVo1bV3VDk_E-240" vertex="1" connectable="0">
                    <mxGeometry x="0.914" relative="1" as="geometry">
                        <mxPoint x="-1" y="-8" as="offset"/>
                    </mxGeometry>
                </mxCell>
                <mxCell id="jr0CHW6PvVo1bV3VDk_E-242" value="0..*" style="edgeLabel;html=1;align=center;verticalAlign=middle;resizable=0;points=[];" parent="jr0CHW6PvVo1bV3VDk_E-240" vertex="1" connectable="0">
                    <mxGeometry x="-0.9675" relative="1" as="geometry">
                        <mxPoint x="8" y="7" as="offset"/>
                    </mxGeometry>
                </mxCell>
                <mxCell id="jr0CHW6PvVo1bV3VDk_E-243" value="DeviceToken" style="swimlane;fontStyle=0;childLayout=stackLayout;horizontal=1;startSize=26;fillColor=none;horizontalStack=0;resizeParent=1;resizeParentMax=0;resizeLast=0;collapsible=1;marginBottom=0;" parent="jr0CHW6PvVo1bV3VDk_E-124" vertex="1">
                    <mxGeometry x="31.000000000000007" y="549" width="170" height="104" as="geometry"/>
                </mxCell>
                <mxCell id="jr0CHW6PvVo1bV3VDk_E-244" value="+ LoginId: Guid" style="text;strokeColor=none;fillColor=none;align=left;verticalAlign=top;spacingLeft=4;spacingRight=4;overflow=hidden;rotatable=0;points=[[0,0.5],[1,0.5]];portConstraint=eastwest;" parent="jr0CHW6PvVo1bV3VDk_E-243" vertex="1">
                    <mxGeometry y="26" width="170" height="26" as="geometry"/>
                </mxCell>
                <mxCell id="jr0CHW6PvVo1bV3VDk_E-245" value="+ DeviceType: enum" style="text;strokeColor=none;fillColor=none;align=left;verticalAlign=top;spacingLeft=4;spacingRight=4;overflow=hidden;rotatable=0;points=[[0,0.5],[1,0.5]];portConstraint=eastwest;" parent="jr0CHW6PvVo1bV3VDk_E-243" vertex="1">
                    <mxGeometry y="52" width="170" height="26" as="geometry"/>
                </mxCell>
                <mxCell id="jr0CHW6PvVo1bV3VDk_E-246" value="+ Token: string" style="text;strokeColor=none;fillColor=none;align=left;verticalAlign=top;spacingLeft=4;spacingRight=4;overflow=hidden;rotatable=0;points=[[0,0.5],[1,0.5]];portConstraint=eastwest;" parent="jr0CHW6PvVo1bV3VDk_E-243" vertex="1">
                    <mxGeometry y="78" width="170" height="26" as="geometry"/>
                </mxCell>
            </root>
        </mxGraphModel>
    </diagram>
    <diagram id="QQiT9Kezcni0EYAtkasx" name="V3">
        <mxGraphModel dx="4391" dy="-2882" grid="0" gridSize="10" guides="0" tooltips="1" connect="1" arrows="1" fold="1" page="0" pageScale="1" pageWidth="827" pageHeight="1169" math="0" shadow="0">
            <root>
                <mxCell id="0"/>
                <mxCell id="1" parent="0"/>
                <mxCell id="JoX8JB2vSUP5KFqGpNIc-1" value="Structure" style="swimlane;labelBackgroundColor=none;fontSize=11;startSize=23;" parent="1" vertex="1">
                    <mxGeometry x="-2832" y="4260" width="1530" height="930" as="geometry">
                        <mxRectangle x="-130" y="230" width="90" height="30" as="alternateBounds"/>
                    </mxGeometry>
                </mxCell>
                <mxCell id="JoX8JB2vSUP5KFqGpNIc-77" value="BaseEntity" style="swimlane;fontStyle=0;childLayout=stackLayout;horizontal=1;startSize=26;fillColor=none;horizontalStack=0;resizeParent=1;resizeParentMax=0;resizeLast=0;collapsible=1;marginBottom=0;" parent="JoX8JB2vSUP5KFqGpNIc-1" vertex="1">
                    <mxGeometry x="40" y="50" width="170" height="146" as="geometry"/>
                </mxCell>
                <mxCell id="JoX8JB2vSUP5KFqGpNIc-78" value="+ Id: Guid" style="text;strokeColor=none;fillColor=none;align=left;verticalAlign=top;spacingLeft=4;spacingRight=4;overflow=hidden;rotatable=0;points=[[0,0.5],[1,0.5]];portConstraint=eastwest;" parent="JoX8JB2vSUP5KFqGpNIc-77" vertex="1">
                    <mxGeometry y="26" width="170" height="30" as="geometry"/>
                </mxCell>
                <mxCell id="JoX8JB2vSUP5KFqGpNIc-79" value="+ Created: DateTimeOffset" style="text;strokeColor=none;fillColor=none;align=left;verticalAlign=top;spacingLeft=4;spacingRight=4;overflow=hidden;rotatable=0;points=[[0,0.5],[1,0.5]];portConstraint=eastwest;" parent="JoX8JB2vSUP5KFqGpNIc-77" vertex="1">
                    <mxGeometry y="56" width="170" height="30" as="geometry"/>
                </mxCell>
                <mxCell id="JoX8JB2vSUP5KFqGpNIc-80" value="+ Changed: DateTimeOffset" style="text;strokeColor=none;fillColor=none;align=left;verticalAlign=top;spacingLeft=4;spacingRight=4;overflow=hidden;rotatable=0;points=[[0,0.5],[1,0.5]];portConstraint=eastwest;" parent="JoX8JB2vSUP5KFqGpNIc-77" vertex="1">
                    <mxGeometry y="86" width="170" height="30" as="geometry"/>
                </mxCell>
                <mxCell id="JoX8JB2vSUP5KFqGpNIc-83" value="+ Deleted: bool" style="text;strokeColor=none;fillColor=none;align=left;verticalAlign=top;spacingLeft=4;spacingRight=4;overflow=hidden;rotatable=0;points=[[0,0.5],[1,0.5]];portConstraint=eastwest;" parent="JoX8JB2vSUP5KFqGpNIc-77" vertex="1">
                    <mxGeometry y="116" width="170" height="30" as="geometry"/>
                </mxCell>
                <mxCell id="JoX8JB2vSUP5KFqGpNIc-2" value="RefreshToken" style="swimlane;fontStyle=0;childLayout=stackLayout;horizontal=1;startSize=26;fillColor=none;horizontalStack=0;resizeParent=1;resizeParentMax=0;resizeLast=0;collapsible=1;marginBottom=0;" parent="JoX8JB2vSUP5KFqGpNIc-1" vertex="1">
                    <mxGeometry x="339.25" y="617.67" width="170" height="104" as="geometry"/>
                </mxCell>
                <mxCell id="JoX8JB2vSUP5KFqGpNIc-3" value="+ LoginId: Guid" style="text;strokeColor=none;fillColor=none;align=left;verticalAlign=top;spacingLeft=4;spacingRight=4;overflow=hidden;rotatable=0;points=[[0,0.5],[1,0.5]];portConstraint=eastwest;" parent="JoX8JB2vSUP5KFqGpNIc-2" vertex="1">
                    <mxGeometry y="26" width="170" height="26" as="geometry"/>
                </mxCell>
                <mxCell id="JoX8JB2vSUP5KFqGpNIc-4" value="+ Expiration: DateTimeOffset" style="text;strokeColor=none;fillColor=none;align=left;verticalAlign=top;spacingLeft=4;spacingRight=4;overflow=hidden;rotatable=0;points=[[0,0.5],[1,0.5]];portConstraint=eastwest;" parent="JoX8JB2vSUP5KFqGpNIc-2" vertex="1">
                    <mxGeometry y="52" width="170" height="26" as="geometry"/>
                </mxCell>
                <mxCell id="JoX8JB2vSUP5KFqGpNIc-5" value="+ Token: string" style="text;strokeColor=none;fillColor=none;align=left;verticalAlign=top;spacingLeft=4;spacingRight=4;overflow=hidden;rotatable=0;points=[[0,0.5],[1,0.5]];portConstraint=eastwest;" parent="JoX8JB2vSUP5KFqGpNIc-2" vertex="1">
                    <mxGeometry y="78" width="170" height="26" as="geometry"/>
                </mxCell>
                <mxCell id="JoX8JB2vSUP5KFqGpNIc-6" style="rounded=0;jumpSize=8;orthogonalLoop=1;jettySize=auto;html=1;exitX=0;exitY=0.5;exitDx=0;exitDy=0;fontSize=11;startArrow=none;startFill=0;endArrow=diamondThin;endFill=1;startSize=8;endSize=8;strokeWidth=1;entryX=0.993;entryY=0.513;entryDx=0;entryDy=0;entryPerimeter=0;" parent="JoX8JB2vSUP5KFqGpNIc-1" source="JoX8JB2vSUP5KFqGpNIc-14" target="JoX8JB2vSUP5KFqGpNIc-21" edge="1">
                    <mxGeometry relative="1" as="geometry">
                        <mxPoint x="850.25" y="465" as="targetPoint"/>
                    </mxGeometry>
                </mxCell>
                <mxCell id="JoX8JB2vSUP5KFqGpNIc-7" value="0..*" style="edgeLabel;html=1;align=center;verticalAlign=middle;resizable=0;points=[];fontSize=11;labelBackgroundColor=none;" parent="JoX8JB2vSUP5KFqGpNIc-6" vertex="1" connectable="0">
                    <mxGeometry x="-0.9876" relative="1" as="geometry">
                        <mxPoint x="-10" y="9" as="offset"/>
                    </mxGeometry>
                </mxCell>
                <mxCell id="JoX8JB2vSUP5KFqGpNIc-8" value="1" style="edgeLabel;html=1;align=center;verticalAlign=middle;resizable=0;points=[];labelBackgroundColor=none;" parent="JoX8JB2vSUP5KFqGpNIc-6" vertex="1" connectable="0">
                    <mxGeometry x="0.963" relative="1" as="geometry">
                        <mxPoint x="1" y="-9" as="offset"/>
                    </mxGeometry>
                </mxCell>
                <mxCell id="JoX8JB2vSUP5KFqGpNIc-9" style="rounded=0;jumpSize=8;orthogonalLoop=1;jettySize=auto;html=1;exitX=0.5;exitY=0;exitDx=0;exitDy=0;entryX=0.54;entryY=1.026;entryDx=0;entryDy=0;fontSize=11;startArrow=diamondThin;startFill=1;endArrow=none;endFill=0;startSize=8;endSize=8;strokeWidth=1;entryPerimeter=0;" parent="JoX8JB2vSUP5KFqGpNIc-1" source="JoX8JB2vSUP5KFqGpNIc-12" target="JoX8JB2vSUP5KFqGpNIc-89" edge="1">
                    <mxGeometry relative="1" as="geometry"/>
                </mxCell>
                <mxCell id="JoX8JB2vSUP5KFqGpNIc-10" value="1..*" style="edgeLabel;html=1;align=center;verticalAlign=middle;resizable=0;points=[];fontSize=11;labelBackgroundColor=none;" parent="JoX8JB2vSUP5KFqGpNIc-9" vertex="1" connectable="0">
                    <mxGeometry x="-0.9352" relative="1" as="geometry">
                        <mxPoint x="12" y="-5" as="offset"/>
                    </mxGeometry>
                </mxCell>
                <mxCell id="JoX8JB2vSUP5KFqGpNIc-11" value="0..*" style="edgeLabel;html=1;align=center;verticalAlign=middle;resizable=0;points=[];fontSize=11;labelBackgroundColor=none;" parent="JoX8JB2vSUP5KFqGpNIc-9" vertex="1" connectable="0">
                    <mxGeometry x="0.9883" y="1" relative="1" as="geometry">
                        <mxPoint x="12" y="7" as="offset"/>
                    </mxGeometry>
                </mxCell>
                <mxCell id="JoX8JB2vSUP5KFqGpNIc-12" value="Document" style="swimlane;fontStyle=0;childLayout=stackLayout;horizontal=1;startSize=26;fillColor=none;horizontalStack=0;resizeParent=1;resizeParentMax=0;resizeLast=0;collapsible=1;marginBottom=0;" parent="JoX8JB2vSUP5KFqGpNIc-1" vertex="1">
                    <mxGeometry x="1099.75" y="506" width="140" height="116" as="geometry"/>
                </mxCell>
                <mxCell id="JoX8JB2vSUP5KFqGpNIc-13" value="+ AccountId: Guid" style="text;strokeColor=none;fillColor=none;align=left;verticalAlign=top;spacingLeft=4;spacingRight=4;overflow=hidden;rotatable=0;points=[[0,0.5],[1,0.5]];portConstraint=eastwest;" parent="JoX8JB2vSUP5KFqGpNIc-12" vertex="1">
                    <mxGeometry y="26" width="140" height="30" as="geometry"/>
                </mxCell>
                <mxCell id="JoX8JB2vSUP5KFqGpNIc-14" value="+ Blob: byte[]" style="text;strokeColor=none;fillColor=none;align=left;verticalAlign=top;spacingLeft=4;spacingRight=4;overflow=hidden;rotatable=0;points=[[0,0.5],[1,0.5]];portConstraint=eastwest;" parent="JoX8JB2vSUP5KFqGpNIc-12" vertex="1">
                    <mxGeometry y="56" width="140" height="30" as="geometry"/>
                </mxCell>
                <mxCell id="JoX8JB2vSUP5KFqGpNIc-15" value="+ Content:Â JsonObject" style="text;strokeColor=none;fillColor=none;align=left;verticalAlign=top;spacingLeft=4;spacingRight=4;overflow=hidden;rotatable=0;points=[[0,0.5],[1,0.5]];portConstraint=eastwest;" parent="JoX8JB2vSUP5KFqGpNIc-12" vertex="1">
                    <mxGeometry y="86" width="140" height="30" as="geometry"/>
                </mxCell>
                <mxCell id="JoX8JB2vSUP5KFqGpNIc-19" value="Account" style="swimlane;fontStyle=0;childLayout=stackLayout;horizontal=1;startSize=26;fillColor=none;horizontalStack=0;resizeParent=1;resizeParentMax=0;resizeLast=0;collapsible=1;marginBottom=0;labelBackgroundColor=none;fontSize=11;" parent="JoX8JB2vSUP5KFqGpNIc-1" vertex="1">
                    <mxGeometry x="703.25" y="389.66999999999996" width="140" height="104" as="geometry">
                        <mxRectangle x="290" y="480" width="80" height="30" as="alternateBounds"/>
                    </mxGeometry>
                </mxCell>
                <mxCell id="JoX8JB2vSUP5KFqGpNIc-20" value="+ AccountType: enum" style="text;strokeColor=none;fillColor=none;align=left;verticalAlign=top;spacingLeft=4;spacingRight=4;overflow=hidden;rotatable=0;points=[[0,0.5],[1,0.5]];portConstraint=eastwest;labelBackgroundColor=none;fontSize=11;" parent="JoX8JB2vSUP5KFqGpNIc-19" vertex="1">
                    <mxGeometry y="26" width="140" height="26" as="geometry"/>
                </mxCell>
                <mxCell id="JoX8JB2vSUP5KFqGpNIc-21" value="+ Enabled: bool" style="text;strokeColor=none;fillColor=none;align=left;verticalAlign=top;spacingLeft=4;spacingRight=4;overflow=hidden;rotatable=0;points=[[0,0.5],[1,0.5]];portConstraint=eastwest;labelBackgroundColor=none;fontSize=11;" parent="JoX8JB2vSUP5KFqGpNIc-19" vertex="1">
                    <mxGeometry y="52" width="140" height="26" as="geometry"/>
                </mxCell>
                <mxCell id="JoX8JB2vSUP5KFqGpNIc-22" value="+ Verified: bool" style="text;strokeColor=none;fillColor=none;align=left;verticalAlign=top;spacingLeft=4;spacingRight=4;overflow=hidden;rotatable=0;points=[[0,0.5],[1,0.5]];portConstraint=eastwest;labelBackgroundColor=none;fontSize=11;" parent="JoX8JB2vSUP5KFqGpNIc-19" vertex="1">
                    <mxGeometry y="78" width="140" height="26" as="geometry"/>
                </mxCell>
                <mxCell id="JoX8JB2vSUP5KFqGpNIc-23" value="Login" style="swimlane;fontStyle=0;childLayout=stackLayout;horizontal=1;startSize=26;fillColor=none;horizontalStack=0;resizeParent=1;resizeParentMax=0;resizeLast=0;collapsible=1;marginBottom=0;labelBackgroundColor=none;fontSize=11;" parent="JoX8JB2vSUP5KFqGpNIc-1" vertex="1">
                    <mxGeometry x="622.25" y="617.67" width="150" height="104" as="geometry">
                        <mxRectangle x="80" y="480" width="70" height="30" as="alternateBounds"/>
                    </mxGeometry>
                </mxCell>
                <mxCell id="JoX8JB2vSUP5KFqGpNIc-24" value="+ AccountId: Guid" style="text;strokeColor=none;fillColor=none;align=left;verticalAlign=top;spacingLeft=4;spacingRight=4;overflow=hidden;rotatable=0;points=[[0,0.5],[1,0.5]];portConstraint=eastwest;labelBackgroundColor=none;fontSize=11;" parent="JoX8JB2vSUP5KFqGpNIc-23" vertex="1">
                    <mxGeometry y="26" width="150" height="26" as="geometry"/>
                </mxCell>
                <mxCell id="JoX8JB2vSUP5KFqGpNIc-25" value="+ Username: string" style="text;strokeColor=none;fillColor=none;align=left;verticalAlign=top;spacingLeft=4;spacingRight=4;overflow=hidden;rotatable=0;points=[[0,0.5],[1,0.5]];portConstraint=eastwest;labelBackgroundColor=none;fontSize=11;" parent="JoX8JB2vSUP5KFqGpNIc-23" vertex="1">
                    <mxGeometry y="52" width="150" height="26" as="geometry"/>
                </mxCell>
                <mxCell id="JoX8JB2vSUP5KFqGpNIc-26" value="+ Password: string" style="text;strokeColor=none;fillColor=none;align=left;verticalAlign=top;spacingLeft=4;spacingRight=4;overflow=hidden;rotatable=0;points=[[0,0.5],[1,0.5]];portConstraint=eastwest;labelBackgroundColor=none;fontSize=11;" parent="JoX8JB2vSUP5KFqGpNIc-23" vertex="1">
                    <mxGeometry y="78" width="150" height="26" as="geometry"/>
                </mxCell>
                <mxCell id="JoX8JB2vSUP5KFqGpNIc-27" style="rounded=0;jumpSize=8;orthogonalLoop=1;jettySize=auto;html=1;fontSize=11;startArrow=none;startFill=0;endArrow=diamondThin;endFill=1;startSize=8;endSize=8;strokeWidth=1;exitX=0.5;exitY=0;exitDx=0;exitDy=0;entryX=0.25;entryY=1;entryDx=0;entryDy=0;" parent="JoX8JB2vSUP5KFqGpNIc-1" source="JoX8JB2vSUP5KFqGpNIc-23" target="JoX8JB2vSUP5KFqGpNIc-19" edge="1">
                    <mxGeometry relative="1" as="geometry">
                        <mxPoint x="641.25" y="429.66999999999996" as="sourcePoint"/>
                        <mxPoint x="715.25" y="526" as="targetPoint"/>
                    </mxGeometry>
                </mxCell>
                <mxCell id="JoX8JB2vSUP5KFqGpNIc-28" value="1" style="edgeLabel;html=1;align=center;verticalAlign=middle;resizable=0;points=[];fontSize=11;labelBackgroundColor=none;" parent="JoX8JB2vSUP5KFqGpNIc-27" vertex="1" connectable="0">
                    <mxGeometry x="-0.8359" y="1" relative="1" as="geometry">
                        <mxPoint x="-7" y="4" as="offset"/>
                    </mxGeometry>
                </mxCell>
                <mxCell id="JoX8JB2vSUP5KFqGpNIc-29" value="1" style="edgeLabel;html=1;align=center;verticalAlign=middle;resizable=0;points=[];fontSize=11;labelBackgroundColor=none;" parent="JoX8JB2vSUP5KFqGpNIc-27" vertex="1" connectable="0">
                    <mxGeometry x="0.7366" relative="1" as="geometry">
                        <mxPoint x="-4" y="-9" as="offset"/>
                    </mxGeometry>
                </mxCell>
                <mxCell id="JoX8JB2vSUP5KFqGpNIc-30" style="edgeStyle=orthogonalEdgeStyle;rounded=0;jumpSize=8;orthogonalLoop=1;jettySize=auto;html=1;exitX=0.5;exitY=0;exitDx=0;exitDy=0;fontSize=11;startArrow=none;startFill=0;endArrow=diamondThin;endFill=1;startSize=8;endSize=8;strokeWidth=1;entryX=0.5;entryY=1;entryDx=0;entryDy=0;" parent="JoX8JB2vSUP5KFqGpNIc-1" source="JoX8JB2vSUP5KFqGpNIc-33" target="JoX8JB2vSUP5KFqGpNIc-23" edge="1">
                    <mxGeometry relative="1" as="geometry">
                        <mxPoint x="697.5833333333335" y="727.6700000000001" as="targetPoint"/>
                    </mxGeometry>
                </mxCell>
                <mxCell id="JoX8JB2vSUP5KFqGpNIc-31" value="1" style="edgeLabel;html=1;align=center;verticalAlign=middle;resizable=0;points=[];fontSize=11;labelBackgroundColor=none;" parent="JoX8JB2vSUP5KFqGpNIc-30" vertex="1" connectable="0">
                    <mxGeometry x="0.7923" y="2" relative="1" as="geometry">
                        <mxPoint x="-6" y="3" as="offset"/>
                    </mxGeometry>
                </mxCell>
                <mxCell id="JoX8JB2vSUP5KFqGpNIc-32" value="0..*" style="edgeLabel;html=1;align=center;verticalAlign=middle;resizable=0;points=[];fontSize=11;labelBackgroundColor=none;" parent="JoX8JB2vSUP5KFqGpNIc-30" vertex="1" connectable="0">
                    <mxGeometry x="-0.9339" relative="1" as="geometry">
                        <mxPoint x="-12" y="-5" as="offset"/>
                    </mxGeometry>
                </mxCell>
                <mxCell id="JoX8JB2vSUP5KFqGpNIc-33" value="LoginDetail" style="swimlane;fontStyle=0;childLayout=stackLayout;horizontal=1;startSize=26;fillColor=none;horizontalStack=0;resizeParent=1;resizeParentMax=0;resizeLast=0;collapsible=1;marginBottom=0;labelBackgroundColor=none;fontSize=11;" parent="JoX8JB2vSUP5KFqGpNIc-1" vertex="1">
                    <mxGeometry x="622.25" y="773.6700000000001" width="150" height="130" as="geometry"/>
                </mxCell>
                <mxCell id="JoX8JB2vSUP5KFqGpNIc-34" value="+ LoginId: Guid" style="text;strokeColor=none;fillColor=none;align=left;verticalAlign=top;spacingLeft=4;spacingRight=4;overflow=hidden;rotatable=0;points=[[0,0.5],[1,0.5]];portConstraint=eastwest;labelBackgroundColor=none;fontSize=11;" parent="JoX8JB2vSUP5KFqGpNIc-33" vertex="1">
                    <mxGeometry y="26" width="150" height="26" as="geometry"/>
                </mxCell>
                <mxCell id="JoX8JB2vSUP5KFqGpNIc-35" value="+ Success: bool" style="text;strokeColor=none;fillColor=none;align=left;verticalAlign=top;spacingLeft=4;spacingRight=4;overflow=hidden;rotatable=0;points=[[0,0.5],[1,0.5]];portConstraint=eastwest;labelBackgroundColor=none;fontSize=11;" parent="JoX8JB2vSUP5KFqGpNIc-33" vertex="1">
                    <mxGeometry y="52" width="150" height="26" as="geometry"/>
                </mxCell>
                <mxCell id="JoX8JB2vSUP5KFqGpNIc-36" value="+ DeviceType: enum" style="text;strokeColor=none;fillColor=none;align=left;verticalAlign=top;spacingLeft=4;spacingRight=4;overflow=hidden;rotatable=0;points=[[0,0.5],[1,0.5]];portConstraint=eastwest;labelBackgroundColor=none;fontSize=11;" parent="JoX8JB2vSUP5KFqGpNIc-33" vertex="1">
                    <mxGeometry y="78" width="150" height="26" as="geometry"/>
                </mxCell>
                <mxCell id="JoX8JB2vSUP5KFqGpNIc-37" value="+ Time: DateTimeOffset" style="text;strokeColor=none;fillColor=none;align=left;verticalAlign=top;spacingLeft=4;spacingRight=4;overflow=hidden;rotatable=0;points=[[0,0.5],[1,0.5]];portConstraint=eastwest;labelBackgroundColor=none;fontSize=11;" parent="JoX8JB2vSUP5KFqGpNIc-33" vertex="1">
                    <mxGeometry y="104" width="150" height="26" as="geometry"/>
                </mxCell>
                <mxCell id="JoX8JB2vSUP5KFqGpNIc-43" style="rounded=0;jumpSize=8;orthogonalLoop=1;jettySize=auto;html=1;fontSize=11;startArrow=none;startFill=0;endArrow=diamondThin;endFill=1;startSize=8;endSize=8;strokeWidth=1;exitX=0.25;exitY=1;exitDx=0;exitDy=0;" parent="JoX8JB2vSUP5KFqGpNIc-1" source="JoX8JB2vSUP5KFqGpNIc-97" edge="1">
                    <mxGeometry relative="1" as="geometry">
                        <mxPoint x="860" y="290" as="sourcePoint"/>
                        <mxPoint x="836" y="390" as="targetPoint"/>
                    </mxGeometry>
                </mxCell>
                <mxCell id="JoX8JB2vSUP5KFqGpNIc-44" value="0..1" style="edgeLabel;html=1;align=center;verticalAlign=middle;resizable=0;points=[];fontSize=11;labelBackgroundColor=none;" parent="JoX8JB2vSUP5KFqGpNIc-43" vertex="1" connectable="0">
                    <mxGeometry x="-1" y="-1" relative="1" as="geometry">
                        <mxPoint x="11" y="8" as="offset"/>
                    </mxGeometry>
                </mxCell>
                <mxCell id="JoX8JB2vSUP5KFqGpNIc-45" value="1" style="edgeLabel;html=1;align=center;verticalAlign=middle;resizable=0;points=[];labelBackgroundColor=none;" parent="JoX8JB2vSUP5KFqGpNIc-43" vertex="1" connectable="0">
                    <mxGeometry x="0.951" relative="1" as="geometry">
                        <mxPoint x="-4" y="-12" as="offset"/>
                    </mxGeometry>
                </mxCell>
                <mxCell id="JoX8JB2vSUP5KFqGpNIc-49" style="rounded=0;jumpSize=8;orthogonalLoop=1;jettySize=auto;html=1;exitX=0;exitY=0.5;exitDx=0;exitDy=0;fontSize=11;startArrow=none;startFill=0;endArrow=diamondThin;endFill=1;startSize=8;endSize=8;strokeWidth=1;" parent="JoX8JB2vSUP5KFqGpNIc-1" source="JoX8JB2vSUP5KFqGpNIc-59" edge="1">
                    <mxGeometry relative="1" as="geometry">
                        <mxPoint x="843" y="396" as="targetPoint"/>
                    </mxGeometry>
                </mxCell>
                <mxCell id="JoX8JB2vSUP5KFqGpNIc-50" value="0..1" style="edgeLabel;html=1;align=center;verticalAlign=middle;resizable=0;points=[];fontSize=11;labelBackgroundColor=none;" parent="JoX8JB2vSUP5KFqGpNIc-49" vertex="1" connectable="0">
                    <mxGeometry x="-0.9753" relative="1" as="geometry">
                        <mxPoint x="-12" y="-8" as="offset"/>
                    </mxGeometry>
                </mxCell>
                <mxCell id="JoX8JB2vSUP5KFqGpNIc-51" value="1" style="edgeLabel;html=1;align=center;verticalAlign=middle;resizable=0;points=[];labelBackgroundColor=none;" parent="JoX8JB2vSUP5KFqGpNIc-49" vertex="1" connectable="0">
                    <mxGeometry x="0.9253" relative="1" as="geometry">
                        <mxPoint y="-9" as="offset"/>
                    </mxGeometry>
                </mxCell>
                <mxCell id="JoX8JB2vSUP5KFqGpNIc-52" value="Address" style="swimlane;fontStyle=0;childLayout=stackLayout;horizontal=1;startSize=26;fillColor=none;horizontalStack=0;resizeParent=1;resizeParentMax=0;resizeLast=0;collapsible=1;marginBottom=0;" parent="JoX8JB2vSUP5KFqGpNIc-1" vertex="1">
                    <mxGeometry x="1032.75" y="98" width="200" height="236" as="geometry"/>
                </mxCell>
                <mxCell id="JoX8JB2vSUP5KFqGpNIc-53" value="+Â AccountId: Guid" style="text;strokeColor=none;fillColor=none;align=left;verticalAlign=top;spacingLeft=4;spacingRight=4;overflow=hidden;rotatable=0;points=[[0,0.5],[1,0.5]];portConstraint=eastwest;" parent="JoX8JB2vSUP5KFqGpNIc-52" vertex="1">
                    <mxGeometry y="26" width="200" height="30" as="geometry"/>
                </mxCell>
                <mxCell id="JoX8JB2vSUP5KFqGpNIc-54" value="+ Street: string" style="text;strokeColor=none;fillColor=none;align=left;verticalAlign=top;spacingLeft=4;spacingRight=4;overflow=hidden;rotatable=0;points=[[0,0.5],[1,0.5]];portConstraint=eastwest;" parent="JoX8JB2vSUP5KFqGpNIc-52" vertex="1">
                    <mxGeometry y="56" width="200" height="30" as="geometry"/>
                </mxCell>
                <mxCell id="JoX8JB2vSUP5KFqGpNIc-55" value="+ AdditionalStreet: string" style="text;strokeColor=none;fillColor=none;align=left;verticalAlign=top;spacingLeft=4;spacingRight=4;overflow=hidden;rotatable=0;points=[[0,0.5],[1,0.5]];portConstraint=eastwest;" parent="JoX8JB2vSUP5KFqGpNIc-52" vertex="1">
                    <mxGeometry y="86" width="200" height="30" as="geometry"/>
                </mxCell>
                <mxCell id="JoX8JB2vSUP5KFqGpNIc-56" value="+ PostalCode: string" style="text;strokeColor=none;fillColor=none;align=left;verticalAlign=top;spacingLeft=4;spacingRight=4;overflow=hidden;rotatable=0;points=[[0,0.5],[1,0.5]];portConstraint=eastwest;" parent="JoX8JB2vSUP5KFqGpNIc-52" vertex="1">
                    <mxGeometry y="116" width="200" height="30" as="geometry"/>
                </mxCell>
                <mxCell id="JoX8JB2vSUP5KFqGpNIc-57" value="+ City: string" style="text;strokeColor=none;fillColor=none;align=left;verticalAlign=top;spacingLeft=4;spacingRight=4;overflow=hidden;rotatable=0;points=[[0,0.5],[1,0.5]];portConstraint=eastwest;" parent="JoX8JB2vSUP5KFqGpNIc-52" vertex="1">
                    <mxGeometry y="146" width="200" height="30" as="geometry"/>
                </mxCell>
                <mxCell id="JoX8JB2vSUP5KFqGpNIc-58" value="+ Region: string" style="text;strokeColor=none;fillColor=none;align=left;verticalAlign=top;spacingLeft=4;spacingRight=4;overflow=hidden;rotatable=0;points=[[0,0.5],[1,0.5]];portConstraint=eastwest;" parent="JoX8JB2vSUP5KFqGpNIc-52" vertex="1">
                    <mxGeometry y="176" width="200" height="30" as="geometry"/>
                </mxCell>
                <mxCell id="JoX8JB2vSUP5KFqGpNIc-59" value="+ Country: string" style="text;strokeColor=none;fillColor=none;align=left;verticalAlign=top;spacingLeft=4;spacingRight=4;overflow=hidden;rotatable=0;points=[[0,0.5],[1,0.5]];portConstraint=eastwest;" parent="JoX8JB2vSUP5KFqGpNIc-52" vertex="1">
                    <mxGeometry y="206" width="200" height="30" as="geometry"/>
                </mxCell>
                <mxCell id="JoX8JB2vSUP5KFqGpNIc-60" style="rounded=0;jumpSize=8;orthogonalLoop=1;jettySize=auto;html=1;exitX=0.5;exitY=1;exitDx=0;exitDy=0;fontSize=11;startArrow=none;startFill=0;endArrow=diamondThin;endFill=1;startSize=8;endSize=8;strokeWidth=1;entryX=0.5;entryY=0;entryDx=0;entryDy=0;" parent="JoX8JB2vSUP5KFqGpNIc-1" source="JoX8JB2vSUP5KFqGpNIc-63" target="JoX8JB2vSUP5KFqGpNIc-19" edge="1">
                    <mxGeometry relative="1" as="geometry">
                        <mxPoint x="788.25" y="389" as="targetPoint"/>
                    </mxGeometry>
                </mxCell>
                <mxCell id="JoX8JB2vSUP5KFqGpNIc-61" value="0..*" style="edgeLabel;html=1;align=center;verticalAlign=middle;resizable=0;points=[];fontSize=11;labelBackgroundColor=none;" parent="JoX8JB2vSUP5KFqGpNIc-60" vertex="1" connectable="0">
                    <mxGeometry x="-1" relative="1" as="geometry">
                        <mxPoint x="-11" y="7" as="offset"/>
                    </mxGeometry>
                </mxCell>
                <mxCell id="JoX8JB2vSUP5KFqGpNIc-62" value="1" style="edgeLabel;html=1;align=center;verticalAlign=middle;resizable=0;points=[];" parent="JoX8JB2vSUP5KFqGpNIc-60" vertex="1" connectable="0">
                    <mxGeometry x="0.9503" y="-1" relative="1" as="geometry">
                        <mxPoint x="-5" y="-4" as="offset"/>
                    </mxGeometry>
                </mxCell>
                <mxCell id="JoX8JB2vSUP5KFqGpNIc-63" value="SocialSecurityNumber" style="swimlane;fontStyle=0;childLayout=stackLayout;horizontal=1;startSize=26;fillColor=none;horizontalStack=0;resizeParent=1;resizeParentMax=0;resizeLast=0;collapsible=1;marginBottom=0;labelBackgroundColor=none;fontSize=11;" parent="JoX8JB2vSUP5KFqGpNIc-1" vertex="1">
                    <mxGeometry x="672.75" y="82" width="140" height="104" as="geometry">
                        <mxRectangle x="290" y="480" width="80" height="30" as="alternateBounds"/>
                    </mxGeometry>
                </mxCell>
                <mxCell id="JoX8JB2vSUP5KFqGpNIc-64" value="+ AccountId: Guid" style="text;strokeColor=none;fillColor=none;align=left;verticalAlign=top;spacingLeft=4;spacingRight=4;overflow=hidden;rotatable=0;points=[[0,0.5],[1,0.5]];portConstraint=eastwest;labelBackgroundColor=none;fontSize=11;" parent="JoX8JB2vSUP5KFqGpNIc-63" vertex="1">
                    <mxGeometry y="26" width="140" height="26" as="geometry"/>
                </mxCell>
                <mxCell id="JoX8JB2vSUP5KFqGpNIc-65" value="+ SsnType: enum" style="text;strokeColor=none;fillColor=none;align=left;verticalAlign=top;spacingLeft=4;spacingRight=4;overflow=hidden;rotatable=0;points=[[0,0.5],[1,0.5]];portConstraint=eastwest;labelBackgroundColor=none;fontSize=11;" parent="JoX8JB2vSUP5KFqGpNIc-63" vertex="1">
                    <mxGeometry y="52" width="140" height="26" as="geometry"/>
                </mxCell>
                <mxCell id="JoX8JB2vSUP5KFqGpNIc-66" value="+ Number: string" style="text;strokeColor=none;fillColor=none;align=left;verticalAlign=top;spacingLeft=4;spacingRight=4;overflow=hidden;rotatable=0;points=[[0,0.5],[1,0.5]];portConstraint=eastwest;labelBackgroundColor=none;fontSize=11;" parent="JoX8JB2vSUP5KFqGpNIc-63" vertex="1">
                    <mxGeometry y="78" width="140" height="26" as="geometry"/>
                </mxCell>
                <mxCell id="JoX8JB2vSUP5KFqGpNIc-67" style="rounded=0;jumpSize=8;orthogonalLoop=1;jettySize=auto;html=1;exitX=1;exitY=0.5;exitDx=0;exitDy=0;fontSize=11;startArrow=none;startFill=0;endArrow=diamondThin;endFill=1;startSize=8;endSize=8;strokeWidth=1;" parent="JoX8JB2vSUP5KFqGpNIc-1" source="JoX8JB2vSUP5KFqGpNIc-2" edge="1">
                    <mxGeometry relative="1" as="geometry">
                        <mxPoint x="622.25" y="669.550724637681" as="targetPoint"/>
                    </mxGeometry>
                </mxCell>
                <mxCell id="JoX8JB2vSUP5KFqGpNIc-68" value="0..*" style="edgeLabel;html=1;align=center;verticalAlign=middle;resizable=0;points=[];fontSize=11;labelBackgroundColor=none;" parent="JoX8JB2vSUP5KFqGpNIc-67" vertex="1" connectable="0">
                    <mxGeometry x="-0.7713" relative="1" as="geometry">
                        <mxPoint x="-2" y="-10" as="offset"/>
                    </mxGeometry>
                </mxCell>
                <mxCell id="JoX8JB2vSUP5KFqGpNIc-69" value="1" style="edgeLabel;html=1;align=center;verticalAlign=middle;resizable=0;points=[];fontSize=11;labelBackgroundColor=none;" parent="JoX8JB2vSUP5KFqGpNIc-67" vertex="1" connectable="0">
                    <mxGeometry x="0.8569" relative="1" as="geometry">
                        <mxPoint x="1" y="-12" as="offset"/>
                    </mxGeometry>
                </mxCell>
                <mxCell id="JoX8JB2vSUP5KFqGpNIc-74" style="rounded=0;jumpSize=8;orthogonalLoop=1;jettySize=auto;html=1;exitX=0.8;exitY=0.985;exitDx=0;exitDy=0;fontSize=11;startArrow=none;startFill=0;endArrow=diamondThin;endFill=1;startSize=8;endSize=8;strokeWidth=1;exitPerimeter=0;entryX=0.075;entryY=0;entryDx=0;entryDy=0;entryPerimeter=0;" parent="JoX8JB2vSUP5KFqGpNIc-1" source="i-Qsz6q3KMsQjA4ipSsD-73" target="JoX8JB2vSUP5KFqGpNIc-19" edge="1">
                    <mxGeometry relative="1" as="geometry">
                        <mxPoint x="763.25" y="389" as="targetPoint"/>
                        <mxPoint x="636.25" y="275" as="sourcePoint"/>
                    </mxGeometry>
                </mxCell>
                <mxCell id="JoX8JB2vSUP5KFqGpNIc-76" value="1" style="edgeLabel;html=1;align=center;verticalAlign=middle;resizable=0;points=[];labelBackgroundColor=none;" parent="JoX8JB2vSUP5KFqGpNIc-74" vertex="1" connectable="0">
                    <mxGeometry x="0.9051" y="1" relative="1" as="geometry">
                        <mxPoint x="5" y="-4" as="offset"/>
                    </mxGeometry>
                </mxCell>
                <mxCell id="i-Qsz6q3KMsQjA4ipSsD-112" value="1" style="edgeLabel;html=1;align=center;verticalAlign=middle;resizable=0;points=[];labelBackgroundColor=none;" parent="JoX8JB2vSUP5KFqGpNIc-74" vertex="1" connectable="0">
                    <mxGeometry x="-0.9386" y="1" relative="1" as="geometry">
                        <mxPoint x="-8" y="4" as="offset"/>
                    </mxGeometry>
                </mxCell>
                <mxCell id="JoX8JB2vSUP5KFqGpNIc-84" style="rounded=0;jumpSize=8;orthogonalLoop=1;jettySize=auto;html=1;exitX=0;exitY=0.5;exitDx=0;exitDy=0;fontSize=11;startArrow=none;startFill=0;endArrow=diamondThin;endFill=1;startSize=8;endSize=8;strokeWidth=1;entryX=1;entryY=0.5;entryDx=0;entryDy=0;" parent="JoX8JB2vSUP5KFqGpNIc-1" source="JoX8JB2vSUP5KFqGpNIc-88" target="JoX8JB2vSUP5KFqGpNIc-20" edge="1">
                    <mxGeometry relative="1" as="geometry">
                        <mxPoint x="860.25" y="455" as="targetPoint"/>
                    </mxGeometry>
                </mxCell>
                <mxCell id="JoX8JB2vSUP5KFqGpNIc-85" value="0..*" style="edgeLabel;html=1;align=center;verticalAlign=middle;resizable=0;points=[];fontSize=11;labelBackgroundColor=none;" parent="JoX8JB2vSUP5KFqGpNIc-84" vertex="1" connectable="0">
                    <mxGeometry x="-0.9999" relative="1" as="geometry">
                        <mxPoint x="-11" y="-8" as="offset"/>
                    </mxGeometry>
                </mxCell>
                <mxCell id="JoX8JB2vSUP5KFqGpNIc-86" value="1" style="edgeLabel;html=1;align=center;verticalAlign=middle;resizable=0;points=[];labelBackgroundColor=none;" parent="JoX8JB2vSUP5KFqGpNIc-84" vertex="1" connectable="0">
                    <mxGeometry x="0.9341" y="-1" relative="1" as="geometry">
                        <mxPoint y="-7" as="offset"/>
                    </mxGeometry>
                </mxCell>
                <mxCell id="JoX8JB2vSUP5KFqGpNIc-87" value="Share" style="swimlane;fontStyle=0;childLayout=stackLayout;horizontal=1;startSize=26;fillColor=none;horizontalStack=0;resizeParent=1;resizeParentMax=0;resizeLast=0;collapsible=1;marginBottom=0;labelBackgroundColor=none;fontSize=11;" parent="JoX8JB2vSUP5KFqGpNIc-1" vertex="1">
                    <mxGeometry x="1083.75" y="377.0000000000001" width="160" height="78" as="geometry"/>
                </mxCell>
                <mxCell id="JoX8JB2vSUP5KFqGpNIc-88" value="+ AccountId: Guid" style="text;strokeColor=none;fillColor=none;align=left;verticalAlign=top;spacingLeft=4;spacingRight=4;overflow=hidden;rotatable=0;points=[[0,0.5],[1,0.5]];portConstraint=eastwest;labelBackgroundColor=none;fontSize=11;" parent="JoX8JB2vSUP5KFqGpNIc-87" vertex="1">
                    <mxGeometry y="26" width="160" height="26" as="geometry"/>
                </mxCell>
                <mxCell id="JoX8JB2vSUP5KFqGpNIc-89" value="+ Expiration: DateTimeOffset" style="text;strokeColor=none;fillColor=none;align=left;verticalAlign=top;spacingLeft=4;spacingRight=4;overflow=hidden;rotatable=0;points=[[0,0.5],[1,0.5]];portConstraint=eastwest;labelBackgroundColor=none;fontSize=11;" parent="JoX8JB2vSUP5KFqGpNIc-87" vertex="1">
                    <mxGeometry y="52" width="160" height="26" as="geometry"/>
                </mxCell>
                <mxCell id="FIOOReAQ2ymPHG7rABMO-1" style="edgeStyle=none;rounded=0;orthogonalLoop=1;jettySize=auto;html=1;startArrow=none;startFill=0;endArrow=diamondThin;endFill=1;entryX=1;entryY=0.5;entryDx=0;entryDy=0;exitX=0;exitY=0.5;exitDx=0;exitDy=0;" parent="JoX8JB2vSUP5KFqGpNIc-1" source="JoX8JB2vSUP5KFqGpNIc-95" target="JoX8JB2vSUP5KFqGpNIc-88" edge="1">
                    <mxGeometry relative="1" as="geometry">
                        <mxPoint x="1241.25" y="10" as="sourcePoint"/>
                        <mxPoint x="1131.25" y="140" as="targetPoint"/>
                    </mxGeometry>
                </mxCell>
                <mxCell id="FIOOReAQ2ymPHG7rABMO-2" value="1" style="edgeLabel;html=1;align=center;verticalAlign=middle;resizable=0;points=[];labelBackgroundColor=none;" parent="FIOOReAQ2ymPHG7rABMO-1" vertex="1" connectable="0">
                    <mxGeometry x="0.916" relative="1" as="geometry">
                        <mxPoint x="3" y="-13" as="offset"/>
                    </mxGeometry>
                </mxCell>
                <mxCell id="FIOOReAQ2ymPHG7rABMO-3" value="0..*" style="edgeLabel;html=1;align=center;verticalAlign=middle;resizable=0;points=[];labelBackgroundColor=none;" parent="FIOOReAQ2ymPHG7rABMO-1" vertex="1" connectable="0">
                    <mxGeometry x="-0.8999" relative="1" as="geometry">
                        <mxPoint x="-9" y="-9" as="offset"/>
                    </mxGeometry>
                </mxCell>
                <mxCell id="JoX8JB2vSUP5KFqGpNIc-93" value="ShareDetail" style="swimlane;fontStyle=0;childLayout=stackLayout;horizontal=1;startSize=26;fillColor=none;horizontalStack=0;resizeParent=1;resizeParentMax=0;resizeLast=0;collapsible=1;marginBottom=0;labelBackgroundColor=none;fontSize=11;" parent="JoX8JB2vSUP5KFqGpNIc-1" vertex="1">
                    <mxGeometry x="1292.75" y="304" width="160" height="104" as="geometry"/>
                </mxCell>
                <mxCell id="JoX8JB2vSUP5KFqGpNIc-94" value="+ ShareId: Guid" style="text;strokeColor=none;fillColor=none;align=left;verticalAlign=top;spacingLeft=4;spacingRight=4;overflow=hidden;rotatable=0;points=[[0,0.5],[1,0.5]];portConstraint=eastwest;labelBackgroundColor=none;fontSize=11;" parent="JoX8JB2vSUP5KFqGpNIc-93" vertex="1">
                    <mxGeometry y="26" width="160" height="26" as="geometry"/>
                </mxCell>
                <mxCell id="JoX8JB2vSUP5KFqGpNIc-95" value="+ DetailType: enum" style="text;strokeColor=none;fillColor=none;align=left;verticalAlign=top;spacingLeft=4;spacingRight=4;overflow=hidden;rotatable=0;points=[[0,0.5],[1,0.5]];portConstraint=eastwest;labelBackgroundColor=none;fontSize=11;" parent="JoX8JB2vSUP5KFqGpNIc-93" vertex="1">
                    <mxGeometry y="52" width="160" height="26" as="geometry"/>
                </mxCell>
                <mxCell id="JoX8JB2vSUP5KFqGpNIc-96" value="+ Description: string" style="text;strokeColor=none;fillColor=none;align=left;verticalAlign=top;spacingLeft=4;spacingRight=4;overflow=hidden;rotatable=0;points=[[0,0.5],[1,0.5]];portConstraint=eastwest;labelBackgroundColor=none;fontSize=11;" parent="JoX8JB2vSUP5KFqGpNIc-93" vertex="1">
                    <mxGeometry y="78" width="160" height="26" as="geometry"/>
                </mxCell>
                <mxCell id="JoX8JB2vSUP5KFqGpNIc-97" value="User" style="swimlane;fontStyle=0;childLayout=stackLayout;horizontal=1;startSize=26;fillColor=none;horizontalStack=0;resizeParent=1;resizeParentMax=0;resizeLast=0;collapsible=1;marginBottom=0;labelBackgroundColor=none;fontSize=11;" parent="JoX8JB2vSUP5KFqGpNIc-1" vertex="1">
                    <mxGeometry x="838.75" y="70" width="162" height="208" as="geometry">
                        <mxRectangle x="290" y="480" width="80" height="30" as="alternateBounds"/>
                    </mxGeometry>
                </mxCell>
                <mxCell id="JoX8JB2vSUP5KFqGpNIc-98" value="+ AccountId: Guid" style="text;strokeColor=none;fillColor=none;align=left;verticalAlign=top;spacingLeft=4;spacingRight=4;overflow=hidden;rotatable=0;points=[[0,0.5],[1,0.5]];portConstraint=eastwest;labelBackgroundColor=none;fontSize=11;" parent="JoX8JB2vSUP5KFqGpNIc-97" vertex="1">
                    <mxGeometry y="26" width="162" height="26" as="geometry"/>
                </mxCell>
                <mxCell id="JoX8JB2vSUP5KFqGpNIc-99" value="+ Firstname: string" style="text;strokeColor=none;fillColor=none;align=left;verticalAlign=top;spacingLeft=4;spacingRight=4;overflow=hidden;rotatable=0;points=[[0,0.5],[1,0.5]];portConstraint=eastwest;labelBackgroundColor=none;fontSize=11;" parent="JoX8JB2vSUP5KFqGpNIc-97" vertex="1">
                    <mxGeometry y="52" width="162" height="26" as="geometry"/>
                </mxCell>
                <mxCell id="JoX8JB2vSUP5KFqGpNIc-100" value="+ Middlenames: string" style="text;strokeColor=none;fillColor=none;align=left;verticalAlign=top;spacingLeft=4;spacingRight=4;overflow=hidden;rotatable=0;points=[[0,0.5],[1,0.5]];portConstraint=eastwest;labelBackgroundColor=none;fontSize=11;" parent="JoX8JB2vSUP5KFqGpNIc-97" vertex="1">
                    <mxGeometry y="78" width="162" height="26" as="geometry"/>
                </mxCell>
                <mxCell id="JoX8JB2vSUP5KFqGpNIc-101" value="+ Lastname: string" style="text;strokeColor=none;fillColor=none;align=left;verticalAlign=top;spacingLeft=4;spacingRight=4;overflow=hidden;rotatable=0;points=[[0,0.5],[1,0.5]];portConstraint=eastwest;labelBackgroundColor=none;fontSize=11;" parent="JoX8JB2vSUP5KFqGpNIc-97" vertex="1">
                    <mxGeometry y="104" width="162" height="26" as="geometry"/>
                </mxCell>
                <mxCell id="JoX8JB2vSUP5KFqGpNIc-102" value="+ DateOfBirth: DateTimeOffset" style="text;strokeColor=none;fillColor=none;align=left;verticalAlign=top;spacingLeft=4;spacingRight=4;overflow=hidden;rotatable=0;points=[[0,0.5],[1,0.5]];portConstraint=eastwest;labelBackgroundColor=none;fontSize=11;" parent="JoX8JB2vSUP5KFqGpNIc-97" vertex="1">
                    <mxGeometry y="130" width="162" height="26" as="geometry"/>
                </mxCell>
                <mxCell id="JoX8JB2vSUP5KFqGpNIc-103" value="+ Nationality: string" style="text;strokeColor=none;fillColor=none;align=left;verticalAlign=top;spacingLeft=4;spacingRight=4;overflow=hidden;rotatable=0;points=[[0,0.5],[1,0.5]];portConstraint=eastwest;labelBackgroundColor=none;fontSize=11;" parent="JoX8JB2vSUP5KFqGpNIc-97" vertex="1">
                    <mxGeometry y="156" width="162" height="26" as="geometry"/>
                </mxCell>
                <mxCell id="JoX8JB2vSUP5KFqGpNIc-104" value="+ SexType: enum" style="text;strokeColor=none;fillColor=none;align=left;verticalAlign=top;spacingLeft=4;spacingRight=4;overflow=hidden;rotatable=0;points=[[0,0.5],[1,0.5]];portConstraint=eastwest;labelBackgroundColor=none;fontSize=11;" parent="JoX8JB2vSUP5KFqGpNIc-97" vertex="1">
                    <mxGeometry y="182" width="162" height="26" as="geometry"/>
                </mxCell>
                <mxCell id="JoX8JB2vSUP5KFqGpNIc-105" value="DocumentSignature" style="swimlane;fontStyle=0;childLayout=stackLayout;horizontal=1;startSize=26;fillColor=none;horizontalStack=0;resizeParent=1;resizeParentMax=0;resizeLast=0;collapsible=1;marginBottom=0;" parent="JoX8JB2vSUP5KFqGpNIc-1" vertex="1">
                    <mxGeometry x="1302.75" y="455" width="140" height="56" as="geometry"/>
                </mxCell>
                <mxCell id="JoX8JB2vSUP5KFqGpNIc-106" value="+ DocumentId: Guid" style="text;strokeColor=none;fillColor=none;align=left;verticalAlign=top;spacingLeft=4;spacingRight=4;overflow=hidden;rotatable=0;points=[[0,0.5],[1,0.5]];portConstraint=eastwest;" parent="JoX8JB2vSUP5KFqGpNIc-105" vertex="1">
                    <mxGeometry y="26" width="140" height="30" as="geometry"/>
                </mxCell>
                <mxCell id="JoX8JB2vSUP5KFqGpNIc-107" value="DocumentDetail" style="swimlane;fontStyle=0;childLayout=stackLayout;horizontal=1;startSize=26;fillColor=none;horizontalStack=0;resizeParent=1;resizeParentMax=0;resizeLast=0;collapsible=1;marginBottom=0;" parent="JoX8JB2vSUP5KFqGpNIc-1" vertex="1">
                    <mxGeometry x="1302.75" y="574" width="170" height="116" as="geometry"/>
                </mxCell>
                <mxCell id="JoX8JB2vSUP5KFqGpNIc-108" value="+ DocumentId: Guid" style="text;strokeColor=none;fillColor=none;align=left;verticalAlign=top;spacingLeft=4;spacingRight=4;overflow=hidden;rotatable=0;points=[[0,0.5],[1,0.5]];portConstraint=eastwest;" parent="JoX8JB2vSUP5KFqGpNIc-107" vertex="1">
                    <mxGeometry y="26" width="170" height="30" as="geometry"/>
                </mxCell>
                <mxCell id="JoX8JB2vSUP5KFqGpNIc-109" value="+ Format: string" style="text;strokeColor=none;fillColor=none;align=left;verticalAlign=top;spacingLeft=4;spacingRight=4;overflow=hidden;rotatable=0;points=[[0,0.5],[1,0.5]];portConstraint=eastwest;" parent="JoX8JB2vSUP5KFqGpNIc-107" vertex="1">
                    <mxGeometry y="56" width="170" height="30" as="geometry"/>
                </mxCell>
                <mxCell id="JoX8JB2vSUP5KFqGpNIc-110" value="+ ByteSize: int" style="text;strokeColor=none;fillColor=none;align=left;verticalAlign=top;spacingLeft=4;spacingRight=4;overflow=hidden;rotatable=0;points=[[0,0.5],[1,0.5]];portConstraint=eastwest;" parent="JoX8JB2vSUP5KFqGpNIc-107" vertex="1">
                    <mxGeometry y="86" width="170" height="30" as="geometry"/>
                </mxCell>
                <mxCell id="JoX8JB2vSUP5KFqGpNIc-111" style="edgeStyle=none;rounded=0;orthogonalLoop=1;jettySize=auto;html=1;exitX=1;exitY=0.5;exitDx=0;exitDy=0;entryX=0;entryY=0.5;entryDx=0;entryDy=0;endArrow=none;endFill=0;startArrow=diamondThin;startFill=1;" parent="JoX8JB2vSUP5KFqGpNIc-1" source="JoX8JB2vSUP5KFqGpNIc-13" target="JoX8JB2vSUP5KFqGpNIc-106" edge="1">
                    <mxGeometry relative="1" as="geometry">
                        <mxPoint x="1511.86" y="120" as="targetPoint"/>
                    </mxGeometry>
                </mxCell>
                <mxCell id="JoX8JB2vSUP5KFqGpNIc-112" value="1" style="edgeLabel;html=1;align=center;verticalAlign=middle;resizable=0;points=[];labelBackgroundColor=none;" parent="JoX8JB2vSUP5KFqGpNIc-111" vertex="1" connectable="0">
                    <mxGeometry x="-0.9229" relative="1" as="geometry">
                        <mxPoint x="2" y="-11" as="offset"/>
                    </mxGeometry>
                </mxCell>
                <mxCell id="JoX8JB2vSUP5KFqGpNIc-113" value="0..*" style="edgeLabel;html=1;align=center;verticalAlign=middle;resizable=0;points=[];labelBackgroundColor=none;" parent="JoX8JB2vSUP5KFqGpNIc-111" vertex="1" connectable="0">
                    <mxGeometry x="0.7059" relative="1" as="geometry">
                        <mxPoint x="-1" y="-15" as="offset"/>
                    </mxGeometry>
                </mxCell>
                <mxCell id="JoX8JB2vSUP5KFqGpNIc-114" style="edgeStyle=none;rounded=0;orthogonalLoop=1;jettySize=auto;html=1;exitX=1;exitY=0.5;exitDx=0;exitDy=0;entryX=-0.003;entryY=0.045;entryDx=0;entryDy=0;endArrow=none;endFill=0;startArrow=diamondThin;startFill=1;entryPerimeter=0;" parent="JoX8JB2vSUP5KFqGpNIc-1" source="JoX8JB2vSUP5KFqGpNIc-14" target="JoX8JB2vSUP5KFqGpNIc-108" edge="1">
                    <mxGeometry relative="1" as="geometry"/>
                </mxCell>
                <mxCell id="JoX8JB2vSUP5KFqGpNIc-115" value="1" style="edgeLabel;html=1;align=center;verticalAlign=middle;resizable=0;points=[];labelBackgroundColor=none;" parent="JoX8JB2vSUP5KFqGpNIc-114" vertex="1" connectable="0">
                    <mxGeometry x="0.9925" y="1" relative="1" as="geometry">
                        <mxPoint x="-5" y="-8" as="offset"/>
                    </mxGeometry>
                </mxCell>
                <mxCell id="JoX8JB2vSUP5KFqGpNIc-116" value="1" style="edgeLabel;html=1;align=center;verticalAlign=middle;resizable=0;points=[];labelBackgroundColor=none;" parent="JoX8JB2vSUP5KFqGpNIc-114" vertex="1" connectable="0">
                    <mxGeometry x="-0.9768" relative="1" as="geometry">
                        <mxPoint x="3" y="-8" as="offset"/>
                    </mxGeometry>
                </mxCell>
                <mxCell id="JoX8JB2vSUP5KFqGpNIc-117" style="rounded=0;orthogonalLoop=1;jettySize=auto;html=1;exitX=1;exitY=0.5;exitDx=0;exitDy=0;entryX=0;entryY=0.75;entryDx=0;entryDy=0;startArrow=none;startFill=0;endArrow=diamondThin;endFill=1;" parent="JoX8JB2vSUP5KFqGpNIc-1" source="JoX8JB2vSUP5KFqGpNIc-120" target="JoX8JB2vSUP5KFqGpNIc-23" edge="1">
                    <mxGeometry relative="1" as="geometry"/>
                </mxCell>
                <mxCell id="JoX8JB2vSUP5KFqGpNIc-118" value="1" style="edgeLabel;html=1;align=center;verticalAlign=middle;resizable=0;points=[];labelBackgroundColor=none;" parent="JoX8JB2vSUP5KFqGpNIc-117" vertex="1" connectable="0">
                    <mxGeometry x="0.914" relative="1" as="geometry">
                        <mxPoint x="-1" y="-11" as="offset"/>
                    </mxGeometry>
                </mxCell>
                <mxCell id="JoX8JB2vSUP5KFqGpNIc-119" value="0..*" style="edgeLabel;html=1;align=center;verticalAlign=middle;resizable=0;points=[];" parent="JoX8JB2vSUP5KFqGpNIc-117" vertex="1" connectable="0">
                    <mxGeometry x="-0.9675" relative="1" as="geometry">
                        <mxPoint x="8" y="7" as="offset"/>
                    </mxGeometry>
                </mxCell>
                <mxCell id="JoX8JB2vSUP5KFqGpNIc-120" value="DeviceToken" style="swimlane;fontStyle=0;childLayout=stackLayout;horizontal=1;startSize=26;fillColor=none;horizontalStack=0;resizeParent=1;resizeParentMax=0;resizeLast=0;collapsible=1;marginBottom=0;" parent="JoX8JB2vSUP5KFqGpNIc-1" vertex="1">
                    <mxGeometry x="339.25" y="740.0000000000001" width="170" height="104" as="geometry"/>
                </mxCell>
                <mxCell id="JoX8JB2vSUP5KFqGpNIc-121" value="+ LoginId: Guid" style="text;strokeColor=none;fillColor=none;align=left;verticalAlign=top;spacingLeft=4;spacingRight=4;overflow=hidden;rotatable=0;points=[[0,0.5],[1,0.5]];portConstraint=eastwest;" parent="JoX8JB2vSUP5KFqGpNIc-120" vertex="1">
                    <mxGeometry y="26" width="170" height="26" as="geometry"/>
                </mxCell>
                <mxCell id="JoX8JB2vSUP5KFqGpNIc-122" value="+ DeviceType: enum" style="text;strokeColor=none;fillColor=none;align=left;verticalAlign=top;spacingLeft=4;spacingRight=4;overflow=hidden;rotatable=0;points=[[0,0.5],[1,0.5]];portConstraint=eastwest;" parent="JoX8JB2vSUP5KFqGpNIc-120" vertex="1">
                    <mxGeometry y="52" width="170" height="26" as="geometry"/>
                </mxCell>
                <mxCell id="JoX8JB2vSUP5KFqGpNIc-123" value="+ Token: string" style="text;strokeColor=none;fillColor=none;align=left;verticalAlign=top;spacingLeft=4;spacingRight=4;overflow=hidden;rotatable=0;points=[[0,0.5],[1,0.5]];portConstraint=eastwest;" parent="JoX8JB2vSUP5KFqGpNIc-120" vertex="1">
                    <mxGeometry y="78" width="170" height="26" as="geometry"/>
                </mxCell>
                <mxCell id="i-Qsz6q3KMsQjA4ipSsD-62" value="PhoneNumber" style="swimlane;fontStyle=0;childLayout=stackLayout;horizontal=1;startSize=26;fillColor=none;horizontalStack=0;resizeParent=1;resizeParentMax=0;resizeLast=0;collapsible=1;marginBottom=0;labelBackgroundColor=none;" parent="JoX8JB2vSUP5KFqGpNIc-1" vertex="1">
                    <mxGeometry x="369.25" y="308" width="140" height="104" as="geometry"/>
                </mxCell>
                <mxCell id="i-Qsz6q3KMsQjA4ipSsD-63" value="+ AccountId: type" style="text;strokeColor=none;fillColor=none;align=left;verticalAlign=top;spacingLeft=4;spacingRight=4;overflow=hidden;rotatable=0;points=[[0,0.5],[1,0.5]];portConstraint=eastwest;labelBackgroundColor=none;" parent="i-Qsz6q3KMsQjA4ipSsD-62" vertex="1">
                    <mxGeometry y="26" width="140" height="26" as="geometry"/>
                </mxCell>
                <mxCell id="i-Qsz6q3KMsQjA4ipSsD-64" value="+ Number: string" style="text;strokeColor=none;fillColor=none;align=left;verticalAlign=top;spacingLeft=4;spacingRight=4;overflow=hidden;rotatable=0;points=[[0,0.5],[1,0.5]];portConstraint=eastwest;labelBackgroundColor=none;" parent="i-Qsz6q3KMsQjA4ipSsD-62" vertex="1">
                    <mxGeometry y="52" width="140" height="26" as="geometry"/>
                </mxCell>
                <mxCell id="i-Qsz6q3KMsQjA4ipSsD-65" value="+ Verified: bool" style="text;strokeColor=none;fillColor=none;align=left;verticalAlign=top;spacingLeft=4;spacingRight=4;overflow=hidden;rotatable=0;points=[[0,0.5],[1,0.5]];portConstraint=eastwest;labelBackgroundColor=none;" parent="i-Qsz6q3KMsQjA4ipSsD-62" vertex="1">
                    <mxGeometry y="78" width="140" height="26" as="geometry"/>
                </mxCell>
                <mxCell id="i-Qsz6q3KMsQjA4ipSsD-78" style="edgeStyle=orthogonalEdgeStyle;rounded=0;orthogonalLoop=1;jettySize=auto;html=1;exitX=1;exitY=0.5;exitDx=0;exitDy=0;entryX=0;entryY=0.5;entryDx=0;entryDy=0;startArrow=none;startFill=0;endArrow=diamondThin;endFill=1;" parent="JoX8JB2vSUP5KFqGpNIc-1" source="i-Qsz6q3KMsQjA4ipSsD-66" target="i-Qsz6q3KMsQjA4ipSsD-70" edge="1">
                    <mxGeometry relative="1" as="geometry"/>
                </mxCell>
                <mxCell id="i-Qsz6q3KMsQjA4ipSsD-105" value="1" style="edgeLabel;html=1;align=center;verticalAlign=middle;resizable=0;points=[];labelBackgroundColor=none;" parent="i-Qsz6q3KMsQjA4ipSsD-78" vertex="1" connectable="0">
                    <mxGeometry x="0.9354" relative="1" as="geometry">
                        <mxPoint x="-1" y="-10" as="offset"/>
                    </mxGeometry>
                </mxCell>
                <mxCell id="i-Qsz6q3KMsQjA4ipSsD-106" value="1" style="edgeLabel;html=1;align=center;verticalAlign=middle;resizable=0;points=[];labelBackgroundColor=none;" parent="i-Qsz6q3KMsQjA4ipSsD-78" vertex="1" connectable="0">
                    <mxGeometry x="-0.915" y="1" relative="1" as="geometry">
                        <mxPoint y="-7" as="offset"/>
                    </mxGeometry>
                </mxCell>
                <mxCell id="i-Qsz6q3KMsQjA4ipSsD-66" value="EmailVerificationCode" style="swimlane;fontStyle=0;childLayout=stackLayout;horizontal=1;startSize=26;fillColor=none;horizontalStack=0;resizeParent=1;resizeParentMax=0;resizeLast=0;collapsible=1;marginBottom=0;labelBackgroundColor=none;" parent="JoX8JB2vSUP5KFqGpNIc-1" vertex="1">
                    <mxGeometry x="280" y="160" width="174" height="104" as="geometry"/>
                </mxCell>
                <mxCell id="i-Qsz6q3KMsQjA4ipSsD-67" value="+ EmailId: Guid" style="text;strokeColor=none;fillColor=none;align=left;verticalAlign=top;spacingLeft=4;spacingRight=4;overflow=hidden;rotatable=0;points=[[0,0.5],[1,0.5]];portConstraint=eastwest;labelBackgroundColor=none;" parent="i-Qsz6q3KMsQjA4ipSsD-66" vertex="1">
                    <mxGeometry y="26" width="174" height="26" as="geometry"/>
                </mxCell>
                <mxCell id="i-Qsz6q3KMsQjA4ipSsD-68" value="+ AccoundId: Guid" style="text;strokeColor=none;fillColor=none;align=left;verticalAlign=top;spacingLeft=4;spacingRight=4;overflow=hidden;rotatable=0;points=[[0,0.5],[1,0.5]];portConstraint=eastwest;labelBackgroundColor=none;" parent="i-Qsz6q3KMsQjA4ipSsD-66" vertex="1">
                    <mxGeometry y="52" width="174" height="26" as="geometry"/>
                </mxCell>
                <mxCell id="i-Qsz6q3KMsQjA4ipSsD-69" value="+ Code: string" style="text;strokeColor=none;fillColor=none;align=left;verticalAlign=top;spacingLeft=4;spacingRight=4;overflow=hidden;rotatable=0;points=[[0,0.5],[1,0.5]];portConstraint=eastwest;labelBackgroundColor=none;" parent="i-Qsz6q3KMsQjA4ipSsD-66" vertex="1">
                    <mxGeometry y="78" width="174" height="26" as="geometry"/>
                </mxCell>
                <mxCell id="i-Qsz6q3KMsQjA4ipSsD-70" value="Email" style="swimlane;fontStyle=0;childLayout=stackLayout;horizontal=1;startSize=26;fillColor=none;horizontalStack=0;resizeParent=1;resizeParentMax=0;resizeLast=0;collapsible=1;marginBottom=0;labelBackgroundColor=none;" parent="JoX8JB2vSUP5KFqGpNIc-1" vertex="1">
                    <mxGeometry x="495.25" y="70" width="140" height="104" as="geometry"/>
                </mxCell>
                <mxCell id="i-Qsz6q3KMsQjA4ipSsD-71" value="+ AccountId: type" style="text;strokeColor=none;fillColor=none;align=left;verticalAlign=top;spacingLeft=4;spacingRight=4;overflow=hidden;rotatable=0;points=[[0,0.5],[1,0.5]];portConstraint=eastwest;labelBackgroundColor=none;" parent="i-Qsz6q3KMsQjA4ipSsD-70" vertex="1">
                    <mxGeometry y="26" width="140" height="26" as="geometry"/>
                </mxCell>
                <mxCell id="i-Qsz6q3KMsQjA4ipSsD-72" value="+ Address: string" style="text;strokeColor=none;fillColor=none;align=left;verticalAlign=top;spacingLeft=4;spacingRight=4;overflow=hidden;rotatable=0;points=[[0,0.5],[1,0.5]];portConstraint=eastwest;labelBackgroundColor=none;" parent="i-Qsz6q3KMsQjA4ipSsD-70" vertex="1">
                    <mxGeometry y="52" width="140" height="26" as="geometry"/>
                </mxCell>
                <mxCell id="i-Qsz6q3KMsQjA4ipSsD-73" value="+ Verified: bool" style="text;strokeColor=none;fillColor=none;align=left;verticalAlign=top;spacingLeft=4;spacingRight=4;overflow=hidden;rotatable=0;points=[[0,0.5],[1,0.5]];portConstraint=eastwest;labelBackgroundColor=none;" parent="i-Qsz6q3KMsQjA4ipSsD-70" vertex="1">
                    <mxGeometry y="78" width="140" height="26" as="geometry"/>
                </mxCell>
                <mxCell id="i-Qsz6q3KMsQjA4ipSsD-81" style="edgeStyle=orthogonalEdgeStyle;rounded=0;orthogonalLoop=1;jettySize=auto;html=1;exitX=0.5;exitY=0;exitDx=0;exitDy=0;entryX=0.5;entryY=1;entryDx=0;entryDy=0;startArrow=none;startFill=0;endArrow=diamondThin;endFill=1;" parent="JoX8JB2vSUP5KFqGpNIc-1" source="i-Qsz6q3KMsQjA4ipSsD-74" target="i-Qsz6q3KMsQjA4ipSsD-62" edge="1">
                    <mxGeometry relative="1" as="geometry"/>
                </mxCell>
                <mxCell id="i-Qsz6q3KMsQjA4ipSsD-103" value="1" style="edgeLabel;html=1;align=center;verticalAlign=middle;resizable=0;points=[];labelBackgroundColor=none;" parent="i-Qsz6q3KMsQjA4ipSsD-81" vertex="1" connectable="0">
                    <mxGeometry x="0.8911" relative="1" as="geometry">
                        <mxPoint x="6" y="3" as="offset"/>
                    </mxGeometry>
                </mxCell>
                <mxCell id="i-Qsz6q3KMsQjA4ipSsD-104" value="1" style="edgeLabel;html=1;align=center;verticalAlign=middle;resizable=0;points=[];labelBackgroundColor=none;" parent="i-Qsz6q3KMsQjA4ipSsD-81" vertex="1" connectable="0">
                    <mxGeometry x="-0.8748" relative="1" as="geometry">
                        <mxPoint x="5" y="-2" as="offset"/>
                    </mxGeometry>
                </mxCell>
                <mxCell id="i-Qsz6q3KMsQjA4ipSsD-82" style="edgeStyle=none;rounded=0;orthogonalLoop=1;jettySize=auto;html=1;exitX=1;exitY=0.5;exitDx=0;exitDy=0;startArrow=none;startFill=0;endArrow=diamondThin;endFill=1;entryX=0;entryY=0.75;entryDx=0;entryDy=0;" parent="JoX8JB2vSUP5KFqGpNIc-1" source="i-Qsz6q3KMsQjA4ipSsD-74" target="JoX8JB2vSUP5KFqGpNIc-19" edge="1">
                    <mxGeometry relative="1" as="geometry">
                        <mxPoint x="701.25" y="403" as="targetPoint"/>
                    </mxGeometry>
                </mxCell>
                <mxCell id="i-Qsz6q3KMsQjA4ipSsD-109" value="1" style="edgeLabel;html=1;align=center;verticalAlign=middle;resizable=0;points=[];labelBackgroundColor=none;" parent="i-Qsz6q3KMsQjA4ipSsD-82" vertex="1" connectable="0">
                    <mxGeometry x="0.9345" y="2" relative="1" as="geometry">
                        <mxPoint y="-7" as="offset"/>
                    </mxGeometry>
                </mxCell>
                <mxCell id="i-Qsz6q3KMsQjA4ipSsD-110" value="1" style="edgeLabel;html=1;align=center;verticalAlign=middle;resizable=0;points=[];labelBackgroundColor=none;" parent="i-Qsz6q3KMsQjA4ipSsD-82" vertex="1" connectable="0">
                    <mxGeometry x="-0.919" relative="1" as="geometry">
                        <mxPoint x="-1" y="-9" as="offset"/>
                    </mxGeometry>
                </mxCell>
                <mxCell id="i-Qsz6q3KMsQjA4ipSsD-74" value="PhoneNumberVerificationCode" style="swimlane;fontStyle=0;childLayout=stackLayout;horizontal=1;startSize=26;fillColor=none;horizontalStack=0;resizeParent=1;resizeParentMax=0;resizeLast=0;collapsible=1;marginBottom=0;labelBackgroundColor=none;" parent="JoX8JB2vSUP5KFqGpNIc-1" vertex="1">
                    <mxGeometry x="331.75" y="470" width="215" height="104" as="geometry"/>
                </mxCell>
                <mxCell id="i-Qsz6q3KMsQjA4ipSsD-75" value="+ PhoneNumberId: Guid" style="text;strokeColor=none;fillColor=none;align=left;verticalAlign=top;spacingLeft=4;spacingRight=4;overflow=hidden;rotatable=0;points=[[0,0.5],[1,0.5]];portConstraint=eastwest;labelBackgroundColor=none;" parent="i-Qsz6q3KMsQjA4ipSsD-74" vertex="1">
                    <mxGeometry y="26" width="215" height="26" as="geometry"/>
                </mxCell>
                <mxCell id="i-Qsz6q3KMsQjA4ipSsD-76" value="+ AccountId: Guid" style="text;strokeColor=none;fillColor=none;align=left;verticalAlign=top;spacingLeft=4;spacingRight=4;overflow=hidden;rotatable=0;points=[[0,0.5],[1,0.5]];portConstraint=eastwest;labelBackgroundColor=none;" parent="i-Qsz6q3KMsQjA4ipSsD-74" vertex="1">
                    <mxGeometry y="52" width="215" height="26" as="geometry"/>
                </mxCell>
                <mxCell id="i-Qsz6q3KMsQjA4ipSsD-77" value="+ Code: string" style="text;strokeColor=none;fillColor=none;align=left;verticalAlign=top;spacingLeft=4;spacingRight=4;overflow=hidden;rotatable=0;points=[[0,0.5],[1,0.5]];portConstraint=eastwest;labelBackgroundColor=none;" parent="i-Qsz6q3KMsQjA4ipSsD-74" vertex="1">
                    <mxGeometry y="78" width="215" height="26" as="geometry"/>
                </mxCell>
                <mxCell id="i-Qsz6q3KMsQjA4ipSsD-79" style="rounded=0;orthogonalLoop=1;jettySize=auto;html=1;startArrow=none;startFill=0;endArrow=diamondThin;endFill=1;entryX=-0.002;entryY=0.197;entryDx=0;entryDy=0;exitX=1;exitY=0.75;exitDx=0;exitDy=0;entryPerimeter=0;" parent="JoX8JB2vSUP5KFqGpNIc-1" source="i-Qsz6q3KMsQjA4ipSsD-66" target="JoX8JB2vSUP5KFqGpNIc-19" edge="1">
                    <mxGeometry relative="1" as="geometry">
                        <mxPoint x="495.25" y="136" as="targetPoint"/>
                        <mxPoint x="435.25" y="216" as="sourcePoint"/>
                    </mxGeometry>
                </mxCell>
                <mxCell id="i-Qsz6q3KMsQjA4ipSsD-107" value="1" style="edgeLabel;html=1;align=center;verticalAlign=middle;resizable=0;points=[];labelBackgroundColor=none;" parent="i-Qsz6q3KMsQjA4ipSsD-79" vertex="1" connectable="0">
                    <mxGeometry x="0.9641" y="1" relative="1" as="geometry">
                        <mxPoint x="-2" y="-8" as="offset"/>
                    </mxGeometry>
                </mxCell>
                <mxCell id="i-Qsz6q3KMsQjA4ipSsD-113" value="1" style="edgeLabel;html=1;align=center;verticalAlign=middle;resizable=0;points=[];labelBackgroundColor=none;" parent="i-Qsz6q3KMsQjA4ipSsD-79" vertex="1" connectable="0">
                    <mxGeometry x="-0.9373" y="1" relative="1" as="geometry">
                        <mxPoint x="-2" y="-9" as="offset"/>
                    </mxGeometry>
                </mxCell>
                <mxCell id="i-Qsz6q3KMsQjA4ipSsD-80" style="edgeStyle=none;rounded=0;orthogonalLoop=1;jettySize=auto;html=1;exitX=1;exitY=0.5;exitDx=0;exitDy=0;startArrow=none;startFill=0;endArrow=diamondThin;endFill=1;entryX=0;entryY=0.5;entryDx=0;entryDy=0;" parent="JoX8JB2vSUP5KFqGpNIc-1" source="i-Qsz6q3KMsQjA4ipSsD-62" target="JoX8JB2vSUP5KFqGpNIc-19" edge="1">
                    <mxGeometry relative="1" as="geometry">
                        <mxPoint x="695.25" y="376" as="targetPoint"/>
                    </mxGeometry>
                </mxCell>
                <mxCell id="i-Qsz6q3KMsQjA4ipSsD-108" value="1" style="edgeLabel;html=1;align=center;verticalAlign=middle;resizable=0;points=[];labelBackgroundColor=none;" parent="i-Qsz6q3KMsQjA4ipSsD-80" vertex="1" connectable="0">
                    <mxGeometry x="0.9395" y="1" relative="1" as="geometry">
                        <mxPoint x="-1" y="-7" as="offset"/>
                    </mxGeometry>
                </mxCell>
                <mxCell id="i-Qsz6q3KMsQjA4ipSsD-111" value="1" style="edgeLabel;html=1;align=center;verticalAlign=middle;resizable=0;points=[];labelBackgroundColor=none;" parent="i-Qsz6q3KMsQjA4ipSsD-80" vertex="1" connectable="0">
                    <mxGeometry x="-0.9149" relative="1" as="geometry">
                        <mxPoint x="-4" y="-9" as="offset"/>
                    </mxGeometry>
                </mxCell>
            </root>
        </mxGraphModel>
    </diagram>
</mxfile>